<svg width="292" height="109" viewBox="0 0 292 109" fill="none" xmlns="http://www.w3.org/2000/svg">
<path d="M48.8564 22.9776V24.4378H53.2862V27.2312H51.6812V28.628H50.2688V30.0247H47.5724V27.2312H48.8564V24.4378H47.5724V25.9615H46.2241V28.628H44.8759V32.6276H46.2241V34.0243H53.222V32.6276H55.9184V31.2309H57.3308V28.628H58.8074V24.6918H57.3629H55.9184V22.9776H48.8564Z" fill="#DD4919"/>
<path d="M47.5724 27.2312V30.0247H50.2688V28.628H51.6812V27.2312H53.2862V24.4378H48.8564V27.2312H47.5724Z" fill="#E5A948"/>
<path fill-rule="evenodd" clip-rule="evenodd" d="M25.6159 68.2438H26.9641V69.5135H28.3123V70.7832H30.8803V72.3069H33.7693V73.5132H36.4657V74.9734H39.2263V76.3701H42.1153V77.6398H44.9401V79.0365H47.6366V80.4333H50.4614V81.6395H53.1578V83.0997H57.395V81.6395H60.1556V80.4333H62.9804V79.0365H65.8052V77.6398H68.5658V76.3701H71.4548V74.9734H74.2796V73.5132H76.976V72.3069H79.8009V70.7832H82.6899V69.5135H84.0381V58.7207H82.6899V57.324H81.1491V56.1813H78.4527V54.6576H75.7562V53.1339H73.0598V51.8642H70.1066V50.404H67.2818V49.1977H64.5212V47.801H61.6964V46.2138H58.9358V43.8648V40.9444H61.4396V39.4207H62.852V38.0875H64.2644V35.4211H65.6768V27.2312H64.2644V24.4378H62.852V22.9776H61.4396V21.4539H58.9358V19.9937H48.9206V21.4539H46.2241V22.9776H45.0043V24.6918H43.4635V27.2312H41.9227V35.4211H43.4635V38.0875H45.0043V39.4207H46.2241V40.9444H49.1132V42.2141V47.801H46.2241V49.1977H43.4635V50.404H39.3547V51.8642H36.3373V53.1339H33.6409V54.6576H29.7889V56.1813H27.2209V57.451H25.6159V68.2438ZM28.3123 66.8471V58.7207H29.4679V57.451H32.2927H33.4483V56.1813H36.4657V54.6576H39.4189V53.1339H43.4635V51.8642H46.2241V50.404H49.1132V53.1339H47.5724V54.6576H48.9848V57.7684H50.333V58.9747H53.0936H57.3308V57.5145H58.8716V54.6576H60.2198V53.1339H58.8716V49.0072H61.6964V50.404H64.5212V51.8642H67.2818V53.2609H70.1066V54.6576H73.0598V56.1813H75.7562V57.451H78.4527V58.7842H79.8009V60.054H81.1491V68.3073H78.7094V69.5135H75.692V70.9737H72.8672V72.3069H70.0424V73.5132H67.2176V74.9734H64.5212V76.3701H61.6964V77.6398H58.8716V79.0365H54.6023H53.1578H51.7454V77.6398H50.333H48.8564V76.3701H47.5724H46.16V74.9734H44.9401H43.5277V73.5132H41.9227H40.5745V72.3069H39.2263H38.1349V70.7832H36.4657H35.1175V69.5135H33.6409H32.2927V68.2438H30.8803H29.5963V66.8471H28.3123ZM51.7454 56.1813V42.2141H53.0936H54.6023H56.111V56.1813H54.6023H53.0936H51.7454ZM57.3308 39.4207H50.2688V38.0875H47.5724V36.4368H46.2241V34.0243H44.8759V32.6276V28.628H46.2241V25.9615H47.5724V24.4378H48.8564V22.9776H55.9184H57.3629H58.8074V24.6918H60.1556V25.9615H61.568V28.628H62.852V34.0243H61.568V36.4368H60.1556V38.0875H57.3308V39.4207Z" fill="#572A0D"/>
<path d="M56.111 56.1813V42.2141H54.6023V56.1813H56.111Z" fill="#804A11"/>
<path d="M53.0936 42.2141V56.1813H54.6023V42.2141H53.0936Z" fill="#D08D16"/>
<path d="M44.8759 34.0243H46.2241V32.6276H44.8759V34.0243Z" fill="#B82715"/>
<path d="M49.1132 40.9444H46.2241V42.2141H49.1132V40.9444Z" fill="#C68607"/>
<path d="M61.4396 40.9444H58.9358V43.8648H60.1556V42.2141H61.4396V40.9444Z" fill="#C68607"/>
<path d="M47.5724 54.6576H45.0043V56.1813H43.6561V60.054H45.0043V61.3872H46.3525V62.7839H49.1132V64.1171H58.8716V62.7839H61.6964V61.3872H62.9162V60.054H64.5212V56.1813H62.9162V54.6576H60.2198V56.1813H61.6964V58.7842H60.2198V60.2444H58.8716V61.3872H54.6023H48.9848V60.2444H46.2241V58.7842V57.7684V56.1813H47.5724V54.6576Z" fill="#572A0D"/>
<path d="M57.3308 57.5145V58.9747H53.0936V60.2444H54.6023V61.3872H58.8716V60.2444H60.2198V58.7842H61.6964V56.1813H60.2198V54.6576H58.8716V57.5145H57.3308Z" fill="#804912"/>
<path d="M48.9848 54.6576H47.5724V56.1813V57.7684H46.2241V58.7842H48.9848V60.2444H53.0936V58.9747H50.333V57.7684H48.9848V54.6576Z" fill="#C37F15"/>
<path d="M47.5724 56.1813H46.2241V57.7684H47.5724V56.1813Z" fill="#CC8A13"/>
<path d="M46.2241 60.2444H48.9848V58.7842H46.2241V60.2444Z" fill="#F6CA33"/>
<path d="M48.9848 60.2444V61.3872H54.6023V60.2444H53.0936H48.9848Z" fill="#F6CA33"/>
<path d="M81.1491 60.054H79.8009H76.976V61.3872H74.2796V62.7839H71.4548V64.1171H68.5658V65.5773H65.8052V66.8471H62.9804V68.2438H60.1556V69.5135H57.395V70.9737H54.6023V79.0365H58.8716V77.6398H61.6964V76.3701H64.5212V74.9734H67.2176V73.5132H70.0424V72.3069H72.8672V70.9737H75.692V69.5135H78.7094V68.3073H81.1491V60.054Z" fill="#7E480F"/>
<path d="M28.3123 58.7207V66.8471H29.5963H30.8803V68.2438H32.2927H33.6409V69.5135H35.1175H36.4657V70.7832H38.1349H39.2263V72.3069H40.5745H41.9227V73.5132H43.5277H44.9401V74.9734H46.16H47.5724V76.3701H48.8564H50.333V77.6398H51.7454H53.1578V79.0365H54.6023V70.9737H57.395V69.5135H54.6023H50.4614V68.2438H47.5724V66.8471H44.9401V65.5773H41.9227V64.1171H39.2263V62.7839H36.3373V61.3872H33.4483V60.054H30.8803V58.7207H29.4679H28.3123Z" fill="#C5810E"/>
<path d="M79.8009 58.7842H78.4527H76.976V60.054H79.8009V58.7842Z" fill="#BF7E04"/>
<path d="M74.2796 60.054V61.3872H76.976V60.054H74.2796Z" fill="#BF7E04"/>
<path d="M71.4548 61.3872V62.7839H74.2796V61.3872H71.4548Z" fill="#BF7E04"/>
<path d="M68.5658 62.7839V64.1171H71.4548V62.7839H68.5658Z" fill="#BF7E04"/>
<path d="M65.8052 64.1171V65.5773H68.5658V64.1171H65.8052Z" fill="#BF7E04"/>
<path d="M62.9804 65.5773V66.8471H65.8052V65.5773H62.9804Z" fill="#BF7E04"/>
<path d="M60.1556 66.8471V68.2438H62.9804V66.8471H60.1556Z" fill="#BF7E04"/>
<path d="M57.395 68.2438V69.5135H60.1556V68.2438H57.395Z" fill="#BF7E04"/>
<path d="M29.4679 57.451V58.7207H30.8803V60.054H33.4483V61.3872H36.3373V62.7839H39.2263V64.1171H41.9227V65.5773H44.9401V66.8471H47.5724V68.2438H50.4614V69.5135H54.6023V68.2438H53.1738H51.7454V66.8471H50.3009H48.8564V65.5773H47.5402H46.2241V64.1171H44.8438H43.4635V62.7839H42.1153H40.7671V61.3872H39.451H38.1349V60.2444H36.4978H34.8607V58.7842H33.4483H32.2927V57.451H29.4679Z" fill="#F7EE7C"/>
<path d="M29.5963 66.8471V68.2438H30.8803V66.8471H29.5963Z" fill="#7B450B"/>
<path d="M32.2927 68.2438V69.5135H33.6409V68.2438H32.2927Z" fill="#7B450B"/>
<path d="M35.1175 69.5135V70.7832H36.4657V69.5135H35.1175Z" fill="#7B450B"/>
<path d="M38.1349 70.7832V72.3069H39.2263V70.7832H38.1349Z" fill="#7B450B"/>
<path d="M40.5745 72.3069V73.5132H41.9227V72.3069H40.5745Z" fill="#7B450B"/>
<path d="M43.5277 73.5132V74.9734H44.9401V73.5132H43.5277Z" fill="#7B450B"/>
<path d="M46.16 74.9734V76.3701H47.5724V74.9734H46.16Z" fill="#7B450B"/>
<path d="M48.8564 76.3701V77.6398H50.333V76.3701H48.8564Z" fill="#7B450B"/>
<path d="M51.7454 77.6398V79.0365H53.1578V77.6398H51.7454Z" fill="#7B450B"/>
<path d="M57.395 83.0997H53.1578V84.4964H61.6964V83.0997H64.5212V81.6395H67.2176V80.4333H69.8498V79.0365H72.8672V77.6398H75.7562V76.3701H78.4527V74.9734H81.1491V73.5132H82.6899V72.3069H84.0381V69.5135H82.6899V70.7832H79.8009V72.3069H76.976V73.5132H74.2796V74.9734H71.4548V76.3701H68.5658V77.6398H65.8052V79.0365H62.9804V80.4333H60.1556V81.6395H57.395V83.0997Z" fill="#C78410"/>
<path d="M26.9641 68.2438H25.6159V69.5135H26.9641V68.2438Z" fill="#C78410"/>
<path d="M28.3123 69.5135H26.9641V70.7832H28.3123V69.5135Z" fill="#C78410"/>
<path d="M30.8803 70.7832H28.3123V72.3069H30.8803V70.7832Z" fill="#C78410"/>
<path d="M33.7693 72.3069H30.8803V73.5132H33.7693V72.3069Z" fill="#C78410"/>
<path d="M36.4657 73.5132H33.7693V74.9734H36.4657V73.5132Z" fill="#C78410"/>
<path d="M39.2263 74.9734H36.4657V76.3701H39.2263V74.9734Z" fill="#C78410"/>
<path d="M42.1153 76.3701H39.2263V77.6398H42.1153V76.3701Z" fill="#C78410"/>
<path d="M44.9401 77.6398H42.1153V79.0365H44.9401V77.6398Z" fill="#C78410"/>
<path d="M47.6366 79.0365H44.9401V80.4333H47.6366V79.0365Z" fill="#C78410"/>
<path d="M50.4614 80.4333H47.6366V81.6395H50.4614V80.4333Z" fill="#C78410"/>
<path d="M53.1578 81.6395H50.4614V83.0997H53.1578V81.6395Z" fill="#C78410"/>
<path d="M67.2176 92.3053V89.5754H41.3449V92.3688H67.2176V92.3053Z" fill="#D18E11"/>
<path d="M41.3449 94.9717H67.2176V92.3688H41.3449V94.9717Z" fill="#79470D"/>
<path d="M67.2176 94.9717H41.3449V97.6382H67.2176V94.9717Z" fill="#F8D835"/>
<path d="M67.346 103.162V100.495H41.1523V103.162H67.346Z" fill="#D18E11"/>
<path d="M70.2992 106.018V103.162H67.346H41.1523H38.2633V106.018H70.2992Z" fill="#60340B"/>
<path d="M38.2633 106.018V108.621H70.2992V106.018H38.2633Z" fill="#472009"/>
<path d="M30.2383 103.162V106.018H38.2633V103.162H30.2383Z" fill="#472009"/>
<path d="M24.5887 100.495V103.162H30.2383V100.495H27.4777H24.5887Z" fill="#472009"/>
<path d="M22.0207 97.6382V100.495H24.5887V97.6382H22.0207Z" fill="#472009"/>
<path d="M19.3243 94.9717V97.6382H22.0207V94.9717H19.3243Z" fill="#472009"/>
<path d="M16.4995 92.3688V94.9717H19.3243V92.3688H16.4995Z" fill="#472009"/>
<path d="M13.7388 89.5754V92.3688H16.4995V89.5754H13.7388Z" fill="#472009"/>
<path d="M10.914 86.8454V89.5754H13.7388V86.8454H10.914Z" fill="#472009"/>
<path d="M8.28183 84.3059V86.8454H10.914V84.3059H8.28183Z" fill="#472009"/>
<path d="M5.64962 78.9731V84.3059H8.28183V78.9731H5.64962Z" fill="#472009"/>
<path d="M2.88901 73.3227V78.9731H5.64962V73.3227H2.88901Z" fill="#472009"/>
<path d="M2.88901 35.4211H0V73.3227H2.88901V67.7994V62.403V46.4043V38.278V35.4211Z" fill="#472009"/>
<path d="M5.64962 30.0247H2.88901V35.4211H5.64962V32.8181V30.0247Z" fill="#472009"/>
<path d="M8.28183 24.6918H5.64962V30.0247H8.28183V24.6918Z" fill="#472009"/>
<path d="M11.0424 21.8984H8.28183V24.6918H11.0424V21.8984Z" fill="#472009"/>
<path d="M13.7388 19.1049H11.0424V21.8984H13.7388V19.1049Z" fill="#472009"/>
<path d="M16.4995 16.375H13.7388V19.1049H16.4995V16.375Z" fill="#472009"/>
<path d="M19.1959 13.6451H16.4995V16.375H19.1959V13.6451Z" fill="#472009"/>
<path d="M21.8923 10.9786H19.1959V13.6451H21.8923V10.9786Z" fill="#472009"/>
<path d="M24.6529 8.37565H21.8923V10.9786H24.6529V8.37565Z" fill="#472009"/>
<path d="M30.1099 5.58223H24.6529V8.37565H27.3814H30.1099V5.58223Z" fill="#472009"/>
<path d="M38.1349 2.85229H30.1099V5.58223H35.4385H38.1349V2.85229Z" fill="#472009"/>
<path d="M70.235 2.85229V0.0588684H38.1349V2.85229H43.3993H49.2416H62.4668H70.235Z" fill="#472009"/>
<path d="M83.9739 8.24867V5.58223H78.3885V8.24867H81.1812H83.9739Z" fill="#472009"/>
<path d="M86.6061 10.9786V8.24867H83.9739V10.9786H86.6061Z" fill="#472009"/>
<path d="M89.4951 13.6451V10.9786H86.6061V13.6451H89.4951Z" fill="#472009"/>
<path d="M92.0631 16.375V13.6451H89.4951V16.375H92.0631Z" fill="#472009"/>
<path d="M94.8879 19.1049V16.375H92.0631V19.1049H94.8879Z" fill="#472009"/>
<path d="M97.5201 21.8349V19.1049H94.8879V21.8349H97.5201Z" fill="#472009"/>
<path d="M100.345 24.4378V21.8349H97.5201V24.4378H100.345Z" fill="#472009"/>
<path d="M103.041 30.0882V24.4378H100.345V30.0882H103.041Z" fill="#472009"/>
<path d="M105.738 35.3576V30.0882H103.041V35.3576H105.738Z" fill="#472009"/>
<path d="M105.738 73.4814H108.563V35.3576H105.738V43.8013V62.403V67.9898V73.4814Z" fill="#472009"/>
<path d="M105.738 73.4814H103.041V76.0527V78.7826H105.738V73.4814Z" fill="#472009"/>
<path d="M100.409 84.179H103.041V78.7826H100.409V84.179Z" fill="#472009"/>
<path d="M97.5843 86.7819H100.409V84.179H97.5843V86.7819Z" fill="#472009"/>
<path d="M94.8879 89.5754H97.5843V86.7819H94.8879V89.5754Z" fill="#472009"/>
<path d="M92.0631 92.3053H94.8879V89.5754H92.0631V92.3053Z" fill="#472009"/>
<path d="M89.4309 94.9717H92.0631V92.3688H89.4309V94.9717Z" fill="#472009"/>
<path d="M86.6703 97.6382H89.4309V94.9717H86.6703V97.6382Z" fill="#472009"/>
<path d="M84.0381 100.495H86.6703V97.6382H84.0381V100.495Z" fill="#472009"/>
<path d="M78.4205 103.162H84.0381V100.495H81.2293H78.4205V103.162Z" fill="#472009"/>
<path d="M70.2992 106.018H78.4205V103.162H74.3599H70.2992V106.018Z" fill="#472009"/>
<path d="M67.346 100.495V103.162H70.2992V100.495H67.346Z" fill="#844B0D"/>
<path d="M41.1523 103.162V100.495H38.2633V103.162H41.1523Z" fill="#844B0D"/>
<path d="M75.692 100.495H72.7388H70.2992V103.162H74.3599H78.4205V100.495H75.692Z" fill="#713E0C"/>
<path d="M35.7595 100.495H32.8705H30.2383V103.162H38.2633V100.495H35.7595Z" fill="#713E0C"/>
<path d="M75.692 92.3053V89.5754H70.235H67.2176V92.3053H72.7388H75.692Z" fill="#79470D"/>
<path d="M75.692 89.5754H78.4527V86.7819H81.1491V84.179H78.4205V86.7819H75.692V89.5754Z" fill="#79470D"/>
<path d="M81.1491 84.179H84.0381V81.6395H81.1491V84.179Z" fill="#79470D"/>
<path d="M84.0381 81.6395H86.6703V79.0365H84.0381V81.6395Z" fill="#79470D"/>
<path d="M86.6703 79.0365H89.4309V76.1796H86.6703V79.0365Z" fill="#79470D"/>
<path d="M89.4309 76.1796H92.0631V73.4814V70.7832H89.4309V73.5132V76.1796Z" fill="#79470D"/>
<path d="M92.0631 70.7832H94.8879V67.9898V65.1964H92.0631V67.8628V70.7832Z" fill="#79470D"/>
<path d="M32.8705 89.5754V92.3688H38.2633H41.3449V89.5754H38.1349H32.8705Z" fill="#79470D"/>
<path d="M30.2383 86.8454V89.5754H32.8705V86.8454H30.2383Z" fill="#79470D"/>
<path d="M27.4777 84.3059V86.8454H30.2383V84.3059H27.4777Z" fill="#79470D"/>
<path d="M24.5887 81.576V84.3059H27.4777V81.576H24.5887Z" fill="#79470D"/>
<path d="M22.0207 78.9731V81.576H24.5887V78.9731H22.0207Z" fill="#79470D"/>
<path d="M19.3243 76.1161V78.9731H22.0207V76.1161H19.3243Z" fill="#79470D"/>
<path d="M16.4995 76.1161H19.3243V73.5132V70.7832H16.4995V73.5132V76.1161Z" fill="#79470D"/>
<path d="M13.7388 65.4503V70.7832H16.4995V67.8628V65.4503H13.7388Z" fill="#79470D"/>
<path d="M13.6104 38.278H10.914V65.4503H13.7388V57.451H13.6104V43.8648V38.278Z" fill="#79470D"/>
<path d="M94.8879 65.1964H97.5201V61.0063V40.8174V38.0875H94.8879V43.8013V57.1336V65.1964Z" fill="#79470D"/>
<path d="M94.8879 32.6276H92.0631V35.4845V38.0875H94.8879V35.3576V32.6276Z" fill="#79470D"/>
<path d="M92.0631 27.2312H89.3667V30.0882V32.6276H92.0631V29.9294V27.2312Z" fill="#79470D"/>
<path d="M89.3667 27.2312V24.4378H86.6061V27.2312H89.3667Z" fill="#79470D"/>
<path d="M86.6061 24.4378V21.8349H83.9739V24.4378H86.6061Z" fill="#79470D"/>
<path d="M83.9739 21.8349V19.1049H81.1491V21.8349H83.9739Z" fill="#79470D"/>
<path d="M81.1491 19.1049V16.375H75.7562V19.1049H78.3885H81.1491Z" fill="#79470D"/>
<path d="M75.7562 16.375V13.5816H70.235V13.6451V16.375H75.7562Z" fill="#79470D"/>
<path d="M70.1708 13.5816V10.9786H38.1349V13.6451H70.235V13.5816H70.1708Z" fill="#79470D"/>
<path d="M38.1349 13.6451H33.0631V16.4385H38.1349V16.375V13.6451Z" fill="#79470D"/>
<path d="M33.0631 16.4385H27.4135V19.1049H30.1099H33.0631V16.4385Z" fill="#79470D"/>
<path d="M27.4135 19.1049H24.6529V21.8984H27.4135V19.1049Z" fill="#79470D"/>
<path d="M24.6529 21.8984H21.8923V24.6918H24.6529V21.8984Z" fill="#79470D"/>
<path d="M21.8923 24.6918H19.1959V27.2312H21.8923V24.6918Z" fill="#79470D"/>
<path d="M19.1959 27.2312H16.4353V32.6276H19.1959V30.0247V27.2312Z" fill="#79470D"/>
<path d="M16.4353 32.6276H13.6104V38.278H16.4353V35.4211V32.6276Z" fill="#79470D"/>
<path d="M92.0631 65.1964H94.8879V57.1336H92.0631V65.1964Z" fill="#D18E11"/>
<path d="M89.4309 70.7832H92.0631V67.8628H89.4309V70.7832Z" fill="#D18E11"/>
<path d="M86.6703 76.1796H89.4309V73.5132H86.6703V76.1796Z" fill="#D18E11"/>
<path d="M75.692 84.179V86.7819H78.4205V84.179H75.692Z" fill="#D18E11"/>
<path d="M70.235 86.7819V89.5754H75.692V86.7819H70.235Z" fill="#D18E11"/>
<path d="M38.1349 86.8454H32.8705V89.5754H38.1349V86.8454Z" fill="#D18E11"/>
<path d="M32.8705 86.8454V84.3059H30.2383V86.8454H32.8705Z" fill="#D18E11"/>
<path d="M19.3243 73.5132V76.1161H22.0207V73.5132H19.3243Z" fill="#D18E11"/>
<path d="M19.3243 67.8628H16.4995V70.7832H19.3243V67.8628Z" fill="#D18E11"/>
<path d="M16.4995 57.451H13.7388V65.4503H16.4995V57.451Z" fill="#D18E11"/>
<path d="M13.6104 43.8648H16.4353V38.278H13.6104V43.8648Z" fill="#D18E11"/>
<path d="M16.4353 35.4211H19.1959V32.6276H16.4353V35.4211Z" fill="#D18E11"/>
<path d="M21.8923 30.0247V27.2312H19.1959V30.0247H21.8923Z" fill="#D18E11"/>
<path d="M24.6529 27.2312V24.6918H21.8923V27.2312H24.6529Z" fill="#D18E11"/>
<path d="M27.4135 24.6918V21.8984H24.6529V24.6918H27.4135Z" fill="#D18E11"/>
<path d="M30.1099 21.8984V19.1049H27.4135V21.8984H30.1099Z" fill="#D18E11"/>
<path d="M33.0631 19.1049H38.1349V16.4385H33.0631V19.1049Z" fill="#D18E11"/>
<path d="M38.1349 16.375H70.235V13.6451H38.1349V16.375Z" fill="#D18E11"/>
<path d="M70.235 16.375V19.1049H75.7562V16.375H70.235Z" fill="#D18E11"/>
<path d="M78.3885 21.8349H81.1491V19.1049H78.3885V21.8349Z" fill="#D18E11"/>
<path d="M81.1491 24.4378H83.9739V21.8349H81.1491V24.4378Z" fill="#D18E11"/>
<path d="M86.6061 27.2312V24.4378H83.9739V27.2312H86.6061Z" fill="#D18E11"/>
<path d="M89.3667 30.0882V27.2312H86.6061V30.0882H89.3667Z" fill="#D18E11"/>
<path d="M92.0631 32.6276H89.3667V35.4845H92.0631V32.6276Z" fill="#D18E11"/>
<path d="M94.8879 43.8013V38.0875H92.0631V43.8013H94.8879Z" fill="#D18E11"/>
<path d="M41.3449 94.9717V92.3688H38.2633V94.9717H41.3449Z" fill="#F8D835"/>
<path d="M86.6703 79.0365V81.6395H89.4309V79.0365H86.6703Z" fill="#F8D835"/>
<path d="M84.0381 81.6395V84.179H86.6703V81.6395H84.0381Z" fill="#F8D835"/>
<path d="M81.1491 84.179V86.7819H84.0381V84.179H81.1491Z" fill="#F8D835"/>
<path d="M78.4527 86.7819V89.5754H81.1491V86.7819H78.4527Z" fill="#F8D835"/>
<path d="M75.692 89.5754V92.3053H78.4527V89.5754H75.692Z" fill="#F8D835"/>
<path d="M67.2176 92.3688V94.9717H72.7388V92.3053H67.2176V92.3688Z" fill="#F8D835"/>
<path d="M100.345 40.8174H97.5201V61.0063H100.345V40.8174Z" fill="#F8D835"/>
<path d="M97.5201 65.1964H94.8879V67.9898H97.5201V65.1964Z" fill="#F8D835"/>
<path d="M94.8879 70.7832H92.0631V73.4814H94.8879V70.7832Z" fill="#F8D835"/>
<path d="M89.4309 76.1796V79.0365H92.0631V76.1796H89.4309Z" fill="#F8D835"/>
<path d="M92.0631 76.1796H94.8879V73.4814H92.0631V76.1796Z" fill="#FBE575"/>
<path d="M94.8879 70.7832H97.5201V67.9898H94.8879V70.7832Z" fill="#FBE575"/>
<path d="M97.5201 65.1964H100.345V61.0063H97.5201V65.1964Z" fill="#FBE575"/>
<path d="M92.0631 32.6276H94.8879V29.9294H92.0631V32.6276Z" fill="#F8D835"/>
<path d="M94.8879 38.0875H97.5201V35.3576H94.8879V38.0875Z" fill="#F8D835"/>
<path d="M16.4995 70.7832H13.7388V73.5132H16.4995V70.7832Z" fill="#D18E11"/>
<path d="M22.0207 78.9731H19.3243V81.576H22.0207V78.9731Z" fill="#D18E11"/>
<path d="M24.5887 81.576H22.0207V84.3059H24.5887V81.576Z" fill="#D18E11"/>
<path d="M27.4777 84.3059H24.5887V86.8454H27.4777V84.3059Z" fill="#D18E11"/>
<path d="M30.2383 86.8454H27.4777V89.5754H30.2383V86.8454Z" fill="#D18E11"/>
<path d="M92.0631 89.5754H89.4309V92.3688H92.0631V92.3053V89.5754Z" fill="#7D4A13"/>
<path d="M89.4309 92.3688H86.6703V94.9717H89.4309V92.3688Z" fill="#7D4A13"/>
<path d="M86.6703 97.6382V94.9717H84.0381V97.6382H86.6703Z" fill="#7D4A13"/>
<path d="M84.0381 100.495V97.6382H81.2293V100.495H84.0381Z" fill="#7D4A13"/>
<path d="M81.2293 97.6382H78.4205V100.495H81.2293V97.6382Z" fill="#8B5314"/>
<path d="M78.4205 97.6382H75.692C75.7134 98.5693 75.7434 100.444 75.692 100.495H78.4205V97.6382Z" fill="#89530F"/>
<path d="M72.7388 97.6382V100.495H75.692C75.7434 100.444 75.7134 98.5693 75.692 97.6382H72.7388Z" fill="#CA880D"/>
<path d="M78.4205 94.9717V97.6382H81.2293V94.9717H78.4205Z" fill="#CA880D"/>
<path d="M84.0381 92.3688V94.9717H86.6703V92.3688H84.0381Z" fill="#CA880D"/>
<path d="M86.6703 89.5754V92.3688H89.4309V89.5754H86.6703Z" fill="#CA880D"/>
<path d="M84.0381 97.6382V94.9717H81.2293V97.6382H84.0381Z" fill="#8B5314"/>
<path d="M2.88901 62.403H5.64962V46.4043H2.88901V62.403Z" fill="#F8D835"/>
<path d="M2.88901 46.4043H5.64962V38.278H2.88901V46.4043Z" fill="#FBE575"/>
<path d="M5.64962 38.278V35.4211H2.88901V38.278H5.64962Z" fill="#F8D835"/>
<path d="M5.64962 35.4211H8.28183V32.8181H5.64962V35.4211Z" fill="#FBE575"/>
<path d="M8.28183 30.0247H5.64962V32.8181H8.28183V30.0247Z" fill="#F8D835"/>
<path d="M11.0424 30.0247V24.6918H8.28183V30.0247H11.0424Z" fill="#F8D835"/>
<path d="M16.4995 21.8984V19.1049H13.7388V21.8984H16.4995Z" fill="#FBE575"/>
<path d="M13.7388 24.6918V21.8984H11.0424V24.6918H13.7388Z" fill="#FBE575"/>
<path d="M21.8923 16.375V13.6451H19.1959V16.375H21.8923Z" fill="#F8D835"/>
<path d="M19.1959 19.1049V16.375H16.4995V19.1049H19.1959Z" fill="#F8D835"/>
<path d="M24.6529 13.6451V10.9786H21.8923V13.6451H24.6529Z" fill="#FBE575"/>
<path d="M24.6529 8.37565V10.9786H27.3814V8.37565H24.6529Z" fill="#FBE575"/>
<path d="M30.1099 10.9786V8.37565H27.3814V10.9786H30.1099Z" fill="#F8D835"/>
<path d="M30.1099 5.58223V8.37565H35.4385V5.58223H30.1099Z" fill="#FBE575"/>
<path d="M38.1349 8.37565V5.58223H35.4385V8.37565H38.1349Z" fill="#F8D835"/>
<path d="M38.1349 2.85229V5.58223H43.3993V2.85229H38.1349Z" fill="#FBE575"/>
<path d="M43.3993 2.85229V5.58223H49.2416V2.85229H43.3993Z" fill="#F8D835"/>
<path d="M49.2416 2.85229V5.58223H62.4668V2.85229H49.2416Z" fill="#FBE575"/>
<path fill-rule="evenodd" clip-rule="evenodd" d="M78.3885 2.85229V5.58223H75.7562H70.235V2.85229H78.3885Z" fill="#472009"/>
<path d="M62.4668 5.58223H70.235V2.85229H62.4668V5.58223Z" fill="#F8D835"/>
<path d="M70.235 5.58223V8.24867H75.7562V5.58223H70.235Z" fill="#F8D835"/>
<path d="M75.7562 8.24867H78.3885V5.58223H75.7562V8.24867Z" fill="#D18E11"/>
<path d="M83.9739 10.9786V8.24867H81.1812V10.9786H83.9739Z" fill="#D18E11"/>
<path d="M83.9739 13.6451H86.6061V10.9786H83.9739V13.6451Z" fill="#D18E11"/>
<path d="M86.6061 16.375H89.4951V13.6451H86.6061V16.375Z" fill="#D18E11"/>
<path d="M89.4951 19.1049H92.0631V16.375H89.4951V19.1049Z" fill="#D18E11"/>
<path d="M92.0631 21.8349H94.8879V19.1049H92.0631V21.8349Z" fill="#D18E11"/>
<path d="M78.3885 8.24867V10.9786H81.1812V8.24867H78.3885Z" fill="#F8D835"/>
<path d="M94.8879 24.4378H97.5201V21.8349H94.8879V24.4378Z" fill="#7E3B12"/>
<path d="M97.5201 30.0882H100.345V24.4378H97.5201V30.0882Z" fill="#7E3B12"/>
<path d="M100.345 35.3576H103.041V30.0882H100.345V35.3576Z" fill="#7E3B12"/>
<path d="M105.738 35.3576H103.041V43.8013H105.738V35.3576Z" fill="#7E3B12"/>
<path d="M103.041 62.403H105.738V43.8013H103.041V62.403Z" fill="#D18E11"/>
<path d="M103.041 62.403V67.9898H105.738V62.403H103.041Z" fill="#7E3B12"/>
<path d="M103.041 67.9898V70.7832V73.4814H105.738V67.9898H103.041Z" fill="#79470D"/>
<path d="M100.335 76.0527V78.7826H100.409H103.041V76.0527H100.335Z" fill="#713612"/>
<path d="M100.335 70.7832C100.328 73.2874 100.335 76.0527 100.335 76.0527H103.041V73.4814V70.7832H100.335Z" fill="#7E3B12"/>
<path d="M103.041 67.9898H100.345C100.342 68.7596 100.338 69.7555 100.335 70.7832H103.041V67.9898Z" fill="#D18E11"/>
<path d="M97.5843 76.0527V78.7826H100.335V76.0527H97.5843Z" fill="#D18E11"/>
<path d="M100.335 78.7826H97.5843V81.4808V84.179H100.409V78.7826H100.335Z" fill="#7E3B12"/>
<path d="M97.5843 78.7826H94.8879V81.4808H97.5843V78.7826Z" fill="#CA880D"/>
<path d="M92.0631 84.179V86.7819H94.8879V84.179H92.0631Z" fill="#CA880D"/>
<path d="M89.4309 86.7819V89.5754H92.0631V86.7819H89.4309Z" fill="#CA880D"/>
<path d="M94.8879 84.179H97.5843V81.4808H94.8879V84.179Z" fill="#7D4A13"/>
<path d="M94.8879 89.5754V86.7819H92.0631V89.5754H94.8879Z" fill="#7E3B12"/>
<path d="M97.5843 86.7819V84.179H94.8879V86.7819H97.5843Z" fill="#7E3B12"/>
<path d="M2.88901 67.7994H5.64962V62.403H2.88901V67.7994Z" fill="#D18E11"/>
<path d="M2.88901 73.3227H5.64962V70.7832V67.7994H2.88901V73.3227Z" fill="#7E3B12"/>
<path d="M5.64962 78.9731H8.28183V76.1161V73.3227H5.64962V78.9731Z" fill="#7E3B12"/>
<path d="M10.914 84.3059V81.576V78.9731H8.28183V84.3059H10.914Z" fill="#7E3B12"/>
<path d="M10.914 86.8454H13.7388V84.3059H10.914V86.8454Z" fill="#7E3B12"/>
<path d="M13.7388 89.5754H16.4995V86.8454H13.7388V89.5754Z" fill="#7E3B12"/>
<path d="M19.3243 92.3688V89.5754H16.4995V92.3688H19.3243Z" fill="#7E3B12"/>
<path d="M19.3243 94.9717H22.0207V92.3688H19.3243V94.9717Z" fill="#7E3B12"/>
<path d="M27.4777 94.9717H24.5887H22.0207V97.6382H24.5887V100.495H27.4777V97.6382V94.9717Z" fill="#7E3B12"/>
<path d="M32.8705 97.6382H30.2383H27.4777V100.495H30.2383H32.8705V97.6382Z" fill="#7E3B12"/>
<path fill-rule="evenodd" clip-rule="evenodd" d="M94.8879 81.4808V84.179H92.0631V86.7819H89.4309V89.5754H86.6703V92.3688H84.0381V94.9717H81.2293H78.4205V97.6382H75.692H72.7388V100.495H70.2992H67.346H41.1523H38.2633H35.7595V97.6382H32.8705H30.2383V94.9717H27.4777H24.5887V92.3688H22.0207V89.5754H19.3243V86.8454H16.4995V84.3059H13.7388V81.576H10.914V78.9731V76.1161H8.28183V73.3227V70.7832H5.64962V67.7994V62.403V46.4043V38.278V35.4211H8.28183V32.8181V30.0247H11.0424V24.6918H13.7388V21.8984H16.4995V19.1049H19.1959V16.375H21.8923V13.6451H24.6529V10.9786H27.3814H30.1099V8.37565H35.4385H38.1349V5.58223H43.3993H49.2416H62.4668H70.235V8.24867H75.7562H78.3885V10.9786H81.1812H83.9739V13.6451H86.6061V16.375H89.4951V19.1049H92.0631V21.8349H94.8879V24.4378H97.5201V30.0882H100.345V35.3576H103.041V43.8013V62.403V67.9898H100.345C100.342 68.7596 100.338 69.7555 100.335 70.7832C100.328 73.2874 100.335 76.0527 100.335 76.0527H97.5843V78.7826H94.8879V81.4808ZM25.6159 57.451V68.2438V69.5135H26.9641V70.7832H28.3123V72.3069H30.8803V73.5132H33.7693V74.9734H36.4657V76.3701H39.2263V77.6398H42.1153V79.0365H44.9401V80.4333H47.6366V81.6395H50.4614V83.0997H53.1578V84.4964H61.6964V83.0997H64.5212V81.6395H67.2176V80.4333H69.8498V79.0365H72.8672V77.6398H75.7562V76.3701H78.4527V74.9734H81.1491V73.5132H82.6899V72.3069H84.0381V69.5135V58.7207H82.6899V57.324H81.1491V56.1813H78.4527V54.6576H75.7562V53.1339H73.0598V51.8642H70.1066V50.404H67.2818V49.1977H64.5212V47.801H61.6964V46.2138H58.9358V43.8648H60.1556V42.2141H61.4396V40.9444V39.4207H62.852V38.0875H64.2644V35.4211H65.6768V27.2312H64.2644V24.4378H62.852V22.9776H61.4396V21.4539H58.9358V19.9937H48.9206V21.4539H46.2241V22.9776H45.0043V24.6918H43.4635V27.2312H41.9227V35.4211H43.4635V38.0875H45.0043V39.4207H46.2241V40.9444V42.2141H49.1132V47.801H46.2241V49.1977H43.4635V50.404H39.3547V51.8642H36.3373V53.1339H33.6409V54.6576H29.7889V56.1813H27.2209V57.451H25.6159ZM64.5212 60.054H62.9162V61.3872H61.6964V62.7839H62.9162V61.3872H64.5212V60.054ZM51.7454 42.2141H53.0936V56.1813H51.7454V42.2141ZM67.2176 94.9717V97.6382H41.3449V94.9717H38.2633V92.3688H32.8705V89.5754H30.2383H27.4777V86.8454H24.5887V84.3059H22.0207V81.576H19.3243V78.9731V76.1161H16.4995V73.5132H13.7388V70.7832V65.4503H10.914V38.278H13.6104V32.6276H16.4353V27.2312H19.1959V24.6918H21.8923V21.8984H24.6529V19.1049H27.4135V16.4385H33.0631V13.6451H38.1349V10.9786H70.1708V13.5816H70.235H75.7562V16.375H81.1491V19.1049H83.9739V21.8349H86.6061V24.4378H89.3667V27.2312H92.0631V29.9294H94.8879V32.6276V35.3576H97.5201V38.0875V40.8174H100.345V61.0063V65.1964H97.5201V67.9898V70.7832H94.8879V73.4814V76.1796H92.0631V79.0365H89.4309V81.6395H86.6703V84.179H84.0381V86.7819H81.1491V89.5754H78.4527V92.3053H75.692H72.7388V94.9717H67.2176ZM22.0207 78.9731H24.5887V81.576H27.4777V84.3059H30.2383H32.8705V86.8454H38.1349V89.5754H41.3449H67.2176H70.235V86.7819H75.692V84.179H78.4205H81.1491V81.6395H84.0381V79.0365H86.6703V76.1796V73.5132H89.4309V70.7832V67.8628H92.0631V65.1964V57.1336H94.8879V43.8013H92.0631V38.0875V35.4845H89.3667V32.6276V30.0882H86.6061V27.2312H83.9739V24.4378H81.1491V21.8349H78.3885V19.1049H75.7562H70.235V16.375H38.1349V16.4385V19.1049H33.0631H30.1099V21.8984H27.4135V24.6918H24.6529V27.2312H21.8923V30.0247H19.1959V32.6276V35.4211H16.4353V38.278V43.8648H13.6104V57.451H13.7388H16.4995V65.4503V67.8628H19.3243V70.7832V73.5132H22.0207V76.1161V78.9731Z" fill="#EBB222"/>
<path d="M8.28183 70.7832H5.64962V73.3227H8.28183V70.7832Z" fill="#D18E11"/>
<path d="M10.914 76.1161H8.28183V78.9731H10.914V76.1161Z" fill="#D18E11"/>
<path d="M13.7388 81.576H10.914V84.3059H13.7388V81.576Z" fill="#D18E11"/>
<path d="M16.4995 84.3059H13.7388V86.8454H16.4995V84.3059Z" fill="#D18E11"/>
<path d="M19.3243 86.8454H16.4995V89.5754H19.3243V86.8454Z" fill="#D18E11"/>
<path d="M22.0207 89.5754H19.3243V92.3688H22.0207V89.5754Z" fill="#D18E11"/>
<path d="M24.5887 92.3688H22.0207V94.9717H24.5887V92.3688Z" fill="#D18E11"/>
<path d="M30.2383 97.6382V94.9717H27.4777V97.6382H30.2383Z" fill="#D18E11"/>
<path d="M35.7595 100.495V97.6382H32.8705V100.495H35.7595Z" fill="#D18E11"/>
<path fill-rule="evenodd" clip-rule="evenodd" d="M55.9184 22.9776H57.3629V24.6918H55.9184V22.9776Z" fill="#C53619"/>
<path d="M58.8074 24.6918V22.9776H57.3629V24.6918H58.8074Z" fill="#881B0F"/>
<path fill-rule="evenodd" clip-rule="evenodd" d="M33.4483 56.1813V57.451V58.7842H34.8607H36.4978V60.2444H38.1349H39.451V61.3872H40.7671H42.1153V62.7839H43.4635H44.8438V64.1171H46.2241H47.5402V65.5773H48.8564H50.3009V66.8471H51.7454H53.1738V68.2438H54.6023V69.5135H57.395V68.2438H60.1556V66.8471H62.9804V65.5773H65.8052V64.1171H68.5658V62.7839H71.4548V61.3872H74.2796V60.054H76.976V58.7842H78.4527V57.451H75.7562V56.1813H73.0598V54.6576H70.1066V53.2609H67.2818V51.8642H64.5212V50.404H61.6964V49.0072H58.8716V53.1339H60.2198V54.6576H62.9162V56.1813H64.5212V60.054V61.3872H62.9162V62.7839H61.6964H58.8716V64.1171H49.1132V62.7839H46.3525V61.3872H45.0043V60.054H43.6561V56.1813H45.0043V54.6576H47.5724V53.1339H49.1132V50.404H46.2241V51.8642H43.4635V53.1339H39.4189V54.6576H36.4657V56.1813H33.4483Z" fill="#F3C830"/>
<path d="M51.7454 66.8471V68.2438H53.1738V66.8471H51.7454Z" fill="#F5D254"/>
<path d="M48.8564 65.5773V66.8471H50.3009V65.5773H48.8564Z" fill="#F5D254"/>
<path d="M46.2241 64.1171V65.5773H47.5402V64.1171H46.2241Z" fill="#F5D254"/>
<path d="M43.4635 62.7839V64.1171H44.8438V62.7839H43.4635Z" fill="#F5D254"/>
<path d="M40.7671 61.3872V62.7839H42.1153V61.3872H40.7671Z" fill="#F5D254"/>
<path d="M38.1349 60.2444V61.3872H39.451V60.2444H38.1349Z" fill="#F5D254"/>
<path d="M34.8607 58.7842V60.2444H36.4978V58.7842H34.8607Z" fill="#F5D254"/>
<path d="M33.4483 57.451H32.2927V58.7842H33.4483V57.451Z" fill="#F5D254"/>
<path fill-rule="evenodd" clip-rule="evenodd" d="M60.1556 24.6918V25.9615V31.2309H58.8074V34.0243H55.9184V36.4368H47.5724H46.2241V34.0243H53.222V32.6276H55.9184V31.2309H57.3308V28.628H58.8074V24.6918H60.1556Z" fill="#B4291A"/>
<path d="M50.2688 39.4207H57.3308V38.0875H60.1556V36.4368H61.568V34.0243H62.852V28.628H61.568V25.9615H60.1556V31.2309H58.8074V34.0243H55.9184V36.4368H47.5724V38.0875H50.2688V39.4207Z" fill="#8F2014"/>
<g filter="url(#filter0_dii_10_3708)">
<path d="M128.118 50.9352V46.337H123.357V20.4792H128.118V15.8269H144.563V20.4792H149.377V32.4344H142.453V23.2381H130.227V43.5782H142.453V41.6848H137.693V37.0325H132.878V29.7296H139.802V34.2736H149.377V46.337H144.563V50.9352H128.118ZM158.657 50.9352V25.0773H163.417V20.4792H168.178V15.8269H175.102V20.4792H179.863V25.0773H184.677V50.9352H177.753V41.6848H165.527V50.9352H158.657ZM165.527 34.2736H177.753V27.8362H172.992V23.2381H170.288V27.8362H165.527V34.2736ZM193.957 50.9352V20.4792H198.717V15.8269H205.587V20.4792H210.402V29.7296H213.053V20.4792H217.867V15.8269H224.791V20.4792H229.498V50.9352H222.682V23.2381H219.977V32.4344H215.162V46.337H208.292V32.4344H203.478V23.2381H200.827V50.9352H193.957ZM243.579 50.9352V46.337H238.818V20.4792H243.579V15.8269H260.024V20.4792H264.838V27.8362H257.914V23.2381H245.689V29.7296H255.263V37.0325H245.689V43.5782H257.914V38.9259H264.838V46.337H260.024V50.9352H243.579ZM132.878 92.9352V65.2381H130.227V69.8362H123.357V62.4792H128.118V57.8269H144.563V62.4792H149.377V69.8362H142.453V65.2381H139.802V92.9352H132.878ZM161.78 92.9352V88.337H157.019V62.4792H161.78V57.8269H178.225V62.4792H183.039V88.337H178.225V92.9352H161.78ZM163.89 85.5782H176.115V65.2381H163.89V85.5782ZM192.319 92.9352V62.4792H197.079V57.8269H203.95V65.2381H199.189V71.7296H201.84V67.0773H206.654V62.4792H211.415V57.8269H218.339V65.2381H213.525V69.8362H208.764V74.4344H203.95V76.2736H208.764V80.9259H213.525V85.5782H218.339V92.9352H211.415V88.337H206.654V83.6848H201.84V79.0325H199.189V92.9352H192.319ZM230.742 92.9352V88.337H225.981V62.4792H230.742V57.8269H247.187V62.4792H252.001V69.8362H245.077V65.2381H232.851V71.7296H242.426V79.0325H232.851V85.5782H245.077V80.9259H252.001V88.337H247.187V92.9352H230.742ZM261.281 92.9352V57.8269H268.151V62.4792H272.911V67.0773H277.726V80.9259H280.377V57.8269H287.301V92.9352H280.377V88.337H275.616V83.6848H270.802V69.8362H268.151V92.9352H261.281Z" fill="#EBB222"/>
</g>
<defs>
<filter id="filter0_dii_10_3708" x="123.357" y="15.8269" width="165.972" height="79.3059" filterUnits="userSpaceOnUse" color-interpolation-filters="sRGB">
<feFlood flood-opacity="0" result="BackgroundImageFix"/>
<feColorMatrix in="SourceAlpha" type="matrix" values="0 0 0 0 0 0 0 0 0 0 0 0 0 0 0 0 0 0 127 0" result="hardAlpha"/>
<feOffset dx="2.0286" dy="2.19765"/>
<feComposite in2="hardAlpha" operator="out"/>
<feColorMatrix type="matrix" values="0 0 0 0 0.270588 0 0 0 0 0.101961 0 0 0 0 0 0 0 0 1 0"/>
<feBlend mode="normal" in2="BackgroundImageFix" result="effect1_dropShadow_10_3708"/>
<feBlend mode="normal" in="SourceGraphic" in2="effect1_dropShadow_10_3708" result="shape"/>
<feColorMatrix in="SourceAlpha" type="matrix" values="0 0 0 0 0 0 0 0 0 0 0 0 0 0 0 0 0 0 127 0" result="hardAlpha"/>
<feOffset dx="1.6905" dy="1.0143"/>
<feComposite in2="hardAlpha" operator="arithmetic" k2="-1" k3="1"/>
<feColorMatrix type="matrix" values="0 0 0 0 1 0 0 0 0 0.825488 0 0 0 0 0.384615 0 0 0 1 0"/>
<feBlend mode="normal" in2="shape" result="effect2_innerShadow_10_3708"/>
<feColorMatrix in="SourceAlpha" type="matrix" values="0 0 0 0 0 0 0 0 0 0 0 0 0 0 0 0 0 0 127 0" result="hardAlpha"/>
<feOffset dx="-1.6905" dy="-1.3524"/>
<feComposite in2="hardAlpha" operator="arithmetic" k2="-1" k3="1"/>
<feColorMatrix type="matrix" values="0 0 0 0 0.528846 0 0 0 0 0.378875 0 0 0 0 0 0 0 0 1 0"/>
<feBlend mode="normal" in2="effect2_innerShadow_10_3708" result="effect3_innerShadow_10_3708"/>
</filter>
</defs>
</svg>
