<svg width="113" height="30" viewBox="0 0 113 30" fill="none" xmlns="http://www.w3.org/2000/svg">
<path d="M13.4408 6.30515V6.70687H14.6595V7.47536H14.2179V7.85961H13.8294V8.24386H13.0876V7.47536H13.4408V6.70687H13.0876V7.12605H12.7167V7.85961H12.3458V8.95995H12.7167V9.3442H14.6418V8.95995H15.3836V8.57571H15.7722V7.85961H16.1784V6.77673H15.781H15.3836V6.30515H13.4408Z" fill="#DD4919"/>
<path d="M13.0876 7.47536V8.24386H13.8294V7.85961H14.2179V7.47536H14.6595V6.70687H13.4408V7.47536H13.0876Z" fill="#E5A948"/>
<path fill-rule="evenodd" clip-rule="evenodd" d="M7.04716 18.7583H7.41806V19.1076H7.78896V19.4569H8.49544V19.8761H9.29024V20.2079H10.032V20.6096H10.7915V20.9939H11.5863V21.3432H12.3634V21.7275H13.1052V22.1117H13.8824V22.4436H14.6242V22.8453H15.7899V22.4436H16.5493V22.1117H17.3265V21.7275H18.1036V21.3432H18.8631V20.9939H19.6579V20.6096H20.435V20.2079H21.1768V19.8761H21.9539V19.4569H22.7487V19.1076H23.1196V16.1384H22.7487V15.7542H22.3248V15.4398H21.583V15.0206H20.8412V14.6014H20.0994V14.2521H19.287V13.8504H18.5098V13.5185H17.7504V13.1343H16.9732V12.6976H16.2138V12.0514V11.248H16.9026V10.8288H17.2911V10.462H17.6797V9.72845H18.0683V7.47536H17.6797V6.70687H17.2911V6.30515H16.9026V5.88597H16.2138V5.48426H13.4585V5.88597H12.7167V6.30515H12.3811V6.77673H11.9572V7.47536H11.5333V9.72845H11.9572V10.462H12.3811V10.8288H12.7167V11.248H13.5115V11.5973V13.1343H12.7167V13.5185H11.9572V13.8504H10.8268V14.2521H9.99672V14.6014H9.25491V15.0206H8.19519V15.4398H7.48871V15.7891H7.04716V18.7583ZM7.78896 18.374V16.1384H8.10688V15.7891H8.88401H9.20193V15.4398H10.032V15.0206H10.8445V14.6014H11.9572V14.2521H12.7167V13.8504H13.5115V14.6014H13.0876V15.0206H13.4761V15.8764H13.847V16.2083H14.6065H15.7722V15.8065H16.1961V15.0206H16.567V14.6014H16.1961V13.4661H16.9732V13.8504H17.7504V14.2521H18.5098V14.6363H19.287V15.0206H20.0994V15.4398H20.8412V15.7891H21.583V16.1559H21.9539V16.5052H22.3248V18.7757H21.6537V19.1076H20.8235V19.5093H20.0464V19.8761H19.2693V20.2079H18.4922V20.6096H17.7504V20.9939H16.9732V21.3432H16.1961V21.7275H15.0216H14.6242H14.2356V21.3432H13.847H13.4408V20.9939H13.0876H12.699V20.6096H12.3634H11.9749V20.2079H11.5333H11.1624V19.8761H10.7915H10.4913V19.4569H10.032H9.66114V19.1076H9.25491H8.88401V18.7583H8.49544H8.1422V18.374H7.78896ZM14.2356 15.4398V11.5973H14.6065H15.0216H15.4366V15.4398H15.0216H14.6065H14.2356ZM15.7722 10.8288H13.8294V10.462H13.0876V10.0079H12.7167V9.3442H12.3458V8.95995V7.85961H12.7167V7.12605H13.0876V6.70687H13.4408V6.30515H15.3836H15.781H16.1784V6.77673H16.5493V7.12605H16.9379V7.85961H17.2911V9.3442H16.9379V10.0079H16.5493V10.462H15.7722V10.8288Z" fill="#572A0D"/>
<path d="M15.4366 15.4398V11.5973H15.0216V15.4398H15.4366Z" fill="#804A11"/>
<path d="M14.6065 11.5973V15.4398H15.0216V11.5973H14.6065Z" fill="#D08D16"/>
<path d="M12.3458 9.3442H12.7167V8.95995H12.3458V9.3442Z" fill="#B82715"/>
<path d="M13.5115 11.248H12.7167V11.5973H13.5115V11.248Z" fill="#C68607"/>
<path d="M16.9026 11.248H16.2138V12.0514H16.5493V11.5973H16.9026V11.248Z" fill="#C68607"/>
<path d="M13.0876 15.0206H12.3811V15.4398H12.0102V16.5052H12.3811V16.872H12.752V17.2562H13.5115V17.623H16.1961V17.2562H16.9732V16.872H17.3088V16.5052H17.7504V15.4398H17.3088V15.0206H16.567V15.4398H16.9732V16.1559H16.567V16.5576H16.1961V16.872H15.0216H13.4761V16.5576H12.7167V16.1559V15.8764V15.4398H13.0876V15.0206Z" fill="#572A0D"/>
<path d="M15.7722 15.8065V16.2083H14.6065V16.5576H15.0216V16.872H16.1961V16.5576H16.567V16.1559H16.9732V15.4398H16.567V15.0206H16.1961V15.8065H15.7722Z" fill="#804912"/>
<path d="M13.4761 15.0206H13.0876V15.4398V15.8764H12.7167V16.1559H13.4761V16.5576H14.6065V16.2083H13.847V15.8764H13.4761V15.0206Z" fill="#C37F15"/>
<path d="M13.0876 15.4398H12.7167V15.8764H13.0876V15.4398Z" fill="#CC8A13"/>
<path d="M12.7167 16.5576H13.4761V16.1559H12.7167V16.5576Z" fill="#F6CA33"/>
<path d="M13.4761 16.5576V16.872H15.0216V16.5576H14.6065H13.4761Z" fill="#F6CA33"/>
<path d="M22.3248 16.5052H21.9539H21.1768V16.872H20.435V17.2562H19.6579V17.623H18.8631V18.0247H18.1036V18.374H17.3265V18.7583H16.5493V19.1076H15.7899V19.5093H15.0216V21.7275H16.1961V21.3432H16.9732V20.9939H17.7504V20.6096H18.4922V20.2079H19.2693V19.8761H20.0464V19.5093H20.8235V19.1076H21.6537V18.7757H22.3248V16.5052Z" fill="#7E480F"/>
<path d="M7.78896 16.1384V18.374H8.1422H8.49544V18.7583H8.88401H9.25491V19.1076H9.66114H10.032V19.4569H10.4913H10.7915V19.8761H11.1624H11.5333V20.2079H11.9749H12.3634V20.6096H12.699H13.0876V20.9939H13.4408H13.847V21.3432H14.2356H14.6242V21.7275H15.0216V19.5093H15.7899V19.1076H15.0216H13.8824V18.7583H13.0876V18.374H12.3634V18.0247H11.5333V17.623H10.7915V17.2562H9.99672V16.872H9.20193V16.5052H8.49544V16.1384H8.10688H7.78896Z" fill="#C5810E"/>
<path d="M21.9539 16.1559H21.583H21.1768V16.5052H21.9539V16.1559Z" fill="#BF7E04"/>
<path d="M20.435 16.5052V16.872H21.1768V16.5052H20.435Z" fill="#BF7E04"/>
<path d="M19.6579 16.872V17.2562H20.435V16.872H19.6579Z" fill="#BF7E04"/>
<path d="M18.8631 17.2562V17.623H19.6579V17.2562H18.8631Z" fill="#BF7E04"/>
<path d="M18.1036 17.623V18.0247H18.8631V17.623H18.1036Z" fill="#BF7E04"/>
<path d="M17.3265 18.0247V18.374H18.1036V18.0247H17.3265Z" fill="#BF7E04"/>
<path d="M16.5493 18.374V18.7583H17.3265V18.374H16.5493Z" fill="#BF7E04"/>
<path d="M15.7899 18.7583V19.1076H16.5493V18.7583H15.7899Z" fill="#BF7E04"/>
<path d="M8.10688 15.7891V16.1384H8.49544V16.5052H9.20193V16.872H9.99672V17.2562H10.7915V17.623H11.5333V18.0247H12.3634V18.374H13.0876V18.7583H13.8824V19.1076H15.0216V18.7583H14.6286H14.2356V18.374H13.8382H13.4408V18.0247H13.0787H12.7167V17.623H12.3369H11.9572V17.2562H11.5863H11.2154V16.872H10.8533H10.4913V16.5576H10.0409H9.59049V16.1559H9.20193H8.88401V15.7891H8.10688Z" fill="#F7EE7C"/>
<path d="M8.1422 18.374V18.7583H8.49544V18.374H8.1422Z" fill="#7B450B"/>
<path d="M8.88401 18.7583V19.1076H9.25491V18.7583H8.88401Z" fill="#7B450B"/>
<path d="M9.66114 19.1076V19.4569H10.032V19.1076H9.66114Z" fill="#7B450B"/>
<path d="M10.4913 19.4569V19.8761H10.7915V19.4569H10.4913Z" fill="#7B450B"/>
<path d="M11.1624 19.8761V20.2079H11.5333V19.8761H11.1624Z" fill="#7B450B"/>
<path d="M11.9749 20.2079V20.6096H12.3634V20.2079H11.9749Z" fill="#7B450B"/>
<path d="M12.699 20.6096V20.9939H13.0876V20.6096H12.699Z" fill="#7B450B"/>
<path d="M13.4408 20.9939V21.3432H13.847V20.9939H13.4408Z" fill="#7B450B"/>
<path d="M14.2356 21.3432V21.7275H14.6242V21.3432H14.2356Z" fill="#7B450B"/>
<path d="M15.7899 22.8453H14.6242V23.2295H16.9732V22.8453H17.7504V22.4436H18.4922V22.1117H19.2163V21.7275H20.0464V21.3432H20.8412V20.9939H21.583V20.6096H22.3248V20.2079H22.7487V19.8761H23.1196V19.1076H22.7487V19.4569H21.9539V19.8761H21.1768V20.2079H20.435V20.6096H19.6579V20.9939H18.8631V21.3432H18.1036V21.7275H17.3265V22.1117H16.5493V22.4436H15.7899V22.8453Z" fill="#C78410"/>
<path d="M7.41806 18.7583H7.04716V19.1076H7.41806V18.7583Z" fill="#C78410"/>
<path d="M7.78896 19.1076H7.41806V19.4569H7.78896V19.1076Z" fill="#C78410"/>
<path d="M8.49544 19.4569H7.78896V19.8761H8.49544V19.4569Z" fill="#C78410"/>
<path d="M9.29024 19.8761H8.49544V20.2079H9.29024V19.8761Z" fill="#C78410"/>
<path d="M10.032 20.2079H9.29024V20.6096H10.032V20.2079Z" fill="#C78410"/>
<path d="M10.7915 20.6096H10.032V20.9939H10.7915V20.6096Z" fill="#C78410"/>
<path d="M11.5863 20.9939H10.7915V21.3432H11.5863V20.9939Z" fill="#C78410"/>
<path d="M12.3634 21.3432H11.5863V21.7275H12.3634V21.3432Z" fill="#C78410"/>
<path d="M13.1052 21.7275H12.3634V22.1117H13.1052V21.7275Z" fill="#C78410"/>
<path d="M13.8824 22.1117H13.1052V22.4436H13.8824V22.1117Z" fill="#C78410"/>
<path d="M14.6242 22.4436H13.8824V22.8453H14.6242V22.4436Z" fill="#C78410"/>
<path d="M18.4922 25.3778V24.6268H11.3744V25.3953H18.4922V25.3778Z" fill="#D18E11"/>
<path d="M11.3744 26.1114H18.4922V25.3953H11.3744V26.1114Z" fill="#79470D"/>
<path d="M18.4922 26.1114H11.3744V26.8449H18.4922V26.1114Z" fill="#F8D835"/>
<path d="M18.5275 28.3645V27.6309H11.3214V28.3645H18.5275Z" fill="#D18E11"/>
<path d="M19.3399 29.1504V28.3645H18.5275H11.3214H10.5266V29.1504H19.3399Z" fill="#60340B"/>
<path d="M10.5266 29.1504V29.8665H19.3399V29.1504H10.5266Z" fill="#472009"/>
<path d="M8.31882 28.3645V29.1504H10.5266V28.3645H8.31882Z" fill="#472009"/>
<path d="M6.76456 27.6309V28.3645H8.31882V27.6309H7.55935H6.76456Z" fill="#472009"/>
<path d="M6.05808 26.8449V27.6309H6.76456V26.8449H6.05808Z" fill="#472009"/>
<path d="M5.31628 26.1114V26.8449H6.05808V26.1114H5.31628Z" fill="#472009"/>
<path d="M4.53914 25.3953V26.1114H5.31628V25.3953H4.53914Z" fill="#472009"/>
<path d="M3.77968 24.6268V25.3953H4.53914V24.6268H3.77968Z" fill="#472009"/>
<path d="M3.00255 23.8757V24.6268H3.77968V23.8757H3.00255Z" fill="#472009"/>
<path d="M2.2784 23.1771V23.8757H3.00255V23.1771H2.2784Z" fill="#472009"/>
<path d="M1.55426 21.71V23.1771H2.2784V21.71H1.55426Z" fill="#472009"/>
<path d="M0.794792 20.1555V21.71H1.55426V20.1555H0.794792Z" fill="#472009"/>
<path d="M0.794792 9.72845H0V20.1555H0.794792V18.636V17.1514V12.75V10.5144V9.72845Z" fill="#472009"/>
<path d="M1.55426 8.24386H0.794792V9.72845H1.55426V9.01235V8.24386Z" fill="#472009"/>
<path d="M2.2784 6.77673H1.55426V8.24386H2.2784V6.77673Z" fill="#472009"/>
<path d="M3.03787 6.00823H2.2784V6.77673H3.03787V6.00823Z" fill="#472009"/>
<path d="M3.77968 5.23974H3.03787V6.00823H3.77968V5.23974Z" fill="#472009"/>
<path d="M4.53914 4.48871H3.77968V5.23974H4.53914V4.48871Z" fill="#472009"/>
<path d="M5.28095 3.73768H4.53914V4.48871H5.28095V3.73768Z" fill="#472009"/>
<path d="M6.02276 3.00412H5.28095V3.73768H6.02276V3.00412Z" fill="#472009"/>
<path d="M6.78222 2.28802H6.02276V3.00412H6.78222V2.28802Z" fill="#472009"/>
<path d="M8.2835 1.51952H6.78222V2.28802H7.53286H8.2835V1.51952Z" fill="#472009"/>
<path d="M10.4913 0.768495H8.2835V1.51952H9.74945H10.4913V0.768495Z" fill="#472009"/>
<path d="M19.3223 0.768495V0H10.4913V0.768495H11.9395H13.5468H17.1852H19.3223Z" fill="#472009"/>
<path d="M23.102 2.25309V1.51952H21.5654V2.25309H22.3337H23.102Z" fill="#472009"/>
<path d="M23.8261 3.00412V2.25309H23.102V3.00412H23.8261Z" fill="#472009"/>
<path d="M24.6209 3.73768V3.00412H23.8261V3.73768H24.6209Z" fill="#472009"/>
<path d="M25.3274 4.48871V3.73768H24.6209V4.48871H25.3274Z" fill="#472009"/>
<path d="M26.1045 5.23974V4.48871H25.3274V5.23974H26.1045Z" fill="#472009"/>
<path d="M26.8286 5.99077V5.23974H26.1045V5.99077H26.8286Z" fill="#472009"/>
<path d="M27.6058 6.70687V5.99077H26.8286V6.70687H27.6058Z" fill="#472009"/>
<path d="M28.3476 8.26132V6.70687H27.6058V8.26132H28.3476Z" fill="#472009"/>
<path d="M29.0894 9.71098V8.26132H28.3476V9.71098H29.0894Z" fill="#472009"/>
<path d="M29.0894 20.1992H29.8665V9.71098H29.0894V12.0339V17.1514V18.6884V20.1992Z" fill="#472009"/>
<path d="M29.0894 20.1992H28.3476V20.9066V21.6576H29.0894V20.1992Z" fill="#472009"/>
<path d="M27.6234 23.1422H28.3476V21.6576H27.6234V23.1422Z" fill="#472009"/>
<path d="M26.8463 23.8583H27.6234V23.1422H26.8463V23.8583Z" fill="#472009"/>
<path d="M26.1045 24.6268H26.8463V23.8583H26.1045V24.6268Z" fill="#472009"/>
<path d="M25.3274 25.3778H26.1045V24.6268H25.3274V25.3778Z" fill="#472009"/>
<path d="M24.6032 26.1114H25.3274V25.3953H24.6032V26.1114Z" fill="#472009"/>
<path d="M23.8438 26.8449H24.6032V26.1114H23.8438V26.8449Z" fill="#472009"/>
<path d="M23.1196 27.6309H23.8438V26.8449H23.1196V27.6309Z" fill="#472009"/>
<path d="M21.5742 28.3645H23.1196V27.6309H22.3469H21.5742V28.3645Z" fill="#472009"/>
<path d="M19.3399 29.1504H21.5742V28.3645H20.4571H19.3399V29.1504Z" fill="#472009"/>
<path d="M18.5275 27.6309V28.3645H19.3399V27.6309H18.5275Z" fill="#844B0D"/>
<path d="M11.3214 28.3645V27.6309H10.5266V28.3645H11.3214Z" fill="#844B0D"/>
<path d="M20.8235 27.6309H20.0111H19.3399V28.3645H20.4571H21.5742V27.6309H20.8235Z" fill="#713E0C"/>
<path d="M9.83776 27.6309H9.04297H8.31882V28.3645H10.5266V27.6309H9.83776Z" fill="#713E0C"/>
<path d="M20.8235 25.3778V24.6268H19.3223H18.4922V25.3778H20.0111H20.8235Z" fill="#79470D"/>
<path d="M20.8235 24.6268H21.583V23.8583H22.3248V23.1422H21.5742V23.8583H20.8235V24.6268Z" fill="#79470D"/>
<path d="M22.3248 23.1422H23.1196V22.4436H22.3248V23.1422Z" fill="#79470D"/>
<path d="M23.1196 22.4436H23.8438V21.7275H23.1196V22.4436Z" fill="#79470D"/>
<path d="M23.8438 21.7275H24.6032V20.9415H23.8438V21.7275Z" fill="#79470D"/>
<path d="M24.6032 20.9415H25.3274V20.1992V19.4569H24.6032V20.2079V20.9415Z" fill="#79470D"/>
<path d="M25.3274 19.4569H26.1045V18.6884V17.9199H25.3274V18.6535V19.4569Z" fill="#79470D"/>
<path d="M9.04297 24.6268V25.3953H10.5266H11.3744V24.6268H10.4913H9.04297Z" fill="#79470D"/>
<path d="M8.31882 23.8757V24.6268H9.04297V23.8757H8.31882Z" fill="#79470D"/>
<path d="M7.55935 23.1771V23.8757H8.31882V23.1771H7.55935Z" fill="#79470D"/>
<path d="M6.76456 22.4261V23.1771H7.55935V22.4261H6.76456Z" fill="#79470D"/>
<path d="M6.05808 21.71V22.4261H6.76456V21.71H6.05808Z" fill="#79470D"/>
<path d="M5.31628 20.924V21.71H6.05808V20.924H5.31628Z" fill="#79470D"/>
<path d="M4.53914 20.924H5.31628V20.2079V19.4569H4.53914V20.2079V20.924Z" fill="#79470D"/>
<path d="M3.77968 17.9898V19.4569H4.53914V18.6535V17.9898H3.77968Z" fill="#79470D"/>
<path d="M3.74435 10.5144H3.00255V17.9898H3.77968V15.7891H3.74435V12.0514V10.5144Z" fill="#79470D"/>
<path d="M26.1045 17.9199H26.8286V16.7672V11.213V10.462H26.1045V12.0339V15.7018V17.9199Z" fill="#79470D"/>
<path d="M26.1045 8.95995H25.3274V9.74592V10.462H26.1045V9.71098V8.95995Z" fill="#79470D"/>
<path d="M25.3274 7.47536H24.5856V8.26132V8.95995H25.3274V8.21766V7.47536Z" fill="#79470D"/>
<path d="M24.5856 7.47536V6.70687H23.8261V7.47536H24.5856Z" fill="#79470D"/>
<path d="M23.8261 6.70687V5.99077H23.102V6.70687H23.8261Z" fill="#79470D"/>
<path d="M23.102 5.99077V5.23974H22.3248V5.99077H23.102Z" fill="#79470D"/>
<path d="M22.3248 5.23974V4.48871H20.8412V5.23974H21.5654H22.3248Z" fill="#79470D"/>
<path d="M20.8412 4.48871V3.72022H19.3223V3.73768V4.48871H20.8412Z" fill="#79470D"/>
<path d="M19.3046 3.72022V3.00412H10.4913V3.73768H19.3223V3.72022H19.3046Z" fill="#79470D"/>
<path d="M10.4913 3.73768H9.09595V4.50618H10.4913V4.48871V3.73768Z" fill="#79470D"/>
<path d="M9.09595 4.50618H7.54169V5.23974H8.2835H9.09595V4.50618Z" fill="#79470D"/>
<path d="M7.54169 5.23974H6.78222V6.00823H7.54169V5.23974Z" fill="#79470D"/>
<path d="M6.78222 6.00823H6.02276V6.77673H6.78222V6.00823Z" fill="#79470D"/>
<path d="M6.02276 6.77673H5.28095V7.47536H6.02276V6.77673Z" fill="#79470D"/>
<path d="M5.28095 7.47536H4.52148V8.95995H5.28095V8.24386V7.47536Z" fill="#79470D"/>
<path d="M4.52148 8.95995H3.74435V10.5144H4.52148V9.72845V8.95995Z" fill="#79470D"/>
<path d="M25.3274 17.9199H26.1045V15.7018H25.3274V17.9199Z" fill="#D18E11"/>
<path d="M24.6032 19.4569H25.3274V18.6535H24.6032V19.4569Z" fill="#D18E11"/>
<path d="M23.8438 20.9415H24.6032V20.2079H23.8438V20.9415Z" fill="#D18E11"/>
<path d="M20.8235 23.1422V23.8583H21.5742V23.1422H20.8235Z" fill="#D18E11"/>
<path d="M19.3223 23.8583V24.6268H20.8235V23.8583H19.3223Z" fill="#D18E11"/>
<path d="M10.4913 23.8757H9.04297V24.6268H10.4913V23.8757Z" fill="#D18E11"/>
<path d="M9.04297 23.8757V23.1771H8.31882V23.8757H9.04297Z" fill="#D18E11"/>
<path d="M5.31628 20.2079V20.924H6.05808V20.2079H5.31628Z" fill="#D18E11"/>
<path d="M5.31628 18.6535H4.53914V19.4569H5.31628V18.6535Z" fill="#D18E11"/>
<path d="M4.53914 15.7891H3.77968V17.9898H4.53914V15.7891Z" fill="#D18E11"/>
<path d="M3.74435 12.0514H4.52148V10.5144H3.74435V12.0514Z" fill="#D18E11"/>
<path d="M4.52148 9.72845H5.28095V8.95995H4.52148V9.72845Z" fill="#D18E11"/>
<path d="M6.02276 8.24386V7.47536H5.28095V8.24386H6.02276Z" fill="#D18E11"/>
<path d="M6.78222 7.47536V6.77673H6.02276V7.47536H6.78222Z" fill="#D18E11"/>
<path d="M7.54169 6.77673V6.00823H6.78222V6.77673H7.54169Z" fill="#D18E11"/>
<path d="M8.2835 6.00823V5.23974H7.54169V6.00823H8.2835Z" fill="#D18E11"/>
<path d="M9.09595 5.23974H10.4913V4.50618H9.09595V5.23974Z" fill="#D18E11"/>
<path d="M10.4913 4.48871H19.3223V3.73768H10.4913V4.48871Z" fill="#D18E11"/>
<path d="M19.3223 4.48871V5.23974H20.8412V4.48871H19.3223Z" fill="#D18E11"/>
<path d="M21.5654 5.99077H22.3248V5.23974H21.5654V5.99077Z" fill="#D18E11"/>
<path d="M22.3248 6.70687H23.102V5.99077H22.3248V6.70687Z" fill="#D18E11"/>
<path d="M23.8261 7.47536V6.70687H23.102V7.47536H23.8261Z" fill="#D18E11"/>
<path d="M24.5856 8.26132V7.47536H23.8261V8.26132H24.5856Z" fill="#D18E11"/>
<path d="M25.3274 8.95995H24.5856V9.74592H25.3274V8.95995Z" fill="#D18E11"/>
<path d="M26.1045 12.0339V10.462H25.3274V12.0339H26.1045Z" fill="#D18E11"/>
<path d="M11.3744 26.1114V25.3953H10.5266V26.1114H11.3744Z" fill="#F8D835"/>
<path d="M23.8438 21.7275V22.4436H24.6032V21.7275H23.8438Z" fill="#F8D835"/>
<path d="M23.1196 22.4436V23.1422H23.8438V22.4436H23.1196Z" fill="#F8D835"/>
<path d="M22.3248 23.1422V23.8583H23.1196V23.1422H22.3248Z" fill="#F8D835"/>
<path d="M21.583 23.8583V24.6268H22.3248V23.8583H21.583Z" fill="#F8D835"/>
<path d="M20.8235 24.6268V25.3778H21.583V24.6268H20.8235Z" fill="#F8D835"/>
<path d="M18.4922 25.3953V26.1114H20.0111V25.3778H18.4922V25.3953Z" fill="#F8D835"/>
<path d="M27.6058 11.213H26.8286V16.7672H27.6058V11.213Z" fill="#F8D835"/>
<path d="M26.8286 17.9199H26.1045V18.6884H26.8286V17.9199Z" fill="#F8D835"/>
<path d="M26.1045 19.4569H25.3274V20.1992H26.1045V19.4569Z" fill="#F8D835"/>
<path d="M24.6032 20.9415V21.7275H25.3274V20.9415H24.6032Z" fill="#F8D835"/>
<path d="M25.3274 20.9415H26.1045V20.1992H25.3274V20.9415Z" fill="#FBE575"/>
<path d="M26.1045 19.4569H26.8286V18.6884H26.1045V19.4569Z" fill="#FBE575"/>
<path d="M26.8286 17.9199H27.6058V16.7672H26.8286V17.9199Z" fill="#FBE575"/>
<path d="M25.3274 8.95995H26.1045V8.21766H25.3274V8.95995Z" fill="#F8D835"/>
<path d="M26.1045 10.462H26.8286V9.71098H26.1045V10.462Z" fill="#F8D835"/>
<path d="M4.53914 19.4569H3.77968V20.2079H4.53914V19.4569Z" fill="#D18E11"/>
<path d="M6.05808 21.71H5.31628V22.4261H6.05808V21.71Z" fill="#D18E11"/>
<path d="M6.76456 22.4261H6.05808V23.1771H6.76456V22.4261Z" fill="#D18E11"/>
<path d="M7.55935 23.1771H6.76456V23.8757H7.55935V23.1771Z" fill="#D18E11"/>
<path d="M8.31882 23.8757H7.55935V24.6268H8.31882V23.8757Z" fill="#D18E11"/>
<path d="M25.3274 24.6268H24.6032V25.3953H25.3274V25.3778V24.6268Z" fill="#7D4A13"/>
<path d="M24.6032 25.3953H23.8438V26.1114H24.6032V25.3953Z" fill="#7D4A13"/>
<path d="M23.8438 26.8449V26.1114H23.1196V26.8449H23.8438Z" fill="#7D4A13"/>
<path d="M23.1196 27.6309V26.8449H22.3469V27.6309H23.1196Z" fill="#7D4A13"/>
<path d="M22.3469 26.8449H21.5742V27.6309H22.3469V26.8449Z" fill="#8B5314"/>
<path d="M21.5742 26.8449H20.8235C20.8294 27.1011 20.8377 27.6169 20.8235 27.6309H21.5742V26.8449Z" fill="#89530F"/>
<path d="M20.0111 26.8449V27.6309H20.8235C20.8377 27.6169 20.8294 27.1011 20.8235 26.8449H20.0111Z" fill="#CA880D"/>
<path d="M21.5742 26.1114V26.8449H22.3469V26.1114H21.5742Z" fill="#CA880D"/>
<path d="M23.1196 25.3953V26.1114H23.8438V25.3953H23.1196Z" fill="#CA880D"/>
<path d="M23.8438 24.6268V25.3953H24.6032V24.6268H23.8438Z" fill="#CA880D"/>
<path d="M23.1196 26.8449V26.1114H22.3469V26.8449H23.1196Z" fill="#8B5314"/>
<path d="M0.794792 17.1514H1.55426V12.75H0.794792V17.1514Z" fill="#F8D835"/>
<path d="M0.794792 12.75H1.55426V10.5144H0.794792V12.75Z" fill="#FBE575"/>
<path d="M1.55426 10.5144V9.72845H0.794792V10.5144H1.55426Z" fill="#F8D835"/>
<path d="M1.55426 9.72845H2.2784V9.01235H1.55426V9.72845Z" fill="#FBE575"/>
<path d="M2.2784 8.24386H1.55426V9.01235H2.2784V8.24386Z" fill="#F8D835"/>
<path d="M3.03787 8.24386V6.77673H2.2784V8.24386H3.03787Z" fill="#F8D835"/>
<path d="M4.53914 6.00823V5.23974H3.77968V6.00823H4.53914Z" fill="#FBE575"/>
<path d="M3.77968 6.77673V6.00823H3.03787V6.77673H3.77968Z" fill="#FBE575"/>
<path d="M6.02276 4.48871V3.73768H5.28095V4.48871H6.02276Z" fill="#F8D835"/>
<path d="M5.28095 5.23974V4.48871H4.53914V5.23974H5.28095Z" fill="#F8D835"/>
<path d="M6.78222 3.73768V3.00412H6.02276V3.73768H6.78222Z" fill="#FBE575"/>
<path d="M6.78222 2.28802V3.00412H7.53286V2.28802H6.78222Z" fill="#FBE575"/>
<path d="M8.2835 3.00412V2.28802H7.53286V3.00412H8.2835Z" fill="#F8D835"/>
<path d="M8.2835 1.51952V2.28802H9.74945V1.51952H8.2835Z" fill="#FBE575"/>
<path d="M10.4913 2.28802V1.51952H9.74945V2.28802H10.4913Z" fill="#F8D835"/>
<path d="M10.4913 0.768495V1.51952H11.9395V0.768495H10.4913Z" fill="#FBE575"/>
<path d="M11.9395 0.768495V1.51952H13.5468V0.768495H11.9395Z" fill="#F8D835"/>
<path d="M13.5468 0.768495V1.51952H17.1852V0.768495H13.5468Z" fill="#FBE575"/>
<path fill-rule="evenodd" clip-rule="evenodd" d="M21.5654 0.768495V1.51952H20.8412H19.3223V0.768495H21.5654Z" fill="#472009"/>
<path d="M17.1852 1.51952H19.3223V0.768495H17.1852V1.51952Z" fill="#F8D835"/>
<path d="M19.3223 1.51952V2.25309H20.8412V1.51952H19.3223Z" fill="#F8D835"/>
<path d="M20.8412 2.25309H21.5654V1.51952H20.8412V2.25309Z" fill="#D18E11"/>
<path d="M23.102 3.00412V2.25309H22.3337V3.00412H23.102Z" fill="#D18E11"/>
<path d="M23.102 3.73768H23.8261V3.00412H23.102V3.73768Z" fill="#D18E11"/>
<path d="M23.8261 4.48871H24.6209V3.73768H23.8261V4.48871Z" fill="#D18E11"/>
<path d="M24.6209 5.23974H25.3274V4.48871H24.6209V5.23974Z" fill="#D18E11"/>
<path d="M25.3274 5.99077H26.1045V5.23974H25.3274V5.99077Z" fill="#D18E11"/>
<path d="M21.5654 2.25309V3.00412H22.3337V2.25309H21.5654Z" fill="#F8D835"/>
<path d="M26.1045 6.70687H26.8286V5.99077H26.1045V6.70687Z" fill="#7E3B12"/>
<path d="M26.8286 8.26132H27.6058V6.70687H26.8286V8.26132Z" fill="#7E3B12"/>
<path d="M27.6058 9.71098H28.3476V8.26132H27.6058V9.71098Z" fill="#7E3B12"/>
<path d="M29.0894 9.71098H28.3476V12.0339H29.0894V9.71098Z" fill="#7E3B12"/>
<path d="M28.3476 17.1514H29.0894V12.0339H28.3476V17.1514Z" fill="#D18E11"/>
<path d="M28.3476 17.1514V18.6884H29.0894V17.1514H28.3476Z" fill="#7E3B12"/>
<path d="M28.3476 18.6884V19.4569V20.1992H29.0894V18.6884H28.3476Z" fill="#79470D"/>
<path d="M27.603 20.9066V21.6576H27.6234H28.3476V20.9066H27.603Z" fill="#713612"/>
<path d="M27.603 19.4569C27.6011 20.1458 27.603 20.9066 27.603 20.9066H28.3476V20.1992V19.4569H27.603Z" fill="#7E3B12"/>
<path d="M28.3476 18.6884H27.6058C27.6049 18.9002 27.6038 19.1742 27.603 19.4569H28.3476V18.6884Z" fill="#D18E11"/>
<path d="M26.8463 20.9066V21.6576H27.603V20.9066H26.8463Z" fill="#D18E11"/>
<path d="M27.603 21.6576H26.8463V22.3999V23.1422H27.6234V21.6576H27.603Z" fill="#7E3B12"/>
<path d="M26.8463 21.6576H26.1045V22.3999H26.8463V21.6576Z" fill="#CA880D"/>
<path d="M25.3274 23.1422V23.8583H26.1045V23.1422H25.3274Z" fill="#CA880D"/>
<path d="M24.6032 23.8583V24.6268H25.3274V23.8583H24.6032Z" fill="#CA880D"/>
<path d="M26.1045 23.1422H26.8463V22.3999H26.1045V23.1422Z" fill="#7D4A13"/>
<path d="M26.1045 24.6268V23.8583H25.3274V24.6268H26.1045Z" fill="#7E3B12"/>
<path d="M26.8463 23.8583V23.1422H26.1045V23.8583H26.8463Z" fill="#7E3B12"/>
<path d="M0.794792 18.636H1.55426V17.1514H0.794792V18.636Z" fill="#D18E11"/>
<path d="M0.794792 20.1555H1.55426V19.4569V18.636H0.794792V20.1555Z" fill="#7E3B12"/>
<path d="M1.55426 21.71H2.2784V20.924V20.1555H1.55426V21.71Z" fill="#7E3B12"/>
<path d="M3.00255 23.1771V22.4261V21.71H2.2784V23.1771H3.00255Z" fill="#7E3B12"/>
<path d="M3.00255 23.8757H3.77968V23.1771H3.00255V23.8757Z" fill="#7E3B12"/>
<path d="M3.77968 24.6268H4.53914V23.8757H3.77968V24.6268Z" fill="#7E3B12"/>
<path d="M5.31628 25.3953V24.6268H4.53914V25.3953H5.31628Z" fill="#7E3B12"/>
<path d="M5.31628 26.1114H6.05808V25.3953H5.31628V26.1114Z" fill="#7E3B12"/>
<path d="M7.55935 26.1114H6.76456H6.05808V26.8449H6.76456V27.6309H7.55935V26.8449V26.1114Z" fill="#7E3B12"/>
<path d="M9.04297 26.8449H8.31882H7.55935V27.6309H8.31882H9.04297V26.8449Z" fill="#7E3B12"/>
<path fill-rule="evenodd" clip-rule="evenodd" d="M26.1045 22.3999V23.1422H25.3274V23.8583H24.6032V24.6268H23.8438V25.3953H23.1196V26.1114H22.3469H21.5742V26.8449H20.8235H20.0111V27.6309H19.3399H18.5275H11.3214H10.5266H9.83776V26.8449H9.04297H8.31882V26.1114H7.55935H6.76456V25.3953H6.05808V24.6268H5.31628V23.8757H4.53914V23.1771H3.77968V22.4261H3.00255V21.71V20.924H2.2784V20.1555V19.4569H1.55426V18.636V17.1514V12.75V10.5144V9.72845H2.2784V9.01235V8.24386H3.03787V6.77673H3.77968V6.00823H4.53914V5.23974H5.28095V4.48871H6.02276V3.73768H6.78222V3.00412H7.53286H8.2835V2.28802H9.74945H10.4913V1.51952H11.9395H13.5468H17.1852H19.3223V2.25309H20.8412H21.5654V3.00412H22.3337H23.102V3.73768H23.8261V4.48871H24.6209V5.23974H25.3274V5.99077H26.1045V6.70687H26.8286V8.26132H27.6058V9.71098H28.3476V12.0339V17.1514V18.6884H27.6058C27.6049 18.9002 27.6038 19.1742 27.603 19.4569C27.6011 20.1458 27.603 20.9066 27.603 20.9066H26.8463V21.6576H26.1045V22.3999ZM7.04716 15.7891V18.7583V19.1076H7.41806V19.4569H7.78896V19.8761H8.49544V20.2079H9.29024V20.6096H10.032V20.9939H10.7915V21.3432H11.5863V21.7275H12.3634V22.1117H13.1052V22.4436H13.8824V22.8453H14.6242V23.2295H16.9732V22.8453H17.7504V22.4436H18.4922V22.1117H19.2163V21.7275H20.0464V21.3432H20.8412V20.9939H21.583V20.6096H22.3248V20.2079H22.7487V19.8761H23.1196V19.1076V16.1384H22.7487V15.7542H22.3248V15.4398H21.583V15.0206H20.8412V14.6014H20.0994V14.2521H19.287V13.8504H18.5098V13.5185H17.7504V13.1343H16.9732V12.6976H16.2138V12.0514H16.5493V11.5973H16.9026V11.248V10.8288H17.2911V10.462H17.6797V9.72845H18.0683V7.47536H17.6797V6.70687H17.2911V6.30515H16.9026V5.88597H16.2138V5.48426H13.4585V5.88597H12.7167V6.30515H12.3811V6.77673H11.9572V7.47536H11.5333V9.72845H11.9572V10.462H12.3811V10.8288H12.7167V11.248V11.5973H13.5115V13.1343H12.7167V13.5185H11.9572V13.8504H10.8268V14.2521H9.99672V14.6014H9.25491V15.0206H8.19519V15.4398H7.48871V15.7891H7.04716ZM17.7504 16.5052H17.3088V16.872H16.9732V17.2562H17.3088V16.872H17.7504V16.5052ZM14.2356 11.5973H14.6065V15.4398H14.2356V11.5973ZM18.4922 26.1114V26.8449H11.3744V26.1114H10.5266V25.3953H9.04297V24.6268H8.31882H7.55935V23.8757H6.76456V23.1771H6.05808V22.4261H5.31628V21.71V20.924H4.53914V20.2079H3.77968V19.4569V17.9898H3.00255V10.5144H3.74435V8.95995H4.52148V7.47536H5.28095V6.77673H6.02276V6.00823H6.78222V5.23974H7.54169V4.50618H9.09595V3.73768H10.4913V3.00412H19.3046V3.72022H19.3223H20.8412V4.48871H22.3248V5.23974H23.102V5.99077H23.8261V6.70687H24.5856V7.47536H25.3274V8.21766H26.1045V8.95995V9.71098H26.8286V10.462V11.213H27.6058V16.7672V17.9199H26.8286V18.6884V19.4569H26.1045V20.1992V20.9415H25.3274V21.7275H24.6032V22.4436H23.8438V23.1422H23.1196V23.8583H22.3248V24.6268H21.583V25.3778H20.8235H20.0111V26.1114H18.4922ZM6.05808 21.71H6.76456V22.4261H7.55935V23.1771H8.31882H9.04297V23.8757H10.4913V24.6268H11.3744H18.4922H19.3223V23.8583H20.8235V23.1422H21.5742H22.3248V22.4436H23.1196V21.7275H23.8438V20.9415V20.2079H24.6032V19.4569V18.6535H25.3274V17.9199V15.7018H26.1045V12.0339H25.3274V10.462V9.74592H24.5856V8.95995V8.26132H23.8261V7.47536H23.102V6.70687H22.3248V5.99077H21.5654V5.23974H20.8412H19.3223V4.48871H10.4913V4.50618V5.23974H9.09595H8.2835V6.00823H7.54169V6.77673H6.78222V7.47536H6.02276V8.24386H5.28095V8.95995V9.72845H4.52148V10.5144V12.0514H3.74435V15.7891H3.77968H4.53914V17.9898V18.6535H5.31628V19.4569V20.2079H6.05808V20.924V21.71Z" fill="#EBB222"/>
<path d="M2.2784 19.4569H1.55426V20.1555H2.2784V19.4569Z" fill="#D18E11"/>
<path d="M3.00255 20.924H2.2784V21.71H3.00255V20.924Z" fill="#D18E11"/>
<path d="M3.77968 22.4261H3.00255V23.1771H3.77968V22.4261Z" fill="#D18E11"/>
<path d="M4.53914 23.1771H3.77968V23.8757H4.53914V23.1771Z" fill="#D18E11"/>
<path d="M5.31628 23.8757H4.53914V24.6268H5.31628V23.8757Z" fill="#D18E11"/>
<path d="M6.05808 24.6268H5.31628V25.3953H6.05808V24.6268Z" fill="#D18E11"/>
<path d="M6.76456 25.3953H6.05808V26.1114H6.76456V25.3953Z" fill="#D18E11"/>
<path d="M8.31882 26.8449V26.1114H7.55935V26.8449H8.31882Z" fill="#D18E11"/>
<path d="M9.83776 27.6309V26.8449H9.04297V27.6309H9.83776Z" fill="#D18E11"/>
<path fill-rule="evenodd" clip-rule="evenodd" d="M15.3836 6.30515H15.781V6.77673H15.3836V6.30515Z" fill="#C53619"/>
<path d="M16.1784 6.77673V6.30515H15.781V6.77673H16.1784Z" fill="#881B0F"/>
<path fill-rule="evenodd" clip-rule="evenodd" d="M9.20193 15.4398V15.7891V16.1559H9.59049H10.0409V16.5576H10.4913H10.8533V16.872H11.2154H11.5863V17.2562H11.9572H12.3369V17.623H12.7167H13.0787V18.0247H13.4408H13.8382V18.374H14.2356H14.6286V18.7583H15.0216V19.1076H15.7899V18.7583H16.5493V18.374H17.3265V18.0247H18.1036V17.623H18.8631V17.2562H19.6579V16.872H20.435V16.5052H21.1768V16.1559H21.583V15.7891H20.8412V15.4398H20.0994V15.0206H19.287V14.6363H18.5098V14.2521H17.7504V13.8504H16.9732V13.4661H16.1961V14.6014H16.567V15.0206H17.3088V15.4398H17.7504V16.5052V16.872H17.3088V17.2562H16.9732H16.1961V17.623H13.5115V17.2562H12.752V16.872H12.3811V16.5052H12.0102V15.4398H12.3811V15.0206H13.0876V14.6014H13.5115V13.8504H12.7167V14.2521H11.9572V14.6014H10.8445V15.0206H10.032V15.4398H9.20193Z" fill="#F3C830"/>
<path d="M14.2356 18.374V18.7583H14.6286V18.374H14.2356Z" fill="#F5D254"/>
<path d="M13.4408 18.0247V18.374H13.8382V18.0247H13.4408Z" fill="#F5D254"/>
<path d="M12.7167 17.623V18.0247H13.0787V17.623H12.7167Z" fill="#F5D254"/>
<path d="M11.9572 17.2562V17.623H12.3369V17.2562H11.9572Z" fill="#F5D254"/>
<path d="M11.2154 16.872V17.2562H11.5863V16.872H11.2154Z" fill="#F5D254"/>
<path d="M10.4913 16.5576V16.872H10.8533V16.5576H10.4913Z" fill="#F5D254"/>
<path d="M9.59049 16.1559V16.5576H10.0409V16.1559H9.59049Z" fill="#F5D254"/>
<path d="M9.20193 15.7891H8.88401V16.1559H9.20193V15.7891Z" fill="#F5D254"/>
<path fill-rule="evenodd" clip-rule="evenodd" d="M16.5493 6.77673V7.12605V8.57571H16.1784V9.3442H15.3836V10.0079H13.0876H12.7167V9.3442H14.6418V8.95995H15.3836V8.57571H15.7722V7.85961H16.1784V6.77673H16.5493Z" fill="#B4291A"/>
<path d="M13.8294 10.8288H15.7722V10.462H16.5493V10.0079H16.9379V9.3442H17.2911V7.85961H16.9379V7.12605H16.5493V8.57571H16.1784V9.3442H15.3836V10.0079H13.0876V10.462H13.8294V10.8288Z" fill="#8F2014"/>
<g filter="url(#filter0_dii_33_988)">
<path d="M35.4129 14.1092V12.7492H34.0049V5.10123H35.4129V3.72523H40.2769V5.10123H41.7009V8.63723H39.6529V5.91723H36.0369V11.9332H39.6529V11.3732H38.2449V9.99723H36.8209V7.83723H38.8689V9.18123H41.7009V12.7492H40.2769V14.1092H35.4129ZM44.4455 14.1092V6.46123H45.8535V5.10123H47.2615V3.72523H49.3095V5.10123H50.7175V6.46123H52.1415V14.1092H50.0935V11.3732H46.4775V14.1092H44.4455ZM46.4775 9.18123H50.0935V7.27723H48.6855V5.91723H47.8855V7.27723H46.4775V9.18123ZM54.8861 14.1092V5.10123H56.2941V3.72523H58.3261V5.10123H59.7501V7.83723H60.5341V5.10123H61.9581V3.72523H64.0061V5.10123H65.3981V14.1092H63.3821V5.91723H62.5821V8.63723H61.1581V12.7492H59.1261V8.63723H57.7021V5.91723H56.9181V14.1092H54.8861ZM69.5629 14.1092V12.7492H68.1549V5.10123H69.5629V3.72523H74.4269V5.10123H75.8509V7.27723H73.8029V5.91723H70.1869V7.83723H73.0189V9.99723H70.1869V11.9332H73.8029V10.5572H75.8509V12.7492H74.4269V14.1092H69.5629ZM84.0066 14.1092V12.7492H82.5986V5.10123H84.0066V3.72523H88.8706V5.10123H90.2946V12.7492H88.8706V14.1092H84.0066ZM84.6306 11.9332H88.2466V5.91723H84.6306V11.9332ZM93.0392 14.1092V3.72523H99.3112V5.10123H100.735V7.27723H98.6872V5.91723H95.0712V7.83723H97.9032V9.99723H95.0712V14.1092H93.0392ZM36.8209 26.1092V17.9172H36.0369V19.2772H34.0049V17.1012H35.4129V15.7252H40.2769V17.1012H41.7009V19.2772H39.6529V17.9172H38.8689V26.1092H36.8209ZM43.9611 26.1092V15.7252H45.9931V19.8372H46.7771V18.4612H48.8251V19.8372H49.6091V15.7252H51.6571V26.1092H49.6091V21.9972H45.9931V26.1092H43.9611ZM55.8097 26.1092V24.7492H54.4017V17.1012H55.8097V15.7252H60.6737V17.1012H62.0977V19.2772H60.0497V17.9172H56.4337V19.8372H59.2657V21.9972H56.4337V23.9332H60.0497V22.5572H62.0977V24.7492H60.6737V26.1092H55.8097ZM70.2535 26.1092V24.7492H68.8455V15.7252H70.8775V23.9332H71.6615V21.1812H73.0855V17.1012H75.1175V21.1812H76.5415V23.9332H77.3415V15.7252H79.3575V24.7492H77.9655V26.1092H75.9175V24.7492H74.4935V21.9972H73.7095V24.7492H72.2855V26.1092H70.2535ZM83.5222 26.1092V24.7492H82.1142V17.1012H83.5222V15.7252H88.3862V17.1012H89.8102V19.2772H87.7622V17.9172H84.1462V19.8372H86.9782V21.9972H84.1462V23.9332H87.7622V22.5572H89.8102V24.7492H88.3862V26.1092H83.5222ZM93.9629 26.1092V24.7492H92.5549V17.1012H93.9629V15.7252H98.8269V17.1012H100.251V19.2772H98.2029V17.9172H94.5869V19.8372H97.4189V21.9972H94.5869V23.9332H98.2029V22.5572H100.251V24.7492H98.8269V26.1092H93.9629ZM102.995 26.1092V17.1012H104.403V15.7252H106.435V17.9172H105.027V19.8372H105.811V18.4612H107.235V17.1012H108.643V15.7252H110.691V17.9172H109.267V19.2772H107.859V20.6372H106.435V21.1812H107.859V22.5572H109.267V23.9332H110.691V26.1092H108.643V24.7492H107.235V23.3732H105.811V21.9972H105.027V26.1092H102.995Z" fill="#EBB222"/>
</g>
<defs>
<filter id="filter0_dii_33_988" x="34.0049" y="3.72522" width="77.2447" height="22.9886" filterUnits="userSpaceOnUse" color-interpolation-filters="sRGB">
<feFlood flood-opacity="0" result="BackgroundImageFix"/>
<feColorMatrix in="SourceAlpha" type="matrix" values="0 0 0 0 0 0 0 0 0 0 0 0 0 0 0 0 0 0 127 0" result="hardAlpha"/>
<feOffset dx="0.558085" dy="0.604593"/>
<feComposite in2="hardAlpha" operator="out"/>
<feColorMatrix type="matrix" values="0 0 0 0 0.270588 0 0 0 0 0.101961 0 0 0 0 0 0 0 0 1 0"/>
<feBlend mode="normal" in2="BackgroundImageFix" result="effect1_dropShadow_33_988"/>
<feBlend mode="normal" in="SourceGraphic" in2="effect1_dropShadow_33_988" result="shape"/>
<feColorMatrix in="SourceAlpha" type="matrix" values="0 0 0 0 0 0 0 0 0 0 0 0 0 0 0 0 0 0 127 0" result="hardAlpha"/>
<feOffset dx="0.465071" dy="0.279043"/>
<feComposite in2="hardAlpha" operator="arithmetic" k2="-1" k3="1"/>
<feColorMatrix type="matrix" values="0 0 0 0 1 0 0 0 0 0.825488 0 0 0 0 0.384615 0 0 0 1 0"/>
<feBlend mode="normal" in2="shape" result="effect2_innerShadow_33_988"/>
<feColorMatrix in="SourceAlpha" type="matrix" values="0 0 0 0 0 0 0 0 0 0 0 0 0 0 0 0 0 0 127 0" result="hardAlpha"/>
<feOffset dx="-0.465071" dy="-0.372057"/>
<feComposite in2="hardAlpha" operator="arithmetic" k2="-1" k3="1"/>
<feColorMatrix type="matrix" values="0 0 0 0 0.528846 0 0 0 0 0.378875 0 0 0 0 0 0 0 0 1 0"/>
<feBlend mode="normal" in2="effect2_innerShadow_33_988" result="effect3_innerShadow_33_988"/>
</filter>
</defs>
</svg>
