<svg width="118" height="32" viewBox="0 0 118 32" fill="none" xmlns="http://www.w3.org/2000/svg">
<path d="M14.1478 6.6368V7.05964H15.4306V7.86856H14.9658V8.27301H14.5568V8.67747H13.776V7.86856H14.1478V7.05964H13.776V7.50087H13.3856V8.27301H12.9951V9.43124H13.3856V9.83569H15.412V9.43124H16.1928V9.02678H16.6018V8.27301H17.0294V7.13318H16.6111H16.1928V6.6368H14.1478Z" fill="#CECECE"/>
<path d="M13.776 7.86856V8.67747H14.5568V8.27301H14.9658V7.86856H15.4306V7.05964H14.1478V7.86856H13.776Z" fill="#F2F2F2"/>
<path fill-rule="evenodd" clip-rule="evenodd" d="M7.41783 19.7449H7.80824V20.1126H8.19865V20.4803H8.94229V20.9215H9.77889V21.2708H10.5597V21.6937H11.3591V22.0981H12.1957V22.4658H13.0137V22.8703H13.7946V23.2747H14.6126V23.6241H15.3934V24.0469H16.6204V23.6241H17.4198V23.2747H18.2378V22.8703H19.0558V22.4658H19.8552V22.0981H20.6918V21.6937H21.5098V21.2708H22.2907V20.9215H23.1087V20.4803H23.9453V20.1126H24.3357V16.9873H23.9453V16.5828H23.4991V16.2519H22.7183V15.8106H21.9374V15.3694H21.1566V15.0017H20.3014V14.5789H19.4834V14.2296H18.684V13.8251H17.866V13.3655H17.0666V12.6853V11.8396H17.7916V11.3984H18.2006V11.0123H18.6096V10.2402H19.0186V7.86856H18.6096V7.05964H18.2006V6.6368H17.7916V6.19557H17.0666V5.77273H14.1664V6.19557H13.3856V6.6368H13.0323V7.13318H12.5861V7.86856H12.14V10.2402H12.5861V11.0123H13.0323V11.3984H13.3856V11.8396H14.2221V12.2073V13.8251H13.3856V14.2296H12.5861V14.5789H11.3963V15.0017H10.5225V15.3694H9.74171V15.8106H8.62624V16.2519H7.8826V16.6196H7.41783V19.7449ZM8.19865 19.3405V16.9873H8.53329V16.6196H9.35129H9.68593V16.2519H10.5597V15.8106H11.4149V15.3694H12.5861V15.0017H13.3856V14.5789H14.2221V15.3694H13.776V15.8106H14.185V16.7115H14.5754V17.0608H15.3748H16.6018V16.638H17.048V15.8106H17.4384V15.3694H17.048V14.1744H17.866V14.5789H18.684V15.0017H19.4834V15.4062H20.3014V15.8106H21.1566V16.2519H21.9374V16.6196H22.7183V17.0056H23.1087V17.3733H23.4991V19.7633H22.7926V20.1126H21.9188V20.5355H21.1008V20.9215H20.2828V21.2708H19.4648V21.6937H18.684V22.0981H17.866V22.4658H17.048V22.8703H15.8117H15.3934H14.9844V22.4658H14.5754H14.1478V22.0981H13.776H13.367V21.6937H13.0137H12.6047V21.2708H12.14H11.7495V20.9215H11.3591H11.0431V20.4803H10.5597H10.1693V20.1126H9.74171H9.35129V19.7449H8.94229H8.57047V19.3405H8.19865ZM14.9844 16.2519V12.2073H15.3748H15.8117H16.2486V16.2519H15.8117H15.3748H14.9844ZM16.6018 11.3984H14.5568V11.0123H13.776V10.5343H13.3856V9.83569H12.9951V9.43124V8.27301H13.3856V7.50087H13.776V7.05964H14.1478V6.6368H16.1928H16.6111H17.0294V7.13318H17.4198V7.50087H17.8288V8.27301H18.2006V9.83569H17.8288V10.5343H17.4198V11.0123H16.6018V11.3984Z" fill="#272727"/>
<path d="M16.2486 16.2519V12.2073H15.8117V16.2519H16.2486Z" fill="#868686"/>
<path d="M15.3748 12.2073V16.2519H15.8117V12.2073H15.3748Z" fill="#CECECE"/>
<path d="M12.9951 9.83569H13.3856V9.43124H12.9951V9.83569Z" fill="#868686"/>
<path d="M14.2221 11.8396H13.3856V12.2073H14.2221V11.8396Z" fill="#D8D8D8"/>
<path d="M17.7916 11.8396H17.0666V12.6853H17.4198V12.2073H17.7916V11.8396Z" fill="#D8D8D8"/>
<path d="M13.776 15.8106H13.0323V16.2519H12.6419V17.3733H13.0323V17.7594H13.4227V18.1639H14.2221V18.5499H17.048V18.1639H17.866V17.7594H18.2192V17.3733H18.684V16.2519H18.2192V15.8106H17.4384V16.2519H17.866V17.0056H17.4384V17.4285H17.048V17.7594H15.8117H14.185V17.4285H13.3856V17.0056V16.7115V16.2519H13.776V15.8106Z" fill="#272727"/>
<path d="M16.6018 16.638V17.0608H15.3748V17.4285H15.8117V17.7594H17.048V17.4285H17.4384V17.0056H17.866V16.2519H17.4384V15.8106H17.048V16.638H16.6018Z" fill="#868686"/>
<path d="M14.185 15.8106H13.776V16.2519V16.7115H13.3856V17.0056H14.185V17.4285H15.3748V17.0608H14.5754V16.7115H14.185V15.8106Z" fill="#D8D8D8"/>
<path d="M13.776 16.2519H13.3856V16.7115H13.776V16.2519Z" fill="#CECECE"/>
<path d="M13.3856 17.4285H14.185V17.0056H13.3856V17.4285Z" fill="#F2F2F2"/>
<path d="M14.185 17.4285V17.7594H15.8117V17.4285H15.3748H14.185Z" fill="#F2F2F2"/>
<path d="M23.4991 17.3733H23.1087H22.2907V17.7594H21.5098V18.1639H20.6918V18.5499H19.8552V18.9728H19.0558V19.3405H18.2378V19.7449H17.4198V20.1126H16.6204V20.5355H15.8117V22.8703H17.048V22.4658H17.866V22.0981H18.684V21.6937H19.4648V21.2708H20.2828V20.9215H21.1008V20.5355H21.9188V20.1126H22.7926V19.7633H23.4991V17.3733Z" fill="#515151"/>
<path d="M8.19865 16.9873V19.3405H8.57047H8.94229V19.7449H9.35129H9.74171V20.1126H10.1693H10.5597V20.4803H11.0431H11.3591V20.9215H11.7495H12.14V21.2708H12.6047H13.0137V21.6937H13.367H13.776V22.0981H14.1478H14.5754V22.4658H14.9844H15.3934V22.8703H15.8117V20.5355H16.6204V20.1126H15.8117H14.6126V19.7449H13.776V19.3405H13.0137V18.9728H12.14V18.5499H11.3591V18.1639H10.5225V17.7594H9.68593V17.3733H8.94229V16.9873H8.53329H8.19865Z" fill="#D8D8D8"/>
<path d="M23.1087 17.0056H22.7183H22.2907V17.3733H23.1087V17.0056Z" fill="#D8D8D8"/>
<path d="M21.5098 17.3733V17.7594H22.2907V17.3733H21.5098Z" fill="#D8D8D8"/>
<path d="M20.6918 17.7594V18.1639H21.5098V17.7594H20.6918Z" fill="#D8D8D8"/>
<path d="M19.8552 18.1639V18.5499H20.6918V18.1639H19.8552Z" fill="#D8D8D8"/>
<path d="M19.0558 18.5499V18.9728H19.8552V18.5499H19.0558Z" fill="#D8D8D8"/>
<path d="M18.2378 18.9728V19.3405H19.0558V18.9728H18.2378Z" fill="#D8D8D8"/>
<path d="M17.4198 19.3405V19.7449H18.2378V19.3405H17.4198Z" fill="#D8D8D8"/>
<path d="M16.6204 19.7449V20.1126H17.4198V19.7449H16.6204Z" fill="#D8D8D8"/>
<path d="M8.53329 16.6196V16.9873H8.94229V17.3733H9.68593V17.7594H10.5225V18.1639H11.3591V18.5499H12.14V18.9728H13.0137V19.3405H13.776V19.7449H14.6126V20.1126H15.8117V19.7449H15.398H14.9844V19.3405H14.5661H14.1478V18.9728H13.7667H13.3856V18.5499H12.9858H12.5861V18.1639H12.1957H11.8053V17.7594H11.4242H11.0431V17.4285H10.569H10.0949V17.0056H9.68593H9.35129V16.6196H8.53329Z" fill="#F2F2F2"/>
<path d="M8.57047 19.3405V19.7449H8.94229V19.3405H8.57047Z" fill="#515151"/>
<path d="M9.35129 19.7449V20.1126H9.74171V19.7449H9.35129Z" fill="#515151"/>
<path d="M10.1693 20.1126V20.4803H10.5597V20.1126H10.1693Z" fill="#515151"/>
<path d="M11.0431 20.4803V20.9215H11.3591V20.4803H11.0431Z" fill="#515151"/>
<path d="M11.7495 20.9215V21.2708H12.14V20.9215H11.7495Z" fill="#515151"/>
<path d="M12.6047 21.2708V21.6937H13.0137V21.2708H12.6047Z" fill="#515151"/>
<path d="M13.367 21.6937V22.0981H13.776V21.6937H13.367Z" fill="#515151"/>
<path d="M14.1478 22.0981V22.4658H14.5754V22.0981H14.1478Z" fill="#515151"/>
<path d="M14.9844 22.4658V22.8703H15.3934V22.4658H14.9844Z" fill="#515151"/>
<path d="M16.6204 24.0469H15.3934V24.4514H17.866V24.0469H18.684V23.6241H19.4648V23.2747H20.2271V22.8703H21.1008V22.4658H21.9374V22.0981H22.7183V21.6937H23.4991V21.2708H23.9453V20.9215H24.3357V20.1126H23.9453V20.4803H23.1087V20.9215H22.2907V21.2708H21.5098V21.6937H20.6918V22.0981H19.8552V22.4658H19.0558V22.8703H18.2378V23.2747H17.4198V23.6241H16.6204V24.0469Z" fill="#CECECE"/>
<path d="M7.80824 19.7449H7.41783V20.1126H7.80824V19.7449Z" fill="#CECECE"/>
<path d="M8.19865 20.1126H7.80824V20.4803H8.19865V20.1126Z" fill="#CECECE"/>
<path d="M8.94229 20.4803H8.19865V20.9215H8.94229V20.4803Z" fill="#CECECE"/>
<path d="M9.77889 20.9215H8.94229V21.2708H9.77889V20.9215Z" fill="#CECECE"/>
<path d="M10.5597 21.2708H9.77889V21.6937H10.5597V21.2708Z" fill="#CECECE"/>
<path d="M11.3591 21.6937H10.5597V22.0981H11.3591V21.6937Z" fill="#CECECE"/>
<path d="M12.1957 22.0981H11.3591V22.4658H12.1957V22.0981Z" fill="#CECECE"/>
<path d="M13.0137 22.4658H12.1957V22.8703H13.0137V22.4658Z" fill="#CECECE"/>
<path d="M13.7946 22.8703H13.0137V23.2747H13.7946V22.8703Z" fill="#CECECE"/>
<path d="M14.6126 23.2747H13.7946V23.6241H14.6126V23.2747Z" fill="#CECECE"/>
<path d="M15.3934 23.6241H14.6126V24.0469H15.3934V23.6241Z" fill="#CECECE"/>
<path d="M19.4648 26.7126V25.9221H11.9726V26.731H19.4648V26.7126Z" fill="#CECECE"/>
<path d="M11.9726 27.4848H19.4648V26.731H11.9726V27.4848Z" fill="#515151"/>
<path d="M19.4648 27.4848H11.9726V28.2569H19.4648V27.4848Z" fill="#868686"/>
<path d="M19.502 29.8564V29.0842H11.9169V29.8564H19.502Z" fill="#CECECE"/>
<path d="M20.3572 30.6837V29.8564H19.502H11.9169H11.0803V30.6837H20.3572Z" fill="#515151"/>
<path d="M11.0803 30.6837V31.4375H20.3572V30.6837H11.0803Z" fill="#272727"/>
<path d="M8.75638 29.8564V30.6837H11.0803V29.8564H8.75638Z" fill="#272727"/>
<path d="M7.12037 29.0842V29.8564H8.75638V29.0842H7.95697H7.12037Z" fill="#272727"/>
<path d="M6.37673 28.2569V29.0842H7.12037V28.2569H6.37673Z" fill="#272727"/>
<path d="M5.5959 27.4848V28.2569H6.37673V27.4848H5.5959Z" fill="#272727"/>
<path d="M4.7779 26.731V27.4848H5.5959V26.731H4.7779Z" fill="#272727"/>
<path d="M3.97848 25.9221V26.731H4.7779V25.9221H3.97848Z" fill="#272727"/>
<path d="M3.16048 25.1316V25.9221H3.97848V25.1316H3.16048Z" fill="#272727"/>
<path d="M2.39824 24.3962V25.1316H3.16048V24.3962H2.39824Z" fill="#272727"/>
<path d="M1.63601 22.8519V24.3962H2.39824V22.8519H1.63601Z" fill="#272727"/>
<path d="M0.836597 21.2157V22.8519H1.63601V21.2157H0.836597Z" fill="#272727"/>
<path d="M0.836597 10.2402H0V21.2157H0.836597V19.6162V18.0536V13.4207V11.0675V10.2402Z" fill="#272727"/>
<path d="M1.63601 8.67747H0.836597V10.2402H1.63601V9.48639V8.67747Z" fill="#272727"/>
<path d="M2.39824 7.13318H1.63601V8.67747H2.39824V7.13318Z" fill="#272727"/>
<path d="M3.19766 6.32426H2.39824V7.13318H3.19766V6.32426Z" fill="#272727"/>
<path d="M3.97848 5.51534H3.19766V6.32426H3.97848V5.51534Z" fill="#272727"/>
<path d="M4.7779 4.72481H3.97848V5.51534H4.7779V4.72481Z" fill="#272727"/>
<path d="M5.55872 3.93428H4.7779V4.72481H5.55872V3.93428Z" fill="#272727"/>
<path d="M6.33955 3.16213H5.55872V3.93428H6.33955V3.16213Z" fill="#272727"/>
<path d="M7.13896 2.40837H6.33955V3.16213H7.13896V2.40837Z" fill="#272727"/>
<path d="M8.7192 1.59945H7.13896V2.40837H7.92908H8.7192V1.59945Z" fill="#272727"/>
<path d="M11.0431 0.808917H8.7192V1.59945H10.2623H11.0431V0.808917Z" fill="#272727"/>
<path d="M20.3386 0.808917V0H11.0431V0.808917H12.5675H14.2593H18.0891H20.3386Z" fill="#272727"/>
<path d="M24.3171 2.3716V1.59945H22.6997V2.3716H23.5084H24.3171Z" fill="#272727"/>
<path d="M25.0793 3.16213V2.3716H24.3171V3.16213H25.0793Z" fill="#272727"/>
<path d="M25.9159 3.93428V3.16213H25.0793V3.93428H25.9159Z" fill="#272727"/>
<path d="M26.6596 4.72481V3.93428H25.9159V4.72481H26.6596Z" fill="#272727"/>
<path d="M27.4776 5.51534V4.72481H26.6596V5.51534H27.4776Z" fill="#272727"/>
<path d="M28.2398 6.30588V5.51534H27.4776V6.30588H28.2398Z" fill="#272727"/>
<path d="M29.0578 7.05964V6.30588H28.2398V7.05964H29.0578Z" fill="#272727"/>
<path d="M29.8386 8.69586V7.05964H29.0578V8.69586H29.8386Z" fill="#272727"/>
<path d="M30.6194 10.2218V8.69586H29.8386V10.2218H30.6194Z" fill="#272727"/>
<path d="M30.6194 21.2616H31.4375V10.2218H30.6194V12.6669V18.0536V19.6714V21.2616Z" fill="#272727"/>
<path d="M30.6194 21.2616H29.8386V22.0062V22.7967H30.6194V21.2616Z" fill="#272727"/>
<path d="M29.0764 24.3594H29.8386V22.7967H29.0764V24.3594Z" fill="#272727"/>
<path d="M28.2584 25.1132H29.0764V24.3594H28.2584V25.1132Z" fill="#272727"/>
<path d="M27.4776 25.9221H28.2584V25.1132H27.4776V25.9221Z" fill="#272727"/>
<path d="M26.6596 26.7126H27.4776V25.9221H26.6596V26.7126Z" fill="#272727"/>
<path d="M25.8973 27.4848H26.6596V26.731H25.8973V27.4848Z" fill="#272727"/>
<path d="M25.0979 28.2569H25.8973V27.4848H25.0979V28.2569Z" fill="#272727"/>
<path d="M24.3357 29.0842H25.0979V28.2569H24.3357V29.0842Z" fill="#272727"/>
<path d="M22.709 29.8564H24.3357V29.0842H23.5223H22.709V29.8564Z" fill="#272727"/>
<path d="M20.3572 30.6837H22.709V29.8564H21.5331H20.3572V30.6837Z" fill="#272727"/>
<path d="M19.502 29.0842V29.8564H20.3572V29.0842H19.502Z" fill="#868686"/>
<path d="M11.9169 29.8564V29.0842H11.0803V29.8564H11.9169Z" fill="#868686"/>
<path d="M21.9188 29.0842H21.0637H20.3572V29.8564H21.5331H22.709V29.0842H21.9188Z" fill="#515151"/>
<path d="M10.3552 29.0842H9.51861H8.75638V29.8564H11.0803V29.0842H10.3552Z" fill="#515151"/>
<path d="M21.9188 26.7126V25.9221H20.3386H19.4648V26.7126H21.0637H21.9188Z" fill="#515151"/>
<path d="M21.9188 25.9221H22.7183V25.1132H23.4991V24.3594H22.709V25.1132H21.9188V25.9221Z" fill="#515151"/>
<path d="M23.4991 24.3594H24.3357V23.6241H23.4991V24.3594Z" fill="#515151"/>
<path d="M24.3357 23.6241H25.0979V22.8703H24.3357V23.6241Z" fill="#515151"/>
<path d="M25.0979 22.8703H25.8973V22.043H25.0979V22.8703Z" fill="#515151"/>
<path d="M25.8973 22.043H26.6596V21.2616V20.4803H25.8973V21.2708V22.043Z" fill="#515151"/>
<path d="M26.6596 20.4803H27.4776V19.6714V18.8625H26.6596V19.6346V20.4803Z" fill="#515151"/>
<path d="M9.51861 25.9221V26.731H11.0803H11.9726V25.9221H11.0431H9.51861Z" fill="#868686"/>
<path d="M8.75638 25.1316V25.9221H9.51861V25.1316H8.75638Z" fill="#868686"/>
<path d="M7.95697 24.3962V25.1316H8.75638V24.3962H7.95697Z" fill="#868686"/>
<path d="M7.12037 23.6057V24.3962H7.95697V23.6057H7.12037Z" fill="#868686"/>
<path d="M6.37673 22.8519V23.6057H7.12037V22.8519H6.37673Z" fill="#868686"/>
<path d="M5.5959 22.0246V22.8519H6.37673V22.0246H5.5959Z" fill="#868686"/>
<path d="M4.7779 22.0246H5.5959V21.2708V20.4803H4.7779V21.2708V22.0246Z" fill="#868686"/>
<path d="M3.97848 18.936V20.4803H4.7779V19.6346V18.936H3.97848Z" fill="#868686"/>
<path d="M3.9413 11.0675H3.16048V18.936H3.97848V16.6196H3.9413V12.6853V11.0675Z" fill="#868686"/>
<path d="M27.4776 18.8625H28.2398V17.6491V11.8028V11.0123H27.4776V12.6669V16.5276V18.8625Z" fill="#515151"/>
<path d="M27.4776 9.43124H26.6596V10.2585V11.0123H27.4776V10.2218V9.43124Z" fill="#515151"/>
<path d="M26.6596 7.86856H25.8787V8.69586V9.43124H26.6596V8.6499V7.86856Z" fill="#868686"/>
<path d="M25.8787 7.86856V7.05964H25.0793V7.86856H25.8787Z" fill="#868686"/>
<path d="M25.0793 7.05964V6.30588H24.3171V7.05964H25.0793Z" fill="#868686"/>
<path d="M24.3171 6.30588V5.51534H23.4991V6.30588H24.3171Z" fill="#868686"/>
<path d="M23.4991 5.51534V4.72481H21.9374V5.51534H22.6997H23.4991Z" fill="#868686"/>
<path d="M21.9374 4.72481V3.91589H20.3386V3.93428V4.72481H21.9374Z" fill="#868686"/>
<path d="M20.32 3.91589V3.16213H11.0431V3.93428H20.3386V3.91589H20.32Z" fill="#868686"/>
<path d="M11.0431 3.93428H9.57439V4.74319H11.0431V4.72481V3.93428Z" fill="#868686"/>
<path d="M9.57439 4.74319H7.93838V5.51534H8.7192H9.57439V4.74319Z" fill="#868686"/>
<path d="M7.93838 5.51534H7.13896V6.32426H7.93838V5.51534Z" fill="#868686"/>
<path d="M7.13896 6.32426H6.33955V7.13318H7.13896V6.32426Z" fill="#868686"/>
<path d="M6.33955 7.13318H5.55872V7.86856H6.33955V7.13318Z" fill="#868686"/>
<path d="M5.55872 7.86856H4.75931V9.43124H5.55872V8.67747V7.86856Z" fill="#868686"/>
<path d="M4.75931 9.43124H3.9413V11.0675H4.75931V10.2402V9.43124Z" fill="#868686"/>
<path d="M26.6596 18.8625H27.4776V16.5276H26.6596V18.8625Z" fill="#CECECE"/>
<path d="M25.8973 20.4803H26.6596V19.6346H25.8973V20.4803Z" fill="#CECECE"/>
<path d="M25.0979 22.043H25.8973V21.2708H25.0979V22.043Z" fill="#CECECE"/>
<path d="M21.9188 24.3594V25.1132H22.709V24.3594H21.9188Z" fill="#CECECE"/>
<path d="M20.3386 25.1132V25.9221H21.9188V25.1132H20.3386Z" fill="#CECECE"/>
<path d="M11.0431 25.1316H9.51861V25.9221H11.0431V25.1316Z" fill="#CECECE"/>
<path d="M9.51861 25.1316V24.3962H8.75638V25.1316H9.51861Z" fill="#CECECE"/>
<path d="M5.5959 21.2708V22.0246H6.37673V21.2708H5.5959Z" fill="#CECECE"/>
<path d="M5.5959 19.6346H4.7779V20.4803H5.5959V19.6346Z" fill="#CECECE"/>
<path d="M4.7779 16.6196H3.97848V18.936H4.7779V16.6196Z" fill="#CECECE"/>
<path d="M3.9413 12.6853H4.75931V11.0675H3.9413V12.6853Z" fill="#CECECE"/>
<path d="M4.75931 10.2402H5.55872V9.43124H4.75931V10.2402Z" fill="#CECECE"/>
<path d="M6.33955 8.67747V7.86856H5.55872V8.67747H6.33955Z" fill="#CECECE"/>
<path d="M7.13896 7.86856V7.13318H6.33955V7.86856H7.13896Z" fill="#CECECE"/>
<path d="M7.93838 7.13318V6.32426H7.13896V7.13318H7.93838Z" fill="#CECECE"/>
<path d="M8.7192 6.32426V5.51534H7.93838V6.32426H8.7192Z" fill="#CECECE"/>
<path d="M9.57439 5.51534H11.0431V4.74319H9.57439V5.51534Z" fill="#CECECE"/>
<path d="M11.0431 4.72481H20.3386V3.93428H11.0431V4.72481Z" fill="#CECECE"/>
<path d="M20.3386 4.72481V5.51534H21.9374V4.72481H20.3386Z" fill="#CECECE"/>
<path d="M22.6997 6.30588H23.4991V5.51534H22.6997V6.30588Z" fill="#CECECE"/>
<path d="M23.4991 7.05964H24.3171V6.30588H23.4991V7.05964Z" fill="#CECECE"/>
<path d="M25.0793 7.86856V7.05964H24.3171V7.86856H25.0793Z" fill="#CECECE"/>
<path d="M25.8787 8.69586V7.86856H25.0793V8.69586H25.8787Z" fill="#CECECE"/>
<path d="M26.6596 9.43124H25.8787V10.2585H26.6596V9.43124Z" fill="#CECECE"/>
<path d="M27.4776 12.6669V11.0123H26.6596V12.6669H27.4776Z" fill="#CECECE"/>
<path d="M11.9726 27.4848V26.731H11.0803V27.4848H11.9726Z" fill="#868686"/>
<path d="M25.0979 22.8703V23.6241H25.8973V22.8703H25.0979Z" fill="#868686"/>
<path d="M24.3357 23.6241V24.3594H25.0979V23.6241H24.3357Z" fill="#868686"/>
<path d="M23.4991 24.3594V25.1132H24.3357V24.3594H23.4991Z" fill="#868686"/>
<path d="M22.7183 25.1132V25.9221H23.4991V25.1132H22.7183Z" fill="#868686"/>
<path d="M21.9188 25.9221V26.7126H22.7183V25.9221H21.9188Z" fill="#868686"/>
<path d="M19.4648 26.731V27.4848H21.0637V26.7126H19.4648V26.731Z" fill="#868686"/>
<path d="M29.0578 11.8028H28.2398V17.6491H29.0578V11.8028Z" fill="#868686"/>
<path d="M28.2398 18.8625H27.4776V19.6714H28.2398V18.8625Z" fill="#868686"/>
<path d="M27.4776 20.4803H26.6596V21.2616H27.4776V20.4803Z" fill="#868686"/>
<path d="M25.8973 22.043V22.8703H26.6596V22.043H25.8973Z" fill="#868686"/>
<path d="M26.6596 22.043H27.4776V21.2616H26.6596V22.043Z" fill="#F2F2F2"/>
<path d="M27.4776 20.4803H28.2398V19.6714H27.4776V20.4803Z" fill="#F2F2F2"/>
<path d="M28.2398 18.8625H29.0578V17.6491H28.2398V18.8625Z" fill="#F2F2F2"/>
<path d="M26.6596 9.43124H27.4776V8.6499H26.6596V9.43124Z" fill="#868686"/>
<path d="M27.4776 11.0123H28.2398V10.2218H27.4776V11.0123Z" fill="#868686"/>
<path d="M4.7779 20.4803H3.97848V21.2708H4.7779V20.4803Z" fill="#CECECE"/>
<path d="M6.37673 22.8519H5.5959V23.6057H6.37673V22.8519Z" fill="#CECECE"/>
<path d="M7.12037 23.6057H6.37673V24.3962H7.12037V23.6057Z" fill="#CECECE"/>
<path d="M7.95697 24.3962H7.12037V25.1316H7.95697V24.3962Z" fill="#CECECE"/>
<path d="M8.75638 25.1316H7.95697V25.9221H8.75638V25.1316Z" fill="#CECECE"/>
<path d="M26.6596 25.9221H25.8973V26.731H26.6596V26.7126V25.9221Z" fill="#515151"/>
<path d="M25.8973 26.731H25.0979V27.4848H25.8973V26.731Z" fill="#515151"/>
<path d="M25.0979 28.2569V27.4848H24.3357V28.2569H25.0979Z" fill="#515151"/>
<path d="M24.3357 29.0842V28.2569H23.5223V29.0842H24.3357Z" fill="#515151"/>
<path d="M23.5223 28.2569H22.709V29.0842H23.5223V28.2569Z" fill="#515151"/>
<path d="M22.709 28.2569H21.9188C21.925 28.5266 21.9337 29.0695 21.9188 29.0842H22.709V28.2569Z" fill="#515151"/>
<path d="M21.0637 28.2569V29.0842H21.9188C21.9337 29.0695 21.925 28.5266 21.9188 28.2569H21.0637Z" fill="#CECECE"/>
<path d="M22.709 27.4848V28.2569H23.5223V27.4848H22.709Z" fill="#CECECE"/>
<path d="M24.3357 26.731V27.4848H25.0979V26.731H24.3357Z" fill="#CECECE"/>
<path d="M25.0979 25.9221V26.731H25.8973V25.9221H25.0979Z" fill="#CECECE"/>
<path d="M24.3357 28.2569V27.4848H23.5223V28.2569H24.3357Z" fill="#515151"/>
<path d="M0.836597 18.0536H1.63601V13.4207H0.836597V18.0536Z" fill="#CECECE"/>
<path d="M0.836597 13.4207H1.63601V11.0675H0.836597V13.4207Z" fill="#F2F2F2"/>
<path d="M1.63601 11.0675V10.2402H0.836597V11.0675H1.63601Z" fill="#868686"/>
<path d="M1.63601 10.2402H2.39824V9.48639H1.63601V10.2402Z" fill="#F2F2F2"/>
<path d="M2.39824 8.67747H1.63601V9.48639H2.39824V8.67747Z" fill="#868686"/>
<path d="M3.19766 8.67747V7.13318H2.39824V8.67747H3.19766Z" fill="#868686"/>
<path d="M4.7779 6.32426V5.51534H3.97848V6.32426H4.7779Z" fill="#F2F2F2"/>
<path d="M3.97848 7.13318V6.32426H3.19766V7.13318H3.97848Z" fill="#F2F2F2"/>
<path d="M6.33955 4.72481V3.93428H5.55872V4.72481H6.33955Z" fill="#868686"/>
<path d="M5.55872 5.51534V4.72481H4.7779V5.51534H5.55872Z" fill="#868686"/>
<path d="M7.13896 3.93428V3.16213H6.33955V3.93428H7.13896Z" fill="#F2F2F2"/>
<path d="M7.13896 2.40837V3.16213H7.92908V2.40837H7.13896Z" fill="#F2F2F2"/>
<path d="M8.7192 3.16213V2.40837H7.92908V3.16213H8.7192Z" fill="#868686"/>
<path d="M8.7192 1.59945V2.40837H10.2623V1.59945H8.7192Z" fill="#F2F2F2"/>
<path d="M11.0431 2.40837V1.59945H10.2623V2.40837H11.0431Z" fill="#868686"/>
<path d="M11.0431 0.808917V1.59945H12.5675V0.808917H11.0431Z" fill="#F2F2F2"/>
<path d="M12.5675 0.808917V1.59945H14.2593V0.808917H12.5675Z" fill="#868686"/>
<path d="M14.2593 0.808917V1.59945H18.0891V0.808917H14.2593Z" fill="#F2F2F2"/>
<path fill-rule="evenodd" clip-rule="evenodd" d="M22.6997 0.808917V1.59945H21.9374H20.3386V0.808917H22.6997Z" fill="#272727"/>
<path d="M18.0891 1.59945H20.3386V0.808917H18.0891V1.59945Z" fill="#868686"/>
<path d="M20.3386 1.59945V2.3716H21.9374V1.59945H20.3386Z" fill="#868686"/>
<path d="M21.9374 2.3716H22.6997V1.59945H21.9374V2.3716Z" fill="#CECECE"/>
<path d="M24.3171 3.16213V2.3716H23.5084V3.16213H24.3171Z" fill="#CECECE"/>
<path d="M24.3171 3.93428H25.0793V3.16213H24.3171V3.93428Z" fill="#CECECE"/>
<path d="M25.0793 4.72481H25.9159V3.93428H25.0793V4.72481Z" fill="#CECECE"/>
<path d="M25.9159 5.51534H26.6596V4.72481H25.9159V5.51534Z" fill="#CECECE"/>
<path d="M26.6596 6.30588H27.4776V5.51534H26.6596V6.30588Z" fill="#CECECE"/>
<path d="M22.6997 2.3716V3.16213H23.5084V2.3716H22.6997Z" fill="#868686"/>
<path d="M27.4776 7.05964H28.2398V6.30588H27.4776V7.05964Z" fill="#515151"/>
<path d="M28.2398 8.69586H29.0578V7.05964H28.2398V8.69586Z" fill="#515151"/>
<path d="M29.0578 10.2218H29.8386V8.69586H29.0578V10.2218Z" fill="#515151"/>
<path d="M30.6194 10.2218H29.8386V12.6669H30.6194V10.2218Z" fill="#515151"/>
<path d="M29.8386 18.0536H30.6194V12.6669H29.8386V18.0536Z" fill="#CECECE"/>
<path d="M29.8386 18.0536V19.6714H30.6194V18.0536H29.8386Z" fill="#515151"/>
<path d="M29.8386 19.6714V20.4803V21.2616H30.6194V19.6714H29.8386Z" fill="#515151"/>
<path d="M29.0549 22.0062V22.7967H29.0764H29.8386V22.0062H29.0549Z" fill="#515151"/>
<path d="M29.0549 20.4803C29.0528 21.2055 29.0549 22.0062 29.0549 22.0062H29.8386V21.2616V20.4803H29.0549Z" fill="#515151"/>
<path d="M29.8386 19.6714H29.0578C29.0568 19.8943 29.0558 20.1827 29.0549 20.4803H29.8386V19.6714Z" fill="#CECECE"/>
<path d="M28.2584 22.0062V22.7967H29.0549V22.0062H28.2584Z" fill="#CECECE"/>
<path d="M29.0549 22.7967H28.2584V23.5781V24.3594H29.0764V22.7967H29.0549Z" fill="#515151"/>
<path d="M28.2584 22.7967H27.4776V23.5781H28.2584V22.7967Z" fill="#CECECE"/>
<path d="M26.6596 24.3594V25.1132H27.4776V24.3594H26.6596Z" fill="#CECECE"/>
<path d="M25.8973 25.1132V25.9221H26.6596V25.1132H25.8973Z" fill="#CECECE"/>
<path d="M27.4776 24.3594H28.2584V23.5781H27.4776V24.3594Z" fill="#515151"/>
<path d="M27.4776 25.9221V25.1132H26.6596V25.9221H27.4776Z" fill="#515151"/>
<path d="M28.2584 25.1132V24.3594H27.4776V25.1132H28.2584Z" fill="#515151"/>
<path d="M0.836597 19.6162H1.63601V18.0536H0.836597V19.6162Z" fill="#CECECE"/>
<path d="M0.836597 21.2157H1.63601V20.4803V19.6162H0.836597V21.2157Z" fill="#515151"/>
<path d="M1.63601 22.8519H2.39824V22.0246V21.2157H1.63601V22.8519Z" fill="#515151"/>
<path d="M3.16048 24.3962V23.6057V22.8519H2.39824V24.3962H3.16048Z" fill="#515151"/>
<path d="M3.16048 25.1316H3.97848V24.3962H3.16048V25.1316Z" fill="#515151"/>
<path d="M3.97848 25.9221H4.7779V25.1316H3.97848V25.9221Z" fill="#515151"/>
<path d="M5.5959 26.731V25.9221H4.7779V26.731H5.5959Z" fill="#515151"/>
<path d="M5.5959 27.4848H6.37673V26.731H5.5959V27.4848Z" fill="#515151"/>
<path d="M7.95697 27.4848H7.12037H6.37673V28.2569H7.12037V29.0842H7.95697V28.2569V27.4848Z" fill="#515151"/>
<path d="M9.51861 28.2569H8.75638H7.95697V29.0842H8.75638H9.51861V28.2569Z" fill="#515151"/>
<path fill-rule="evenodd" clip-rule="evenodd" d="M27.4776 23.5781V24.3594H26.6596V25.1132H25.8973V25.9221H25.0979V26.731H24.3357V27.4848H23.5223H22.709V28.2569H21.9188H21.0637V29.0842H20.3572H19.502H11.9169H11.0803H10.3552V28.2569H9.51861H8.75638V27.4848H7.95697H7.12037V26.731H6.37673V25.9221H5.5959V25.1316H4.7779V24.3962H3.97848V23.6057H3.16048V22.8519V22.0246H2.39824V21.2157V20.4803H1.63601V19.6162V18.0536V13.4207V11.0675V10.2402H2.39824V9.48639V8.67747H3.19766V7.13318H3.97848V6.32426H4.7779V5.51534H5.55872V4.72481H6.33955V3.93428H7.13896V3.16213H7.92908H8.7192V2.40837H10.2623H11.0431V1.59945H12.5675H14.2593H18.0891H20.3386V2.3716H21.9374H22.6997V3.16213H23.5084H24.3171V3.93428H25.0793V4.72481H25.9159V5.51534H26.6596V6.30588H27.4776V7.05964H28.2398V8.69586H29.0578V10.2218H29.8386V12.6669V18.0536V19.6714H29.0578C29.0568 19.8943 29.0558 20.1827 29.0549 20.4803C29.0528 21.2055 29.0549 22.0062 29.0549 22.0062H28.2584V22.7967H27.4776V23.5781ZM7.41783 16.6196V19.7449V20.1126H7.80824V20.4803H8.19865V20.9215H8.94229V21.2708H9.77889V21.6937H10.5597V22.0981H11.3591V22.4658H12.1957V22.8703H13.0137V23.2747H13.7946V23.6241H14.6126V24.0469H15.3934V24.4514H17.866V24.0469H18.684V23.6241H19.4648V23.2747H20.2271V22.8703H21.1008V22.4658H21.9374V22.0981H22.7183V21.6937H23.4991V21.2708H23.9453V20.9215H24.3357V20.1126V16.9873H23.9453V16.5828H23.4991V16.2519H22.7183V15.8106H21.9374V15.3694H21.1566V15.0017H20.3014V14.5789H19.4834V14.2296H18.684V13.8251H17.866V13.3655H17.0666V12.6853H17.4198V12.2073H17.7916V11.8396V11.3984H18.2006V11.0123H18.6096V10.2402H19.0186V7.86856H18.6096V7.05964H18.2006V6.6368H17.7916V6.19557H17.0666V5.77273H14.1664V6.19557H13.3856V6.6368H13.0323V7.13318H12.5861V7.86856H12.14V10.2402H12.5861V11.0123H13.0323V11.3984H13.3856V11.8396V12.2073H14.2221V13.8251H13.3856V14.2296H12.5861V14.5789H11.3963V15.0017H10.5225V15.3694H9.74171V15.8106H8.62624V16.2519H7.8826V16.6196H7.41783ZM18.684 17.3733H18.2192V17.7594H17.866V18.1639H18.2192V17.7594H18.684V17.3733ZM14.9844 12.2073H15.3748V16.2519H14.9844V12.2073ZM19.4648 27.4848V28.2569H11.9726V27.4848H11.0803V26.731H9.51861V25.9221H8.75638H7.95697V25.1316H7.12037V24.3962H6.37673V23.6057H5.5959V22.8519V22.0246H4.7779V21.2708H3.97848V20.4803V18.936H3.16048V11.0675H3.9413V9.43124H4.75931V7.86856H5.55872V7.13318H6.33955V6.32426H7.13896V5.51534H7.93838V4.74319H9.57439V3.93428H11.0431V3.16213H20.32V3.91589H20.3386H21.9374V4.72481H23.4991V5.51534H24.3171V6.30588H25.0793V7.05964H25.8787V7.86856H26.6596V8.6499H27.4776V9.43124V10.2218H28.2398V11.0123V11.8028H29.0578V17.6491V18.8625H28.2398V19.6714V20.4803H27.4776V21.2616V22.043H26.6596V22.8703H25.8973V23.6241H25.0979V24.3594H24.3357V25.1132H23.4991V25.9221H22.7183V26.7126H21.9188H21.0637V27.4848H19.4648ZM6.37673 22.8519H7.12037V23.6057H7.95697V24.3962H8.75638H9.51861V25.1316H11.0431V25.9221H11.9726H19.4648H20.3386V25.1132H21.9188V24.3594H22.709H23.4991V23.6241H24.3357V22.8703H25.0979V22.043V21.2708H25.8973V20.4803V19.6346H26.6596V18.8625V16.5276H27.4776V12.6669H26.6596V11.0123V10.2585H25.8787V9.43124V8.69586H25.0793V7.86856H24.3171V7.05964H23.4991V6.30588H22.6997V5.51534H21.9374H20.3386V4.72481H11.0431V4.74319V5.51534H9.57439H8.7192V6.32426H7.93838V7.13318H7.13896V7.86856H6.33955V8.67747H5.55872V9.43124V10.2402H4.75931V11.0675V12.6853H3.9413V16.6196H3.97848H4.7779V18.936V19.6346H5.5959V20.4803V21.2708H6.37673V22.0246V22.8519Z" fill="#F2F2F2"/>
<path d="M2.39824 20.4803H1.63601V21.2157H2.39824V20.4803Z" fill="#CECECE"/>
<path d="M3.16048 22.0246H2.39824V22.8519H3.16048V22.0246Z" fill="#CECECE"/>
<path d="M3.97848 23.6057H3.16048V24.3962H3.97848V23.6057Z" fill="#CECECE"/>
<path d="M4.7779 24.3962H3.97848V25.1316H4.7779V24.3962Z" fill="#CECECE"/>
<path d="M5.5959 25.1316H4.7779V25.9221H5.5959V25.1316Z" fill="#CECECE"/>
<path d="M6.37673 25.9221H5.5959V26.731H6.37673V25.9221Z" fill="#CECECE"/>
<path d="M7.12037 26.731H6.37673V27.4848H7.12037V26.731Z" fill="#CECECE"/>
<path d="M8.75638 28.2569V27.4848H7.95697V28.2569H8.75638Z" fill="#CECECE"/>
<path d="M10.3552 29.0842V28.2569H9.51861V29.0842H10.3552Z" fill="#CECECE"/>
<path fill-rule="evenodd" clip-rule="evenodd" d="M16.1928 6.6368H16.6111V7.13318H16.1928V6.6368Z" fill="#D8D8D8"/>
<path d="M17.0294 7.13318V6.6368H16.6111V7.13318H17.0294Z" fill="#272727"/>
<path fill-rule="evenodd" clip-rule="evenodd" d="M9.68593 16.2519V16.6196V17.0056H10.0949H10.569V17.4285H11.0431H11.4242V17.7594H11.8053H12.1957V18.1639H12.5861H12.9858V18.5499H13.3856H13.7667V18.9728H14.1478H14.5661V19.3405H14.9844H15.398V19.7449H15.8117V20.1126H16.6204V19.7449H17.4198V19.3405H18.2378V18.9728H19.0558V18.5499H19.8552V18.1639H20.6918V17.7594H21.5098V17.3733H22.2907V17.0056H22.7183V16.6196H21.9374V16.2519H21.1566V15.8106H20.3014V15.4062H19.4834V15.0017H18.684V14.5789H17.866V14.1744H17.048V15.3694H17.4384V15.8106H18.2192V16.2519H18.684V17.3733V17.7594H18.2192V18.1639H17.866H17.048V18.5499H14.2221V18.1639H13.4227V17.7594H13.0323V17.3733H12.6419V16.2519H13.0323V15.8106H13.776V15.3694H14.2221V14.5789H13.3856V15.0017H12.5861V15.3694H11.4149V15.8106H10.5597V16.2519H9.68593Z" fill="#F2F2F2"/>
<path d="M14.9844 19.3405V19.7449H15.398V19.3405H14.9844Z" fill="#F2F2F2"/>
<path d="M14.1478 18.9728V19.3405H14.5661V18.9728H14.1478Z" fill="#F2F2F2"/>
<path d="M13.3856 18.5499V18.9728H13.7667V18.5499H13.3856Z" fill="#F2F2F2"/>
<path d="M12.5861 18.1639V18.5499H12.9858V18.1639H12.5861Z" fill="#F2F2F2"/>
<path d="M11.8053 17.7594V18.1639H12.1957V17.7594H11.8053Z" fill="#F2F2F2"/>
<path d="M11.0431 17.4285V17.7594H11.4242V17.4285H11.0431Z" fill="#F2F2F2"/>
<path d="M10.0949 17.0056V17.4285H10.569V17.0056H10.0949Z" fill="#F2F2F2"/>
<path d="M9.68593 16.6196H9.35129V17.0056H9.68593V16.6196Z" fill="#F2F2F2"/>
<path fill-rule="evenodd" clip-rule="evenodd" d="M17.4198 7.13318V7.50087V9.02678H17.0294V9.83569H16.1928V10.5343H13.776H13.3856V9.83569H15.412V9.43124H16.1928V9.02678H16.6018V8.27301H17.0294V7.13318H17.4198Z" fill="#868686"/>
<path d="M14.5568 11.3984H16.6018V11.0123H17.4198V10.5343H17.8288V9.83569H18.2006V8.27301H17.8288V7.50087H17.4198V9.02678H17.0294V9.83569H16.1928V10.5343H13.776V11.0123H14.5568V11.3984Z" fill="#515151"/>
<g filter="url(#filter0_dii_17_345)">
<path d="M35.5759 14.8948V4.51075H37.6079V8.62275H38.3919V7.24675H40.4399V8.62275H41.2239V4.51075H43.2719V14.8948H41.2239V10.7827H37.6079V14.8948H35.5759ZM46.0165 14.8948V12.7188H47.4245V6.70275H46.0165V4.51075H50.8805V6.70275H49.4565V12.7188H50.8805V14.8948H46.0165ZM53.629 14.8948V4.51075H58.493V5.88675H59.901V7.24675H61.325V12.1587H59.901V13.5347H58.493V14.8948H53.629ZM55.661 12.7188H57.869V11.3427H59.277V8.06275H57.869V6.70275H55.661V12.7188ZM64.0696 14.8948V4.51075H68.9336V5.88675H70.3416V7.24675H71.7656V12.1587H70.3416V13.5347H68.9336V14.8948H64.0696ZM66.1016 12.7188H68.3096V11.3427H69.7176V8.06275H68.3096V6.70275H66.1016V12.7188ZM75.9182 14.8948V13.5347H74.5102V5.88675H75.9182V4.51075H80.7822V5.88675H82.2062V8.06275H80.1582V6.70275H76.5422V8.62275H79.3742V10.7827H76.5422V12.7188H80.1582V11.3427H82.2062V13.5347H80.7822V14.8948H75.9182ZM84.9509 14.8948V4.51075H86.9829V5.88675H88.3909V7.24675H89.8149V11.3427H90.5989V4.51075H92.6469V14.8948H90.5989V13.5347H89.1909V12.1587H87.7669V8.06275H86.9829V14.8948H84.9509ZM38.3919 26.8948V18.7027H37.6079V20.0627H35.5759V17.8867H36.9839V16.5107H41.8479V17.8867H43.2719V20.0627H41.2239V18.7027H40.4399V26.8948H38.3919ZM45.3759 26.8948V17.8867H46.7839V16.5107H51.6479V17.8867H53.0719V22.7827H51.6479V24.1587H50.9599V24.7188H52.3519V26.8948H50.3359V25.5347H48.8959V24.1587H47.4079V26.8948H45.3759ZM47.4079 21.9667H51.0239V18.7027H47.4079V21.9667ZM57.2245 26.8948V25.5347H55.8165V17.8867H57.2245V16.5107H62.0885V17.8867H63.5125V20.0627H61.4645V18.7027H57.8485V20.6227H60.6805V22.7827H57.8485V24.7188H61.4645V23.3427H63.5125V25.5347H62.0885V26.8948H57.2245ZM66.2571 26.8948V19.2467H67.6651V17.8867H69.0731V16.5107H71.1211V17.8867H72.5291V19.2467H73.9531V26.8948H71.9051V24.1587H68.2891V26.8948H66.2571ZM68.2891 21.9667H71.9051V20.0627H70.4971V18.7027H69.6971V20.0627H68.2891V21.9667ZM78.1057 26.8948V25.5347H76.6977V23.3427H78.7297V24.7188H82.3457V22.7827H78.1057V21.4227H76.6977V17.8867H78.1057V16.5107H82.9697V17.8867H84.3937V20.0627H82.3457V18.7027H78.7297V20.6227H82.9697V21.9667H84.3937V25.5347H82.9697V26.8948H78.1057ZM88.5464 26.8948V25.5347H87.1384V16.5107H89.1704V24.7188H92.7864V16.5107H94.8344V25.5347H93.4104V26.8948H88.5464ZM97.579 26.8948V17.8867H98.987V16.5107H103.851V17.8867H105.275V22.7827H103.851V24.1587H103.163V24.7188H104.555V26.8948H102.539V25.5347H101.099V24.1587H99.611V26.8948H97.579ZM99.611 21.9667H103.227V18.7027H99.611V21.9667ZM109.428 26.8948V25.5347H108.02V17.8867H109.428V16.5107H114.292V17.8867H115.716V20.0627H113.668V18.7027H110.052V20.6227H112.884V22.7827H110.052V24.7188H113.668V23.3427H115.716V25.5347H114.292V26.8948H109.428Z" fill="#E8E8E8"/>
</g>
<defs>
<filter id="filter0_dii_17_345" x="35.5758" y="4.51074" width="80.6979" height="22.9886" filterUnits="userSpaceOnUse" color-interpolation-filters="sRGB">
<feFlood flood-opacity="0" result="BackgroundImageFix"/>
<feColorMatrix in="SourceAlpha" type="matrix" values="0 0 0 0 0 0 0 0 0 0 0 0 0 0 0 0 0 0 127 0" result="hardAlpha"/>
<feOffset dx="0.558085" dy="0.604593"/>
<feComposite in2="hardAlpha" operator="out"/>
<feColorMatrix type="matrix" values="0 0 0 0 0.235577 0 0 0 0 0.235577 0 0 0 0 0.235577 0 0 0 1 0"/>
<feBlend mode="normal" in2="BackgroundImageFix" result="effect1_dropShadow_17_345"/>
<feBlend mode="normal" in="SourceGraphic" in2="effect1_dropShadow_17_345" result="shape"/>
<feColorMatrix in="SourceAlpha" type="matrix" values="0 0 0 0 0 0 0 0 0 0 0 0 0 0 0 0 0 0 127 0" result="hardAlpha"/>
<feOffset dx="0.465071" dy="0.279043"/>
<feComposite in2="hardAlpha" operator="arithmetic" k2="-1" k3="1"/>
<feColorMatrix type="matrix" values="0 0 0 0 1 0 0 0 0 1 0 0 0 0 1 0 0 0 1 0"/>
<feBlend mode="normal" in2="shape" result="effect2_innerShadow_17_345"/>
<feColorMatrix in="SourceAlpha" type="matrix" values="0 0 0 0 0 0 0 0 0 0 0 0 0 0 0 0 0 0 127 0" result="hardAlpha"/>
<feOffset dx="-0.465071" dy="-0.372057"/>
<feComposite in2="hardAlpha" operator="arithmetic" k2="-1" k3="1"/>
<feColorMatrix type="matrix" values="0 0 0 0 0.754808 0 0 0 0 0.754808 0 0 0 0 0.754808 0 0 0 1 0"/>
<feBlend mode="normal" in2="effect2_innerShadow_17_345" result="effect3_innerShadow_17_345"/>
</filter>
</defs>
</svg>
