<svg width="592" height="240" viewBox="0 0 592 240" fill="none" xmlns="http://www.w3.org/2000/svg">
<path d="M107.557 51.3221V54.5367H117.309V60.6864H113.776V63.7613H110.666V66.8361H104.73V60.6864H107.557V54.5367H104.73V57.8911H101.762V63.7613H98.7942V72.5665H101.762V75.6414H117.168V72.5665H123.104V69.4917H126.213V63.7613H129.464V55.0958H126.284H123.104V51.3221H107.557Z" fill="#DD4919"/>
<path d="M104.73 60.6864V66.8361H110.666V63.7613H113.776V60.6864H117.309V54.5367H107.557V60.6864H104.73Z" fill="#E5A948"/>
<path fill-rule="evenodd" clip-rule="evenodd" d="M56.3933 150.975H59.3613V153.771H62.3294V156.566H67.9828V159.92H74.343V162.576H80.2791V165.791H86.3566V168.865H92.7167V171.661H98.9355V174.736H104.872V177.81H111.09V180.466H117.027V183.681H126.355V180.466H132.432V177.81H138.651V174.736H144.87V171.661H150.947V168.865H157.307V165.791H163.526V162.576H169.462V159.92H175.681V156.566H182.041V153.771H185.009V130.01H182.041V126.936H178.649V124.42H172.713V121.065H166.777V117.711H160.841V114.916H154.339V111.701H148.121V109.045H142.043V105.971H135.824V102.476H129.747V97.3051V90.8759H135.259V87.5215H138.368V84.5864H141.478V78.7162H144.587V60.6864H141.478V54.5367H138.368V51.3221H135.259V47.9677H129.747V44.7531H107.698V47.9677H101.762V51.3221H99.0769V55.0958H95.6848V60.6864H92.2927V78.7162H95.6848V84.5864H99.0769V87.5215H101.762V90.8759H108.122V93.6712V105.971H101.762V109.045H95.6848V111.701H86.6393V114.916H79.9965V117.711H74.0603V121.065H65.5801V124.42H59.9267V127.215H56.3933V150.975ZM62.3294 147.9V130.01H64.8734V127.215H71.0922H73.6363V124.42H80.2791V121.065H86.7806V117.711H95.6848V114.916H101.762V111.701H108.122V117.711H104.73V121.065H107.84V127.914H110.808V130.569H116.885H126.213V127.355H129.606V121.065H132.574V117.711H129.606V108.626H135.824V111.701H142.043V114.916H148.121V117.99H154.339V121.065H160.841V124.42H166.777V127.215H172.713V130.15H175.681V132.945H178.649V151.115H173.279V153.771H166.636V156.985H160.417V159.92H154.198V162.576H147.979V165.791H142.043V168.865H135.824V171.661H129.606V174.736H120.207H117.027H113.917V171.661H110.808H107.557V168.865H104.73H101.621V165.791H98.9355H95.8261V162.576H92.2927H89.3247V159.92H86.3566H83.9539V156.566H80.2791H77.3111V153.771H74.0603H71.0922V150.975H67.9828H65.1561V147.9H62.3294ZM113.917 124.42V93.6712H116.885H120.207H123.528V124.42H120.207H116.885H113.917ZM126.213 87.5215H110.666V84.5864H104.73V80.9525H101.762V75.6414H98.7942V72.5665V63.7613H101.762V57.8911H104.73V54.5367H107.557V51.3221H123.104H126.284H129.464V55.0958H132.432V57.8911H135.542V63.7613H138.368V75.6414H135.542V80.9525H132.432V84.5864H126.213V87.5215Z" fill="#572A0D"/>
<path d="M123.528 124.42V93.6712H120.207V124.42H123.528Z" fill="#804A11"/>
<path d="M116.885 93.6712V124.42H120.207V93.6712H116.885Z" fill="#D08D16"/>
<path d="M98.7942 75.6414H101.762V72.5665H98.7942V75.6414Z" fill="#B82715"/>
<path d="M108.122 90.8759H101.762V93.6712H108.122V90.8759Z" fill="#C68607"/>
<path d="M135.259 90.8759H129.747V97.3051H132.432V93.6712H135.259V90.8759Z" fill="#C68607"/>
<path d="M104.73 121.065H99.0769V124.42H96.1088V132.945H99.0769V135.881H102.045V138.955H108.122V141.891H129.606V138.955H135.824V135.881H138.51V132.945H142.043V124.42H138.51V121.065H132.574V124.42H135.824V130.15H132.574V133.365H129.606V135.881H120.207H107.84V133.365H101.762V130.15V127.914V124.42H104.73V121.065Z" fill="#572A0D"/>
<path d="M126.213 127.355V130.569H116.885V133.365H120.207V135.881H129.606V133.365H132.574V130.15H135.824V124.42H132.574V121.065H129.606V127.355H126.213Z" fill="#804912"/>
<path d="M107.84 121.065H104.73V124.42V127.914H101.762V130.15H107.84V133.365H116.885V130.569H110.808V127.914H107.84V121.065Z" fill="#C37F15"/>
<path d="M104.73 124.42H101.762V127.914H104.73V124.42Z" fill="#CC8A13"/>
<path d="M101.762 133.365H107.84V130.15H101.762V133.365Z" fill="#F6CA33"/>
<path d="M107.84 133.365V135.881H120.207V133.365H116.885H107.84Z" fill="#F6CA33"/>
<path d="M178.649 132.945H175.681H169.462V135.881H163.526V138.955H157.307V141.891H150.947V145.105H144.87V147.9H138.651V150.975H132.432V153.771H126.355V156.985H120.207V174.736H129.606V171.661H135.824V168.865H142.043V165.791H147.979V162.576H154.198V159.92H160.417V156.985H166.636V153.771H173.279V151.115H178.649V132.945Z" fill="#7E480F"/>
<path d="M62.3294 130.01V147.9H65.1561H67.9828V150.975H71.0922H74.0603V153.771H77.3111H80.2791V156.566H83.9539H86.3566V159.92H89.3247H92.2927V162.576H95.8261H98.9355V165.791H101.621H104.73V168.865H107.557H110.808V171.661H113.917H117.027V174.736H120.207V156.985H126.355V153.771H120.207H111.09V150.975H104.73V147.9H98.9355V145.105H92.2927V141.891H86.3566V138.955H79.9965V135.881H73.6363V132.945H67.9828V130.01H64.8734H62.3294Z" fill="#C5810E"/>
<path d="M175.681 130.15H172.713H169.462V132.945H175.681V130.15Z" fill="#BF7E04"/>
<path d="M163.526 132.945V135.881H169.462V132.945H163.526Z" fill="#BF7E04"/>
<path d="M157.307 135.881V138.955H163.526V135.881H157.307Z" fill="#BF7E04"/>
<path d="M150.947 138.955V141.891H157.307V138.955H150.947Z" fill="#BF7E04"/>
<path d="M144.87 141.891V145.105H150.947V141.891H144.87Z" fill="#BF7E04"/>
<path d="M138.651 145.105V147.9H144.87V145.105H138.651Z" fill="#BF7E04"/>
<path d="M132.432 147.9V150.975H138.651V147.9H132.432Z" fill="#BF7E04"/>
<path d="M126.355 150.975V153.771H132.432V150.975H126.355Z" fill="#BF7E04"/>
<path d="M64.8734 127.215V130.01H67.9828V132.945H73.6363V135.881H79.9965V138.955H86.3566V141.891H92.2927V145.105H98.9355V147.9H104.73V150.975H111.09V153.771H120.207V150.975H117.062H113.917V147.9H110.737H107.557V145.105H104.66H101.762V141.891H98.7235H95.6848V138.955H92.7167H89.7487V135.881H86.8513H83.9539V133.365H80.3498H76.7457V130.15H73.6363H71.0922V127.215H64.8734Z" fill="#F7EE7C"/>
<path d="M65.1561 147.9V150.975H67.9828V147.9H65.1561Z" fill="#7B450B"/>
<path d="M71.0922 150.975V153.771H74.0603V150.975H71.0922Z" fill="#7B450B"/>
<path d="M77.3111 153.771V156.566H80.2791V153.771H77.3111Z" fill="#7B450B"/>
<path d="M83.9539 156.566V159.92H86.3566V156.566H83.9539Z" fill="#7B450B"/>
<path d="M89.3247 159.92V162.576H92.2927V159.92H89.3247Z" fill="#7B450B"/>
<path d="M95.8261 162.576V165.791H98.9355V162.576H95.8261Z" fill="#7B450B"/>
<path d="M101.621 165.791V168.865H104.73V165.791H101.621Z" fill="#7B450B"/>
<path d="M107.557 168.865V171.661H110.808V168.865H107.557Z" fill="#7B450B"/>
<path d="M113.917 171.661V174.736H117.027V171.661H113.917Z" fill="#7B450B"/>
<path d="M126.355 183.681H117.027V186.755H135.824V183.681H142.043V180.466H147.979V177.81H153.774V174.736H160.417V171.661H166.777V168.865H172.713V165.791H178.649V162.576H182.041V159.92H185.009V153.771H182.041V156.566H175.681V159.92H169.462V162.576H163.526V165.791H157.307V168.865H150.947V171.661H144.87V174.736H138.651V177.81H132.432V180.466H126.355V183.681Z" fill="#C78410"/>
<path d="M59.3613 150.975H56.3933V153.771H59.3613V150.975Z" fill="#C78410"/>
<path d="M62.3294 153.771H59.3613V156.566H62.3294V153.771Z" fill="#C78410"/>
<path d="M67.9828 156.566H62.3294V159.92H67.9828V156.566Z" fill="#C78410"/>
<path d="M74.343 159.92H67.9828V162.576H74.343V159.92Z" fill="#C78410"/>
<path d="M80.2791 162.576H74.343V165.791H80.2791V162.576Z" fill="#C78410"/>
<path d="M86.3566 165.791H80.2791V168.865H86.3566V165.791Z" fill="#C78410"/>
<path d="M92.7167 168.865H86.3566V171.661H92.7167V168.865Z" fill="#C78410"/>
<path d="M98.9355 171.661H92.7167V174.736H98.9355V171.661Z" fill="#C78410"/>
<path d="M104.872 174.736H98.9355V177.81H104.872V174.736Z" fill="#C78410"/>
<path d="M111.09 177.81H104.872V180.466H111.09V177.81Z" fill="#C78410"/>
<path d="M117.027 180.466H111.09V183.681H117.027V180.466Z" fill="#C78410"/>
<path d="M147.979 203.947V197.937H91.0207V204.086H147.979V203.947Z" fill="#D18E11"/>
<path d="M91.0207 209.817H147.979V204.086H91.0207V209.817Z" fill="#79470D"/>
<path d="M147.979 209.817H91.0207V215.687H147.979V209.817Z" fill="#F8D835"/>
<path d="M148.262 227.847V221.976H90.5967V227.847H148.262Z" fill="#D18E11"/>
<path d="M154.763 234.136V227.847H148.262H90.5967H84.2365V234.136H154.763Z" fill="#60340B"/>
<path d="M84.2365 234.136V239.867H154.763V234.136H84.2365Z" fill="#472009"/>
<path d="M66.5695 227.847V234.136H84.2365V227.847H66.5695Z" fill="#472009"/>
<path d="M54.1319 221.976V227.847H66.5695V221.976H60.492H54.1319Z" fill="#472009"/>
<path d="M48.4784 215.687V221.976H54.1319V215.687H48.4784Z" fill="#472009"/>
<path d="M42.5423 209.817V215.687H48.4784V209.817H42.5423Z" fill="#472009"/>
<path d="M36.3235 204.086V209.817H42.5423V204.086H36.3235Z" fill="#472009"/>
<path d="M30.246 197.937V204.086H36.3235V197.937H30.246Z" fill="#472009"/>
<path d="M24.0272 191.927V197.937H30.246V191.927H24.0272Z" fill="#472009"/>
<path d="M18.2324 186.336V191.927H24.0272V186.336H18.2324Z" fill="#472009"/>
<path d="M12.4376 174.596V186.336H18.2324V174.596H12.4376Z" fill="#472009"/>
<path d="M6.36014 162.157V174.596H12.4376V162.157H6.36014Z" fill="#472009"/>
<path d="M6.36014 78.7162H0V162.157H6.36014V149.997V138.117V102.896V85.0057V78.7162Z" fill="#472009"/>
<path d="M12.4376 66.8361H6.36014V78.7162H12.4376V72.9858V66.8361Z" fill="#472009"/>
<path d="M18.2324 55.0958H12.4376V66.8361H18.2324V55.0958Z" fill="#472009"/>
<path d="M24.3099 48.946H18.2324V55.0958H24.3099V48.946Z" fill="#472009"/>
<path d="M30.246 42.7963H24.3099V48.946H30.246V42.7963Z" fill="#472009"/>
<path d="M36.3235 36.7864H30.246V42.7963H36.3235V36.7864Z" fill="#472009"/>
<path d="M42.2596 30.7765H36.3235V36.7864H42.2596V30.7765Z" fill="#472009"/>
<path d="M48.1957 24.9063H42.2596V30.7765H48.1957V24.9063Z" fill="#472009"/>
<path d="M54.2732 19.1759H48.1957V24.9063H54.2732V19.1759Z" fill="#472009"/>
<path d="M66.2868 13.0262H54.2732V19.1759H60.28H66.2868V13.0262Z" fill="#472009"/>
<path d="M83.9539 7.01622H66.2868V13.0262H78.0177H83.9539V7.01622Z" fill="#472009"/>
<path d="M154.622 7.01622V0.866516H83.9539V7.01622H95.5435H108.405H137.52H154.622Z" fill="#472009"/>
<path d="M184.868 18.8963V13.0262H172.572V18.8963H178.72H184.868Z" fill="#472009"/>
<path d="M190.663 24.9063V18.8963H184.868V24.9063H190.663Z" fill="#472009"/>
<path d="M197.023 30.7765V24.9063H190.663V30.7765H197.023Z" fill="#472009"/>
<path d="M202.677 36.7864V30.7765H197.023V36.7864H202.677Z" fill="#472009"/>
<path d="M208.895 42.7963V36.7864H202.677V42.7963H208.895Z" fill="#472009"/>
<path d="M214.69 48.8063V42.7963H208.895V48.8063H214.69Z" fill="#472009"/>
<path d="M220.909 54.5367V48.8063H214.69V54.5367H220.909Z" fill="#472009"/>
<path d="M226.845 66.9759V54.5367H220.909V66.9759H226.845Z" fill="#472009"/>
<path d="M232.781 78.5765V66.9759H226.845V78.5765H232.781Z" fill="#472009"/>
<path d="M232.781 162.506H239V78.5765H232.781V97.1654V138.117V150.416V162.506Z" fill="#472009"/>
<path d="M232.781 162.506H226.845V168.167V174.176H232.781V162.506Z" fill="#472009"/>
<path d="M221.05 186.057H226.845V174.176H221.05V186.057Z" fill="#472009"/>
<path d="M214.831 191.787H221.05V186.057H214.831V191.787Z" fill="#472009"/>
<path d="M208.895 197.937H214.831V191.787H208.895V197.937Z" fill="#472009"/>
<path d="M202.677 203.947H208.895V197.937H202.677V203.947Z" fill="#472009"/>
<path d="M196.882 209.817H202.677V204.086H196.882V209.817Z" fill="#472009"/>
<path d="M190.804 215.687H196.882V209.817H190.804V215.687Z" fill="#472009"/>
<path d="M185.009 221.976H190.804V215.687H185.009V221.976Z" fill="#472009"/>
<path d="M172.643 227.847H185.009V221.976H178.826H172.643V227.847Z" fill="#472009"/>
<path d="M154.763 234.136H172.643V227.847H163.703H154.763V234.136Z" fill="#472009"/>
<path d="M148.262 221.976V227.847H154.763V221.976H148.262Z" fill="#844B0D"/>
<path d="M90.5967 227.847V221.976H84.2365V227.847H90.5967Z" fill="#844B0D"/>
<path d="M166.636 221.976H160.134H154.763V227.847H163.703H172.643V221.976H166.636Z" fill="#713E0C"/>
<path d="M78.7244 221.976H72.3643H66.5695V227.847H84.2365V221.976H78.7244Z" fill="#713E0C"/>
<path d="M166.636 203.947V197.937H154.622H147.979V203.947H160.134H166.636Z" fill="#79470D"/>
<path d="M166.636 197.937H172.713V191.787H178.649V186.057H172.643V191.787H166.636V197.937Z" fill="#79470D"/>
<path d="M178.649 186.057H185.009V180.466H178.649V186.057Z" fill="#79470D"/>
<path d="M185.009 180.466H190.804V174.736H185.009V180.466Z" fill="#79470D"/>
<path d="M190.804 174.736H196.882V168.446H190.804V174.736Z" fill="#79470D"/>
<path d="M196.882 168.446H202.677V162.506V156.566H196.882V162.576V168.446Z" fill="#79470D"/>
<path d="M202.677 156.566H208.895V150.416V144.267H202.677V150.137V156.566Z" fill="#79470D"/>
<path d="M72.3643 197.937V204.086H84.2365H91.0207V197.937H83.9539H72.3643Z" fill="#79470D"/>
<path d="M66.5695 191.927V197.937H72.3643V191.927H66.5695Z" fill="#79470D"/>
<path d="M60.492 186.336V191.927H66.5695V186.336H60.492Z" fill="#79470D"/>
<path d="M54.1319 180.326V186.336H60.492V180.326H54.1319Z" fill="#79470D"/>
<path d="M48.4784 174.596V180.326H54.1319V174.596H48.4784Z" fill="#79470D"/>
<path d="M42.5423 168.306V174.596H48.4784V168.306H42.5423Z" fill="#79470D"/>
<path d="M36.3235 168.306H42.5423V162.576V156.566H36.3235V162.576V168.306Z" fill="#79470D"/>
<path d="M30.246 144.826V156.566H36.3235V150.137V144.826H30.246Z" fill="#79470D"/>
<path d="M29.9633 85.0057H24.0272V144.826H30.246V127.215H29.9633V97.3051V85.0057Z" fill="#79470D"/>
<path d="M208.895 144.267H214.69V135.042V90.5963V84.5864H208.895V97.1654V126.516V144.267Z" fill="#79470D"/>
<path d="M208.895 72.5665H202.677V78.856V84.5864H208.895V78.5765V72.5665Z" fill="#79470D"/>
<path d="M202.677 60.6864H196.74V66.9759V72.5665H202.677V66.6265V60.6864Z" fill="#79470D"/>
<path d="M196.74 60.6864V54.5367H190.663V60.6864H196.74Z" fill="#79470D"/>
<path d="M190.663 54.5367V48.8063H184.868V54.5367H190.663Z" fill="#79470D"/>
<path d="M184.868 48.8063V42.7963H178.649V48.8063H184.868Z" fill="#79470D"/>
<path d="M178.649 42.7963V36.7864H166.777V42.7963H172.572H178.649Z" fill="#79470D"/>
<path d="M166.777 36.7864V30.6367H154.622V30.7765V36.7864H166.777Z" fill="#79470D"/>
<path d="M154.481 30.6367V24.9063H83.9539V30.7765H154.622V30.6367H154.481Z" fill="#79470D"/>
<path d="M83.9539 30.7765H72.7883V36.9262H83.9539V36.7864V30.7765Z" fill="#79470D"/>
<path d="M72.7883 36.9262H60.3507V42.7963H66.2868H72.7883V36.9262Z" fill="#79470D"/>
<path d="M60.3507 42.7963H54.2732V48.946H60.3507V42.7963Z" fill="#79470D"/>
<path d="M54.2732 48.946H48.1957V55.0958H54.2732V48.946Z" fill="#79470D"/>
<path d="M48.1957 55.0958H42.2596V60.6864H48.1957V55.0958Z" fill="#79470D"/>
<path d="M42.2596 60.6864H36.1821V72.5665H42.2596V66.8361V60.6864Z" fill="#79470D"/>
<path d="M36.1821 72.5665H29.9633V85.0057H36.1821V78.7162V72.5665Z" fill="#79470D"/>
<path d="M202.677 144.267H208.895V126.516H202.677V144.267Z" fill="#D18E11"/>
<path d="M196.882 156.566H202.677V150.137H196.882V156.566Z" fill="#D18E11"/>
<path d="M190.804 168.446H196.882V162.576H190.804V168.446Z" fill="#D18E11"/>
<path d="M166.636 186.057V191.787H172.643V186.057H166.636Z" fill="#D18E11"/>
<path d="M154.622 191.787V197.937H166.636V191.787H154.622Z" fill="#D18E11"/>
<path d="M83.9539 191.927H72.3643V197.937H83.9539V191.927Z" fill="#D18E11"/>
<path d="M72.3643 191.927V186.336H66.5695V191.927H72.3643Z" fill="#D18E11"/>
<path d="M42.5423 162.576V168.306H48.4784V162.576H42.5423Z" fill="#D18E11"/>
<path d="M42.5423 150.137H36.3235V156.566H42.5423V150.137Z" fill="#D18E11"/>
<path d="M36.3235 127.215H30.246V144.826H36.3235V127.215Z" fill="#D18E11"/>
<path d="M29.9633 97.3051H36.1821V85.0057H29.9633V97.3051Z" fill="#D18E11"/>
<path d="M36.1821 78.7162H42.2596V72.5665H36.1821V78.7162Z" fill="#D18E11"/>
<path d="M48.1957 66.8361V60.6864H42.2596V66.8361H48.1957Z" fill="#D18E11"/>
<path d="M54.2732 60.6864V55.0958H48.1957V60.6864H54.2732Z" fill="#D18E11"/>
<path d="M60.3507 55.0958V48.946H54.2732V55.0958H60.3507Z" fill="#D18E11"/>
<path d="M66.2868 48.946V42.7963H60.3507V48.946H66.2868Z" fill="#D18E11"/>
<path d="M72.7883 42.7963H83.9539V36.9262H72.7883V42.7963Z" fill="#D18E11"/>
<path d="M83.9539 36.7864H154.622V30.7765H83.9539V36.7864Z" fill="#D18E11"/>
<path d="M154.622 36.7864V42.7963H166.777V36.7864H154.622Z" fill="#D18E11"/>
<path d="M172.572 48.8063H178.649V42.7963H172.572V48.8063Z" fill="#D18E11"/>
<path d="M178.649 54.5367H184.868V48.8063H178.649V54.5367Z" fill="#D18E11"/>
<path d="M190.663 60.6864V54.5367H184.868V60.6864H190.663Z" fill="#D18E11"/>
<path d="M196.74 66.9759V60.6864H190.663V66.9759H196.74Z" fill="#D18E11"/>
<path d="M202.677 72.5665H196.74V78.856H202.677V72.5665Z" fill="#D18E11"/>
<path d="M208.895 97.1654V84.5864H202.677V97.1654H208.895Z" fill="#D18E11"/>
<path d="M91.0207 209.817V204.086H84.2365V209.817H91.0207Z" fill="#F8D835"/>
<path d="M190.804 174.736V180.466H196.882V174.736H190.804Z" fill="#F8D835"/>
<path d="M185.009 180.466V186.057H190.804V180.466H185.009Z" fill="#F8D835"/>
<path d="M178.649 186.057V191.787H185.009V186.057H178.649Z" fill="#F8D835"/>
<path d="M172.713 191.787V197.937H178.649V191.787H172.713Z" fill="#F8D835"/>
<path d="M166.636 197.937V203.947H172.713V197.937H166.636Z" fill="#F8D835"/>
<path d="M147.979 204.086V209.817H160.134V203.947H147.979V204.086Z" fill="#F8D835"/>
<path d="M220.909 90.5963H214.69V135.042H220.909V90.5963Z" fill="#F8D835"/>
<path d="M214.69 144.267H208.895V150.416H214.69V144.267Z" fill="#F8D835"/>
<path d="M208.895 156.566H202.677V162.506H208.895V156.566Z" fill="#F8D835"/>
<path d="M196.882 168.446V174.736H202.677V168.446H196.882Z" fill="#F8D835"/>
<path d="M202.677 168.446H208.895V162.506H202.677V168.446Z" fill="#FBE575"/>
<path d="M208.895 156.566H214.69V150.416H208.895V156.566Z" fill="#FBE575"/>
<path d="M214.69 144.267H220.909V135.042H214.69V144.267Z" fill="#FBE575"/>
<path d="M202.677 72.5665H208.895V66.6265H202.677V72.5665Z" fill="#F8D835"/>
<path d="M208.895 84.5864H214.69V78.5765H208.895V84.5864Z" fill="#F8D835"/>
<path d="M36.3235 156.566H30.246V162.576H36.3235V156.566Z" fill="#D18E11"/>
<path d="M48.4784 174.596H42.5423V180.326H48.4784V174.596Z" fill="#D18E11"/>
<path d="M54.1319 180.326H48.4784V186.336H54.1319V180.326Z" fill="#D18E11"/>
<path d="M60.492 186.336H54.1319V191.927H60.492V186.336Z" fill="#D18E11"/>
<path d="M66.5695 191.927H60.492V197.937H66.5695V191.927Z" fill="#D18E11"/>
<path d="M202.677 197.937H196.882V204.086H202.677V203.947V197.937Z" fill="#7D4A13"/>
<path d="M196.882 204.086H190.804V209.817H196.882V204.086Z" fill="#7D4A13"/>
<path d="M190.804 215.687V209.817H185.009V215.687H190.804Z" fill="#7D4A13"/>
<path d="M185.009 221.976V215.687H178.826V221.976H185.009Z" fill="#7D4A13"/>
<path d="M178.826 215.687H172.643V221.976H178.826V215.687Z" fill="#8B5314"/>
<path d="M172.643 215.687H166.636C166.683 217.737 166.749 221.865 166.636 221.976H172.643V215.687Z" fill="#89530F"/>
<path d="M160.134 215.687V221.976H166.636C166.749 221.865 166.683 217.737 166.636 215.687H160.134Z" fill="#CA880D"/>
<path d="M172.643 209.817V215.687H178.826V209.817H172.643Z" fill="#CA880D"/>
<path d="M185.009 204.086V209.817H190.804V204.086H185.009Z" fill="#CA880D"/>
<path d="M190.804 197.937V204.086H196.882V197.937H190.804Z" fill="#CA880D"/>
<path d="M185.009 215.687V209.817H178.826V215.687H185.009Z" fill="#8B5314"/>
<path d="M6.36014 138.117H12.4376V102.896H6.36014V138.117Z" fill="#F8D835"/>
<path d="M6.36014 102.896H12.4376V85.0057H6.36014V102.896Z" fill="#FBE575"/>
<path d="M12.4376 85.0057V78.7162H6.36014V85.0057H12.4376Z" fill="#F8D835"/>
<path d="M12.4376 78.7162H18.2324V72.9858H12.4376V78.7162Z" fill="#FBE575"/>
<path d="M18.2324 66.8361H12.4376V72.9858H18.2324V66.8361Z" fill="#F8D835"/>
<path d="M24.3099 66.8361V55.0958H18.2324V66.8361H24.3099Z" fill="#F8D835"/>
<path d="M36.3235 48.946V42.7963H30.246V48.946H36.3235Z" fill="#FBE575"/>
<path d="M30.246 55.0958V48.946H24.3099V55.0958H30.246Z" fill="#FBE575"/>
<path d="M48.1957 36.7864V30.7765H42.2596V36.7864H48.1957Z" fill="#F8D835"/>
<path d="M42.2596 42.7963V36.7864H36.3235V42.7963H42.2596Z" fill="#F8D835"/>
<path d="M54.2732 30.7765V24.9063H48.1957V30.7765H54.2732Z" fill="#FBE575"/>
<path d="M54.2732 19.1759V24.9063H60.28V19.1759H54.2732Z" fill="#FBE575"/>
<path d="M66.2868 24.9063V19.1759H60.28V24.9063H66.2868Z" fill="#F8D835"/>
<path d="M66.2868 13.0262V19.1759H78.0177V13.0262H66.2868Z" fill="#FBE575"/>
<path d="M83.9539 19.1759V13.0262H78.0177V19.1759H83.9539Z" fill="#F8D835"/>
<path d="M83.9539 7.01622V13.0262H95.5435V7.01622H83.9539Z" fill="#FBE575"/>
<path d="M95.5435 7.01622V13.0262H108.405V7.01622H95.5435Z" fill="#F8D835"/>
<path d="M108.405 7.01622V13.0262H137.52V7.01622H108.405Z" fill="#FBE575"/>
<path fill-rule="evenodd" clip-rule="evenodd" d="M172.572 7.01622V13.0262H166.777H154.622V7.01622H172.572Z" fill="#472009"/>
<path d="M137.52 13.0262H154.622V7.01622H137.52V13.0262Z" fill="#F8D835"/>
<path d="M154.622 13.0262V18.8963H166.777V13.0262H154.622Z" fill="#F8D835"/>
<path d="M166.777 18.8963H172.572V13.0262H166.777V18.8963Z" fill="#D18E11"/>
<path d="M184.868 24.9063V18.8963H178.72V24.9063H184.868Z" fill="#D18E11"/>
<path d="M184.868 30.7765H190.663V24.9063H184.868V30.7765Z" fill="#D18E11"/>
<path d="M190.663 36.7864H197.023V30.7765H190.663V36.7864Z" fill="#D18E11"/>
<path d="M197.023 42.7963H202.677V36.7864H197.023V42.7963Z" fill="#D18E11"/>
<path d="M202.677 48.8063H208.895V42.7963H202.677V48.8063Z" fill="#D18E11"/>
<path d="M172.572 18.8963V24.9063H178.72V18.8963H172.572Z" fill="#F8D835"/>
<path d="M208.895 54.5367H214.69V48.8063H208.895V54.5367Z" fill="#7E3B12"/>
<path d="M214.69 66.9759H220.909V54.5367H214.69V66.9759Z" fill="#7E3B12"/>
<path d="M220.909 78.5765H226.845V66.9759H220.909V78.5765Z" fill="#7E3B12"/>
<path d="M232.781 78.5765H226.845V97.1654H232.781V78.5765Z" fill="#7E3B12"/>
<path d="M226.845 138.117H232.781V97.1654H226.845V138.117Z" fill="#D18E11"/>
<path d="M226.845 138.117V150.416H232.781V138.117H226.845Z" fill="#7E3B12"/>
<path d="M226.845 150.416V156.566V162.506H232.781V150.416H226.845Z" fill="#79470D"/>
<path d="M220.887 168.167V174.176H221.05H226.845V168.167H220.887Z" fill="#713612"/>
<path d="M220.887 156.566C220.871 162.079 220.887 168.167 220.887 168.167H226.845V162.506V156.566H220.887Z" fill="#7E3B12"/>
<path d="M226.845 150.416H220.909C220.902 152.111 220.893 154.303 220.887 156.566H226.845V150.416Z" fill="#D18E11"/>
<path d="M214.831 168.167V174.176H220.887V168.167H214.831Z" fill="#D18E11"/>
<path d="M220.887 174.176H214.831V180.117V186.057H221.05V174.176H220.887Z" fill="#7E3B12"/>
<path d="M214.831 174.176H208.895V180.117H214.831V174.176Z" fill="#CA880D"/>
<path d="M202.677 186.057V191.787H208.895V186.057H202.677Z" fill="#CA880D"/>
<path d="M196.882 191.787V197.937H202.677V191.787H196.882Z" fill="#CA880D"/>
<path d="M208.895 186.057H214.831V180.117H208.895V186.057Z" fill="#7D4A13"/>
<path d="M208.895 197.937V191.787H202.677V197.937H208.895Z" fill="#7E3B12"/>
<path d="M214.831 191.787V186.057H208.895V191.787H214.831Z" fill="#7E3B12"/>
<path d="M6.36014 149.997H12.4376V138.117H6.36014V149.997Z" fill="#D18E11"/>
<path d="M6.36014 162.157H12.4376V156.566V149.997H6.36014V162.157Z" fill="#7E3B12"/>
<path d="M12.4376 174.596H18.2324V168.306V162.157H12.4376V174.596Z" fill="#7E3B12"/>
<path d="M24.0272 186.336V180.326V174.596H18.2324V186.336H24.0272Z" fill="#7E3B12"/>
<path d="M24.0272 191.927H30.246V186.336H24.0272V191.927Z" fill="#7E3B12"/>
<path d="M30.246 197.937H36.3235V191.927H30.246V197.937Z" fill="#7E3B12"/>
<path d="M42.5423 204.086V197.937H36.3235V204.086H42.5423Z" fill="#7E3B12"/>
<path d="M42.5423 209.817H48.4784V204.086H42.5423V209.817Z" fill="#7E3B12"/>
<path d="M60.492 209.817H54.1319H48.4784V215.687H54.1319V221.976H60.492V215.687V209.817Z" fill="#7E3B12"/>
<path d="M72.3643 215.687H66.5695H60.492V221.976H66.5695H72.3643V215.687Z" fill="#7E3B12"/>
<path fill-rule="evenodd" clip-rule="evenodd" d="M208.895 180.117V186.057H202.677V191.787H196.882V197.937H190.804V204.086H185.009V209.817H178.826H172.643V215.687H166.636H160.134V221.976H154.763H148.262H90.5967H84.2365H78.7244V215.687H72.3643H66.5695V209.817H60.492H54.1319V204.086H48.4784V197.937H42.5423V191.927H36.3235V186.336H30.246V180.326H24.0272V174.596V168.306H18.2324V162.157V156.566H12.4376V149.997V138.117V102.896V85.0057V78.7162H18.2324V72.9858V66.8361H24.3099V55.0958H30.246V48.946H36.3235V42.7963H42.2596V36.7864H48.1957V30.7765H54.2732V24.9063H60.28H66.2868V19.1759H78.0177H83.9539V13.0262H95.5435H108.405H137.52H154.622V18.8963H166.777H172.572V24.9063H178.72H184.868V30.7765H190.663V36.7864H197.023V42.7963H202.677V48.8063H208.895V54.5367H214.69V66.9759H220.909V78.5765H226.845V97.1654V138.117V150.416H220.909C220.902 152.111 220.893 154.303 220.887 156.566C220.871 162.079 220.887 168.167 220.887 168.167H214.831V174.176H208.895V180.117ZM56.3933 127.215V150.975V153.771H59.3613V156.566H62.3294V159.92H67.9828V162.576H74.343V165.791H80.2791V168.865H86.3566V171.661H92.7167V174.736H98.9355V177.81H104.872V180.466H111.09V183.681H117.027V186.755H135.824V183.681H142.043V180.466H147.979V177.81H153.774V174.736H160.417V171.661H166.777V168.865H172.713V165.791H178.649V162.576H182.041V159.92H185.009V153.771V130.01H182.041V126.936H178.649V124.42H172.713V121.065H166.777V117.711H160.841V114.916H154.339V111.701H148.121V109.045H142.043V105.971H135.824V102.476H129.747V97.3051H132.432V93.6712H135.259V90.8759V87.5215H138.368V84.5864H141.478V78.7162H144.587V60.6864H141.478V54.5367H138.368V51.3221H135.259V47.9677H129.747V44.7531H107.698V47.9677H101.762V51.3221H99.0769V55.0958H95.6848V60.6864H92.2927V78.7162H95.6848V84.5864H99.0769V87.5215H101.762V90.8759V93.6712H108.122V105.971H101.762V109.045H95.6848V111.701H86.6393V114.916H79.9965V117.711H74.0603V121.065H65.5801V124.42H59.9267V127.215H56.3933ZM142.043 132.945H138.51V135.881H135.824V138.955H138.51V135.881H142.043V132.945ZM113.917 93.6712H116.885V124.42H113.917V93.6712ZM147.979 209.817V215.687H91.0207V209.817H84.2365V204.086H72.3643V197.937H66.5695H60.492V191.927H54.1319V186.336H48.4784V180.326H42.5423V174.596V168.306H36.3235V162.576H30.246V156.566V144.826H24.0272V85.0057H29.9633V72.5665H36.1821V60.6864H42.2596V55.0958H48.1957V48.946H54.2732V42.7963H60.3507V36.9262H72.7883V30.7765H83.9539V24.9063H154.481V30.6367H154.622H166.777V36.7864H178.649V42.7963H184.868V48.8063H190.663V54.5367H196.74V60.6864H202.677V66.6265H208.895V72.5665V78.5765H214.69V84.5864V90.5963H220.909V135.042V144.267H214.69V150.416V156.566H208.895V162.506V168.446H202.677V174.736H196.882V180.466H190.804V186.057H185.009V191.787H178.649V197.937H172.713V203.947H166.636H160.134V209.817H147.979ZM48.4784 174.596H54.1319V180.326H60.492V186.336H66.5695H72.3643V191.927H83.9539V197.937H91.0207H147.979H154.622V191.787H166.636V186.057H172.643H178.649V180.466H185.009V174.736H190.804V168.446V162.576H196.882V156.566V150.137H202.677V144.267V126.516H208.895V97.1654H202.677V84.5864V78.856H196.74V72.5665V66.9759H190.663V60.6864H184.868V54.5367H178.649V48.8063H172.572V42.7963H166.777H154.622V36.7864H83.9539V36.9262V42.7963H72.7883H66.2868V48.946H60.3507V55.0958H54.2732V60.6864H48.1957V66.8361H42.2596V72.5665V78.7162H36.1821V85.0057V97.3051H29.9633V127.215H30.246H36.3235V144.826V150.137H42.5423V156.566V162.576H48.4784V168.306V174.596Z" fill="#EBB222"/>
<path d="M18.2324 156.566H12.4376V162.157H18.2324V156.566Z" fill="#D18E11"/>
<path d="M24.0272 168.306H18.2324V174.596H24.0272V168.306Z" fill="#D18E11"/>
<path d="M30.246 180.326H24.0272V186.336H30.246V180.326Z" fill="#D18E11"/>
<path d="M36.3235 186.336H30.246V191.927H36.3235V186.336Z" fill="#D18E11"/>
<path d="M42.5423 191.927H36.3235V197.937H42.5423V191.927Z" fill="#D18E11"/>
<path d="M48.4784 197.937H42.5423V204.086H48.4784V197.937Z" fill="#D18E11"/>
<path d="M54.1319 204.086H48.4784V209.817H54.1319V204.086Z" fill="#D18E11"/>
<path d="M66.5695 215.687V209.817H60.492V215.687H66.5695Z" fill="#D18E11"/>
<path d="M78.7244 221.976V215.687H72.3643V221.976H78.7244Z" fill="#D18E11"/>
<path fill-rule="evenodd" clip-rule="evenodd" d="M123.104 51.3221H126.284V55.0958H123.104V51.3221Z" fill="#C53619"/>
<path d="M129.464 55.0958V51.3221H126.284V55.0958H129.464Z" fill="#881B0F"/>
<path fill-rule="evenodd" clip-rule="evenodd" d="M73.6363 124.42V127.215V130.15H76.7457H80.3498V133.365H83.9539H86.8513V135.881H89.7487H92.7167V138.955H95.6848H98.7235V141.891H101.762H104.66V145.105H107.557H110.737V147.9H113.917H117.062V150.975H120.207V153.771H126.355V150.975H132.432V147.9H138.651V145.105H144.87V141.891H150.947V138.955H157.307V135.881H163.526V132.945H169.462V130.15H172.713V127.215H166.777V124.42H160.841V121.065H154.339V117.99H148.121V114.916H142.043V111.701H135.824V108.626H129.606V117.711H132.574V121.065H138.51V124.42H142.043V132.945V135.881H138.51V138.955H135.824H129.606V141.891H108.122V138.955H102.045V135.881H99.0769V132.945H96.1088V124.42H99.0769V121.065H104.73V117.711H108.122V111.701H101.762V114.916H95.6848V117.711H86.7806V121.065H80.2791V124.42H73.6363Z" fill="#F3C830"/>
<path d="M113.917 147.9V150.975H117.062V147.9H113.917Z" fill="#F5D254"/>
<path d="M107.557 145.105V147.9H110.737V145.105H107.557Z" fill="#F5D254"/>
<path d="M101.762 141.891V145.105H104.66V141.891H101.762Z" fill="#F5D254"/>
<path d="M95.6848 138.955V141.891H98.7235V138.955H95.6848Z" fill="#F5D254"/>
<path d="M89.7487 135.881V138.955H92.7167V135.881H89.7487Z" fill="#F5D254"/>
<path d="M83.9539 133.365V135.881H86.8513V133.365H83.9539Z" fill="#F5D254"/>
<path d="M76.7457 130.15V133.365H80.3498V130.15H76.7457Z" fill="#F5D254"/>
<path d="M73.6363 127.215H71.0922V130.15H73.6363V127.215Z" fill="#F5D254"/>
<path fill-rule="evenodd" clip-rule="evenodd" d="M132.432 55.0958V57.8911V69.4917H129.464V75.6414H123.104V80.9525H104.73H101.762V75.6414H117.168V72.5665H123.104V69.4917H126.213V63.7613H129.464V55.0958H132.432Z" fill="#B4291A"/>
<path d="M110.666 87.5215H126.213V84.5864H132.432V80.9525H135.542V75.6414H138.368V63.7613H135.542V57.8911H132.432V69.4917H129.464V75.6414H123.104V80.9525H104.73V84.5864H110.666V87.5215Z" fill="#8F2014"/>
<g filter="url(#filter0_dii_10_3734)">
<path d="M269.632 78.4225V24.3745H278.08V16.1185H307.264V24.3745H315.808V53.7505H307.264V62.0065H303.136V65.3665H311.488V78.4225H299.392V70.2625H290.752V62.0065H281.824V78.4225H269.632ZM281.824 48.8545H303.52V29.2705H281.824V48.8545ZM332.276 78.4225V32.5345H340.724V24.3745H349.172V16.1185H361.46V24.3745H369.908V32.5345H378.452V78.4225H366.164V62.0065H344.468V78.4225H332.276ZM344.468 48.8545H366.164V37.4305H357.716V29.2705H352.916V37.4305H344.468V48.8545ZM394.919 78.4225V65.3665H403.367V29.2705H394.919V16.1185H424.103V29.2705H415.559V65.3665H424.103V78.4225H394.919ZM449.042 78.4225V70.2625H440.594V57.1105H452.786V65.3665H474.482V53.7505H449.042V45.5905H440.594V24.3745H449.042V16.1185H478.226V24.3745H486.77V37.4305H474.482V29.2705H452.786V40.7905H478.226V48.8545H486.77V70.2625H478.226V78.4225H449.042ZM511.686 78.4225V70.2625H503.238V24.3745H511.686V16.1185H540.87V24.3745H549.414V37.4305H537.126V29.2705H515.43V40.7905H532.422V53.7505H515.43V65.3665H537.126V57.1105H549.414V70.2625H540.87V78.4225H511.686ZM286.528 152.423V119.591H278.08V111.431H269.632V90.1185H281.824V106.535H290.272V114.791H295.072V106.535H303.52V90.1185H315.808V111.431H307.264V119.591H298.816V152.423H286.528ZM338.849 152.423V144.263H330.401V98.3745H338.849V90.1185H368.033V98.3745H376.577V144.263H368.033V152.423H338.849ZM342.593 139.367H364.289V103.271H342.593V139.367ZM401.492 152.423V144.263H393.044V90.1185H405.236V139.367H426.932V90.1185H439.22V144.263H430.676V152.423H401.492ZM455.688 152.423V98.3745H464.136V90.1185H493.32V98.3745H501.864V127.751H493.32V136.007H489.192V139.367H497.544V152.423H485.448V144.263H476.808V136.007H467.88V152.423H455.688ZM467.88 122.855H489.576V103.271H467.88V122.855ZM278.08 226.423V218.263H269.632V172.375H278.08V164.119H307.264V172.375H315.808V193.591H303.52V177.271H281.824V213.367H303.52V210.007H295.072V201.751H286.528V188.791H298.816V196.855H315.808V218.263H307.264V226.423H278.08ZM332.276 226.423V180.535H340.724V172.375H349.172V164.119H361.46V172.375H369.908V180.535H378.452V226.423H366.164V210.007H344.468V226.423H332.276ZM344.468 196.855H366.164V185.431H357.716V177.271H352.916V185.431H344.468V196.855ZM394.919 226.423V172.375H403.367V164.119H415.559V172.375H424.103V188.791H428.807V172.375H437.351V164.119H449.639V172.375H457.991V226.423H445.895V177.271H441.095V193.591H432.551V218.263H420.359V193.591H411.815V177.271H407.111V226.423H394.919ZM482.98 226.423V218.263H474.532V172.375H482.98V164.119H512.164V172.375H520.708V185.431H508.42V177.271H486.724V188.791H503.716V201.751H486.724V213.367H508.42V205.111H520.708V218.263H512.164V226.423H482.98ZM545.624 226.423V218.263H537.176V205.111H549.368V213.367H571.064V201.751H545.624V193.591H537.176V172.375H545.624V164.119H574.808V172.375H583.352V185.431H571.064V177.271H549.368V188.791H574.808V196.855H583.352V218.263H574.808V226.423H545.624Z" fill="#EBB222"/>
</g>
<defs>
<filter id="filter0_dii_10_3734" x="269.632" y="16.1185" width="318.092" height="215.041" filterUnits="userSpaceOnUse" color-interpolation-filters="sRGB">
<feFlood flood-opacity="0" result="BackgroundImageFix"/>
<feColorMatrix in="SourceAlpha" type="matrix" values="0 0 0 0 0 0 0 0 0 0 0 0 0 0 0 0 0 0 127 0" result="hardAlpha"/>
<feOffset dx="4.37242" dy="4.73678"/>
<feComposite in2="hardAlpha" operator="out"/>
<feColorMatrix type="matrix" values="0 0 0 0 0.270588 0 0 0 0 0.101961 0 0 0 0 0 0 0 0 1 0"/>
<feBlend mode="normal" in2="BackgroundImageFix" result="effect1_dropShadow_10_3734"/>
<feBlend mode="normal" in="SourceGraphic" in2="effect1_dropShadow_10_3734" result="shape"/>
<feColorMatrix in="SourceAlpha" type="matrix" values="0 0 0 0 0 0 0 0 0 0 0 0 0 0 0 0 0 0 127 0" result="hardAlpha"/>
<feOffset dx="3.64368" dy="2.18621"/>
<feComposite in2="hardAlpha" operator="arithmetic" k2="-1" k3="1"/>
<feColorMatrix type="matrix" values="0 0 0 0 1 0 0 0 0 0.825488 0 0 0 0 0.384615 0 0 0 1 0"/>
<feBlend mode="normal" in2="shape" result="effect2_innerShadow_10_3734"/>
<feColorMatrix in="SourceAlpha" type="matrix" values="0 0 0 0 0 0 0 0 0 0 0 0 0 0 0 0 0 0 127 0" result="hardAlpha"/>
<feOffset dx="-3.64368" dy="-2.91494"/>
<feComposite in2="hardAlpha" operator="arithmetic" k2="-1" k3="1"/>
<feColorMatrix type="matrix" values="0 0 0 0 0.528846 0 0 0 0 0.378875 0 0 0 0 0 0 0 0 1 0"/>
<feBlend mode="normal" in2="effect2_innerShadow_10_3734" result="effect3_innerShadow_10_3734"/>
</filter>
</defs>
</svg>
