<svg width="20" height="20" viewBox="0 0 20 20" fill="none" xmlns="http://www.w3.org/2000/svg">
<g clip-path="url(#clip0_110_520)">
<path d="M10 20C15.5228 20 20 15.5228 20 10C20 4.47715 15.5228 0 10 0C4.47715 0 0 4.47715 0 10C0 15.5228 4.47715 20 10 20Z" fill="#FF4500"/>
<path d="M16.6702 9.99998C16.6722 10.137 16.6552 10.2737 16.6192 10.406C16.5832 10.5382 16.5287 10.665 16.4572 10.782C16.3859 10.899 16.2984 11.0055 16.1974 11.0982C16.0964 11.191 15.9829 11.269 15.8602 11.33C15.8629 11.3665 15.8652 11.4032 15.8664 11.44C15.8694 11.5133 15.8694 11.5867 15.8664 11.66C15.8652 11.6967 15.8629 11.7335 15.8602 11.77C15.8602 14.01 13.2502 15.83 10.0302 15.83C6.81015 15.83 4.20015 14.01 4.20015 11.77C4.1974 11.7335 4.19515 11.6967 4.1939 11.66C4.19089 11.5867 4.19089 11.5133 4.1939 11.44C4.19515 11.4032 4.1974 11.3665 4.20015 11.33C4.00784 11.2416 3.83703 11.1124 3.69955 10.9515C3.56206 10.7906 3.46119 10.6017 3.4039 10.398C3.34671 10.1941 3.33452 9.98029 3.3682 9.77127C3.40187 9.56225 3.48059 9.36305 3.5989 9.18748C3.71711 9.01193 3.8721 8.86421 4.05311 8.75456C4.23412 8.64491 4.43682 8.57595 4.64715 8.55248C4.8575 8.5289 5.07047 8.55134 5.27129 8.61825C5.47211 8.68516 5.65597 8.79494 5.81015 8.93998C6.09636 8.74598 6.39622 8.57295 6.7074 8.42223C7.01865 8.27173 7.3404 8.14373 7.67015 8.03973C7.9999 7.93573 8.3369 7.85598 8.67815 7.80073C9.0194 7.74548 9.3644 7.71523 9.71015 7.70998L10.4502 4.23998C10.4584 4.19973 10.4747 4.16173 10.4979 4.12773C10.5209 4.09398 10.5507 4.06498 10.5849 4.04273C10.6194 4.02048 10.6579 4.00523 10.6984 3.99773C10.7387 3.99048 10.7801 3.99123 10.8201 3.99998L13.2702 4.48998C13.5174 4.06523 14.0364 3.88323 14.4947 4.06023C14.9529 4.23723 15.2149 4.72098 15.1124 5.20148C15.0102 5.68198 14.5737 6.01698 14.0832 5.99173C13.5924 5.96648 13.1926 5.58848 13.1401 5.09998L11.0002 4.64998L10.3502 7.76998C10.6917 7.77723 11.0324 7.80923 11.3694 7.86548C12.0443 7.97797 12.6994 8.18729 13.3144 8.48698C13.6216 8.63647 13.9176 8.80792 14.2002 8.99998C14.4033 8.80493 14.6586 8.67286 14.9352 8.61973C15.2117 8.5664 15.4978 8.59427 15.7589 8.69998C16.02 8.80563 16.245 8.98457 16.4067 9.21522C16.5684 9.4459 16.6599 9.71844 16.6702 9.99998ZM6.74615 11.3827C6.79665 11.504 6.87015 11.6142 6.96315 11.707C7.0559 11.8 7.16615 11.8735 7.2874 11.924C7.40876 11.9742 7.53882 12 7.67015 12C8.07465 12 8.43915 11.7562 8.59415 11.3827C8.7489 11.009 8.66315 10.579 8.37715 10.293C8.09115 10.007 7.66115 9.92123 7.2874 10.076C6.9139 10.231 6.67015 10.5955 6.67015 11C6.67015 11.1312 6.6959 11.2612 6.74615 11.3827ZM12.4737 13.7832C12.5249 13.7332 12.5542 13.665 12.5552 13.5935C12.5562 13.5217 12.5284 13.4527 12.4784 13.4015C12.4284 13.3502 12.3602 13.321 12.2887 13.32C12.2169 13.319 12.1479 13.3467 12.0902 13.39C11.9398 13.4978 11.7805 13.5928 11.6142 13.6737C11.4477 13.7547 11.2748 13.8216 11.0972 13.8735C10.9197 13.9252 10.7379 13.962 10.5542 13.9832C10.3702 14.0045 10.1849 14.01 10.0002 14C9.81565 14.0082 9.63065 14.0007 9.4474 13.9777C9.26411 13.955 9.08311 13.9165 8.9064 13.8627C8.7294 13.8092 8.55765 13.7407 8.3924 13.6582C8.22715 13.5757 8.06915 13.4792 7.92015 13.37C7.8684 13.3275 7.80265 13.3057 7.73565 13.309C7.66865 13.3122 7.6054 13.3405 7.5579 13.3877C7.51065 13.4352 7.4824 13.4985 7.47915 13.5655C7.4759 13.6325 7.49765 13.6982 7.54015 13.75C7.7159 13.8825 7.90265 13.9995 8.0984 14.1C8.29415 14.2005 8.4984 14.2837 8.7084 14.3492C8.9184 14.4147 9.13365 14.462 9.3519 14.4907C9.57015 14.5192 9.7904 14.529 10.0101 14.52C10.2299 14.529 10.4502 14.5192 10.6684 14.4907C11.1055 14.4332 11.5295 14.3011 11.9219 14.1C12.1177 13.9995 12.3044 13.8825 12.4802 13.75L12.4737 13.7832ZM12.2902 12.08C12.4257 12.0815 12.5602 12.0552 12.6854 12.0032C12.8107 11.951 12.9239 11.874 13.0184 11.7767C13.1129 11.6795 13.1864 11.564 13.2349 11.4372C13.2834 11.3106 13.3056 11.1755 13.3002 11.04C13.3002 10.6355 13.0564 10.271 12.6829 10.116C12.3092 9.96123 11.8792 10.047 11.5932 10.333C11.3072 10.619 11.2214 11.049 11.3762 11.4227C11.5312 11.7962 11.8957 12.04 12.3002 12.04L12.2902 12.08Z" fill="white"/>
</g>
<defs>
<clipPath id="clip0_110_520">
<rect width="20" height="20" fill="white"/>
</clipPath>
</defs>
</svg>
