<svg width="20" height="20" viewBox="0 0 20 20" fill="none" xmlns="http://www.w3.org/2000/svg">
<g clip-path="url(#clip0_110_515)">
<path d="M0.556009 12.8313C1.77262 16.888 5.53539 19.8461 9.98801 19.8461C15.4259 19.8461 19.8342 15.4378 19.8342 9.99996C19.8342 4.56212 15.4259 0.153809 9.98801 0.153809C4.77016 0.153809 0.500317 4.21319 0.163086 9.34581C0.80124 10.4157 1.04893 11.0775 0.555394 12.8313H0.556009Z" fill="url(#paint0_linear_110_515)"/>
<path d="M9.48041 7.53381L9.48134 7.58243L7.0721 11.0824C6.68195 11.0646 6.29057 11.1332 5.91887 11.2861C5.75707 11.3519 5.60259 11.4344 5.45795 11.5323L0.167182 9.35166C0.167182 9.35166 0.0447201 11.3658 0.554874 12.8667L4.29518 14.4101C4.4798 15.2495 5.05826 15.9855 5.9081 16.3393C6.5767 16.6172 7.32823 16.6182 7.99763 16.3424C8.66702 16.0665 9.19955 15.5362 9.47826 14.868C9.62695 14.512 9.69867 14.1287 9.68872 13.743L13.1327 11.28L13.2173 11.2815C15.2804 11.2815 16.9573 9.59966 16.9573 7.53381C16.9573 5.46796 15.2835 3.79227 13.2173 3.78796C11.1552 3.78796 9.47733 5.46796 9.47733 7.53381H9.48041ZM8.90195 14.6261C8.45457 15.703 7.2201 16.2098 6.14718 15.7627C5.67106 15.5626 5.28514 15.1945 5.06287 14.7283L6.28041 15.2329C6.4685 15.3112 6.67017 15.3516 6.8739 15.352C7.07763 15.3523 7.27942 15.3125 7.46776 15.2348C7.65609 15.1571 7.82727 15.043 7.97151 14.8992C8.11575 14.7553 8.23024 14.5844 8.30841 14.3963C8.46672 14.0161 8.46765 13.5887 8.31102 13.2079C8.15438 12.827 7.85298 12.5239 7.47303 12.3652L6.21149 11.8437C6.69703 11.659 7.24903 11.6529 7.76534 11.8673C8.28841 12.0837 8.68841 12.491 8.90257 13.012C9.11672 13.5329 9.11549 14.1073 8.89949 14.6261M13.2207 10.0307C12.5596 10.0289 11.9262 9.76522 11.4592 9.29732C10.9921 8.82943 10.7296 8.19551 10.729 7.53443C10.7298 6.87344 10.9924 6.23968 11.4594 5.77192C11.9264 5.30416 12.5597 5.04052 13.2207 5.03873C13.8818 5.04036 14.5153 5.30393 14.9824 5.77171C15.4496 6.23948 15.7123 6.87334 15.713 7.53443C15.7125 8.19562 15.4498 8.82963 14.9827 9.29754C14.5155 9.76545 13.8819 10.0291 13.2207 10.0307ZM11.3536 7.53043C11.3532 7.03372 11.5501 6.55717 11.9008 6.20551C12.2516 5.85385 12.7277 5.65586 13.2244 5.65504C14.2567 5.65504 15.0964 6.49504 15.0964 7.53043C15.0967 8.02724 14.8996 8.50382 14.5486 8.85538C14.1975 9.20694 13.7212 9.40471 13.2244 9.40519C12.7278 9.40446 12.2517 9.20659 11.9009 8.85505C11.55 8.50352 11.3534 8.02708 11.3536 7.53043Z" fill="white"/>
</g>
<defs>
<linearGradient id="paint0_linear_110_515" x1="983.717" y1="0.153809" x2="983.717" y2="1969.38" gradientUnits="userSpaceOnUse">
<stop stop-color="#111D2E"/>
<stop offset="0.212" stop-color="#051839"/>
<stop offset="0.407" stop-color="#0A1B48"/>
<stop offset="0.581" stop-color="#132E62"/>
<stop offset="0.738" stop-color="#144B7E"/>
<stop offset="0.873" stop-color="#136497"/>
<stop offset="1" stop-color="#1387B8"/>
</linearGradient>
<clipPath id="clip0_110_515">
<rect width="20" height="20" fill="white"/>
</clipPath>
</defs>
</svg>
